<?xml version="1.0" encoding="UTF-8"?>
<svg id="b" data-name="Livello 2" xmlns="http://www.w3.org/2000/svg" viewBox="0 0 955.55 1012.64">
  <defs>
    <style>
      .d {
        fill: #fff;
        stroke: #35ffda;
        stroke-miterlimit: 10;
      }
    </style>
  </defs>
  <g id="c" data-name="Livello 1">
    <path class="d" d="M143.37,948.09c.04.08,5.08-2.09,10.16-6.78,2-1.85,3.41-3.53,4.44-4.77,3.53-4.25,5.61-7.88,6.47-9.34,1.69-2.88,6.74-11.79,12.99-17.51,4.11-3.76,8.33-5.77,16.75-9.79,14.72-7.01,17.44-5.45,23.53-10.92,4.19-3.76,3.52-5.05,10.35-11.86,6.56-6.54,7.58-5.75,11.11-9.79,2.9-3.32,5.3-9.79,9.98-22.59,3.81-10.41,5.71-15.61,6.02-18.07.61-4.75.36-8.76,3.01-14.12,1.68-3.39,3.79-5.85,3.39-6.21-.54-.48-4.02,4.02-9.6,6.59-5.47,2.51-10.5,2.03-13.36,1.88-11.04-.57-20.85,2.29-36.89,6.96-14.09,4.11-21.23,6.18-28.24,12.61-2.31,2.12-1.69,2.04-14.49,23.72-15.95,27.02-9.7,14.94-19.2,31.06-1.17,1.99-2.62,4.47-5.08,7.53-7.04,8.75-16.1,14.46-16.94,13.55-.64-.69,3.38-5.45,5.08-7.34,5.76-6.4,9.1-6.73,13.55-11.86,1.68-1.93.93-1.57,6.4-11.29,7.67-13.64,8.24-12.75,9.22-16.56,1.31-5.08.69-8.19,3.58-13.55,1.31-2.43,3.08-4.85,3.01-4.89-.11-.07-3.07,7.14-9.79,10.54-2.79,1.41-3.5.78-11.48,2.26-4.57.84-9.49,1.75-14.31,3.58-3.85,1.46-4.52,2.32-13.55,7.91-12.55,7.76-12.78,7.04-17.32,10.54-8.48,6.55-12.65,12.93-12.8,12.8-.19-.16,6.5-10.94,18.82-20.71,7.49-5.93,14.34-9.35,20.14-12.24,11.04-5.5,14.94-5.67,24.66-11.67,1.73-1.07,6.46-4.06,12.05-8.66,9.11-7.5,10.25-10.82,16.94-16.75,9.41-8.34,18.94-12.19,23.34-13.93,10.56-4.17,12.07-2.13,27.48-6.59,6.1-1.76,15.19-4.44,25.79-9.98,5.29-2.76,15.47-8.59,26.16-18.45,10.92-10.06,11.23-14.04,21.46-22.59,7.29-6.09,10.61-6.95,19.95-12.8,18.45-11.56,30.79-23.8,37.27-30.31,7.13-7.15,17.4-17.58,27.29-33.51,5.56-8.95,9.63-17.41,13.74-25.98,4.75-9.88,7.12-14.83,9.41-21.65,6.33-18.85,6.18-34.38,5.65-34.45-.93-.13-2.5,47.8-24.85,68.14-10.74,9.77-23.15,12.42-23.15,12.42-6.23,1.33-11.03.93-13.93.75-21.9-1.36-26.14,4.06-60.61,5.84-22.82,1.18-22.75-1.11-33.32,1.51-5.03,1.24-19.87,5.08-33.88,16.56-5.36,4.39-5,5.31-16,15.06-7.95,7.04-11.92,10.56-17.88,14.49-11.05,7.3-12.79,5.37-21.65,11.67-9.13,6.5-14.71,13.83-18.45,18.82-7.09,9.47-5.28,10.52-13.74,22.21-7.57,10.46-9.54,10.35-11.48,16.19-2.39,7.19-.69,11.27-4.52,18.82-2.62,5.17-6.37,9.11-7.15,8.66-1.79-1.03,13.05-24.49,8.28-28.61-2.78-2.4-11.16,2.73-14.87,5.46-7.92,5.81-9.15,11.3-16.56,19.76-3.12,3.57-8,8.42-15.25,13.18,5.71-9.08,11.12-16.39,15.44-21.84,8.77-11.07,13.29-16.67,20.14-20.14,4.58-2.32,6.81-2.3,10.73-5.46,4.74-3.81,6.31-7.72,10.16-15.25,8.97-17.51,12.82-20.51,11.11-23.15-.96-1.48-3.54-2.67-21.27.94-21.97,4.47-32.95,6.71-40.47,13.55-6.63,6.03-4.94,8.68-15.06,21.46-6.76,8.54-13.3,14.66-17.69,18.45,16.1-18.44,17.53-23.33,16.38-24.66-2.52-2.91-20.16,8.01-23.34,9.98-7.59,4.7-13.36,9.34-17.13,12.61,2.9-4.46,7.92-10.93,16-16,8.83-5.54,13.36-4.4,21.65-10.16,8.87-6.17,7-9.78,16.19-18.26,10.52-9.71,22.11-13.42,28.99-15.62,13.42-4.3,14.46-1.22,27.86-4.71,19.15-4.98,32.26-15.24,38.4-20.14,11.93-9.53,10.73-12.55,24.47-26.35,8.68-8.72,21.68-21.76,40.66-31.06,13.2-6.47,26.5-8.95,53.08-13.93,24.05-4.5,23.83-2.64,33.69-5.65,28.97-8.85,46.74-29.8,52.14-36.33,18.94-22.89,24.27-47.88,28.24-73.04,2.96-18.79,16.81-81.66,8.47-162.82-2.24-21.75-5.31-38.22-16.56-54.21-9.91-14.07-22.08-22-42.35-35.2-20.07-13.07-30.11-19.61-44.61-22.21-6.86-1.23-33.06-6.26-53.08,8.47-8.28,6.09-13.09,13.77-19.2,23.53-9.33,14.9-9.31,21.99-19.2,32.75-8.75,9.52-18.3,14.35-18.64,13.93-.34-.43,8.54-6.39,17.32-17.69,4.58-5.9,14.68-20.4,11.48-23.91-1.86-2.04-7.79.16-30.31,12.24-18.84,10.1-44.27,24.42-44.24,24.47.04.07,39.54-20.83,37.46-25.98-1.67-4.14-29.81,2.96-29.74,3.39.05.32,15.82-1.46,32.19-5.65,11.58-2.96,20.96-5.44,31.25-11.86,8.07-5.04,24.94-17.66,22.4-24.09-1.88-4.77-20.29-2.99-57.04.75-17.09,1.74-30.31,3.55-45.36,9.79-8.66,3.59-14.36,5.95-20.14,11.67-5.25,5.2-7.12,9.76-15.44,17.32-5.11,4.65-9.56,7.6-9.79,7.34-.51-.6,21.89-17.24,19.58-21.46-2.8-5.13-40.79,10.33-40.85,10.16-.03-.09,12.08-5.69,39.15-15.25,12.91-4.56,18.03-6.06,18.07-8.66.08-5.07-19.36-9.68-32-11.67-35.45-5.59-67.92,1.4-67.76,2.82.2,1.85,55.94.6,56.85-6.96.89-7.43-51.29-19.47-51.2-19.76.06-.2,23.19,3.92,54.4,15.62,13.17,4.94,20.66,8.55,34.07,10.35,12.41,1.66,22.24.75,29.74,0,12.48-1.24,29.5-2.94,30.12-7.72.54-4.18-11.93-7.11-38.21-19.76-22.28-10.73-21.22-12.43-38.78-20.14-22.92-10.07-34.38-15.11-46.31-14.68-13.29.47-22.06,5.24-38.02,1.13-7.61-1.96-14.01-5.2-13.74-6.21.35-1.31,11.92,1.12,32.19,2.07,13.12.61,13.81-.15,13.93-.56,1.22-4.3-44.52-20.83-44.42-21.08.08-.2,28.37,10.72,47.06,17.69,12.11,4.52,9.29,3.32,16.38,6.02,7.59,2.89,10.88,4.29,16.38,5.84,3.55,1,15.28,4.29,16.19,2.26.63-1.41-4.28-4.59-8.85-8.09-20-15.34-18.87-25.7-33.88-33.88-9-4.91-9.03-.98-22.78-6.4-20.08-7.92-33.19-21.5-32.56-22.4.42-.6,7.18,4.34,23.72,12.99,19.62,10.26,31.88,16.68,34.26,13.93,4.46-5.16-28.41-39.62-27.86-40.09.37-.32,15.73,14.25,30.68,37.08,5.9,9.01,5.3,9.48,9.6,15.25,8.59,11.52,18.37,19.54,32.38,28.8,12.2,8.07,46.18,30.54,50.45,25.41,4.74-5.7-28.92-43.37-30.31-42.35-1,.74,11.15,24.37,33.88,40.85,11.47,8.31,21.83,12.05,25.79,13.36,5.72,1.9,20.57,6.2,39.53,4.14,11.7-1.27,11.11-3.46,25.41-6.21,26.96-5.18,43.4-.16,44.8-4.71,1.34-4.36-12.8-12.33-18.64-15.62-22.51-12.69-29.41-9.32-49.88-19.01-18.83-8.91-18.03-14.13-44.8-27.29-11.07-5.44-18.54-8.15-26.54-9.98-12.99-2.96-16.35-1.06-28.05-3.01-23.1-3.86-39.42-16.18-39.15-16.75.2-.42,9.75,4.88,26.16,9.6,10.68,3.07,34.29,8.78,35.95,4.71,1.38-3.37-14.13-8.91-39.53-29.74-12.33-10.11-16.24-15.01-26.35-18.45-11.24-3.82-16.45-1.18-29.18-2.07-29.39-2.05-50.29-19.52-50.26-19.58.02-.04,12.01,7.93,31.25,13.55,18.27,5.34,44.38,8.96,46.49,3.2,1.67-4.55-12.2-13.47-32.19-26.16C27.41,61.97.52,49.21.5,49.26c-.02.03,10.32,5.07,57.04,27.67C27.41,36.66,21.38,27.73,21.77,27.43c.64-.49,20.9,20.03,42.35,47.62,5.72,7.35,15.68,20.56,33.13,32.19,3.93,2.62,16.37,10.9,19.2,8.09,3.06-3.03-6.62-17.45-13.18-27.11-20.64-30.4-39.71-47.42-39.15-48,.56-.58,22.45,13.42,39.53,40.09,9.38,14.65,8.41,19.24,18.26,32.94,3.79,5.27,12.31,16.25,33.13,32,5.39,4.07,57.69,43.62,66.82,34.45,6.59-6.62-11.46-36.4-26.73-53.65-10.58-11.95-20.58-18.72-23.91-20.89-18.91-12.34-38.4-16.87-38.59-16.38-.25.68,33.9,15.79,35.95,12.24.86-1.49-4.15-5.78-23.15-21.46-30.54-25.19-38.01-30.93-37.65-31.44.54-.75,18.94,8.7,37.27,25.22,8.29,7.47,12.97,13.15,14.31,12.24,2.96-2.04-15.29-33.38-15.06-33.51.17-.09,8.7,17.16,19.76,33.51,17.14,25.32,41.44,50.11,45.93,47.06,6.44-4.37-29.58-64.92-27.48-66.07,1.3-.72,18.09,21.09,28.24,50.82,3.32,9.75,3.06,11.93,6.96,21.65,5.25,13.08,11.11,27.65,22.96,38.4,10.38,9.4,13.72,5.34,41.6,18.82,11.49,5.56,19.27,10.29,34.82,19.76,28.24,17.19,24.74,17.68,40.09,26.16,31.25,17.27,46.98,15.95,55.15,32,5.62,11.03,3.48,22.05,3.95,22.02.74-.05,5.1-26.37-5.46-53.65-5.91-15.26-15.44-25.94-34.26-46.68-5.51-6.08-18.14-19.66-41.41-40.28-21.01-18.62-41.52-34.85-56.28-46.49-34.74-27.41-50.68-38.22-48-48.38,1.24-4.7,6.24-8.34,10.73-9.04,7.9-1.23,13.98,6.65,34.64,28.05,18.15,18.79,22.91,22.51,25.04,21.27,2.22-1.3-.5-6.83-2.07-25.41-1.04-12.32.04-11.36-1.13-19.95-1.52-11.21-3.74-15.78-1.13-18.26,2.62-2.49,9-1.83,12.24,1.51,4.76,4.9.35,13.13-.94,26.54-.38,3.97-1.84,20.9,5.08,36.33,6.85,15.26,19.47,23.63,30.12,30.68,11.64,7.72,17.7,8.85,27.67,13.74,37.48,18.37,44.31,47.59,54.59,44.61,13.04-3.78,22.4-56.77.19-97.51-13.95-25.58-35.41-37.27-31.06-55.34,2.15-8.95,10.27-17.96,18.64-18.26,18.12-.65,30.76,39.77,37.65,37.46,6.11-2.05-6.68-32.93,7.53-46.68,10.61-10.27,33.78-8.58,38.78,0,2.84,4.88-.35,11.72,1.13,12.24,2.34.81,6.13-17.63,17.69-21.46,9.11-3.02,22.22,3.3,24.85,11.86,2.68,8.74-6.43,17.06-13.55,27.11-12.88,18.16-14.67,35.64-18.26,70.59-4.49,43.74.45,91.2,8.28,91.86,3.66.31,4.97-9.86,16.09-25.74,10.42-14.88,19.4-20.12,26.68-27.53,15.25-15.51,23.69-42.91,22.87-63.53-.4-10.1-2.86-21.5,1.69-23.72,2.01-.98,4.97.02,6.78,1.69,8.13,7.54-4.9,30.9-1.69,32.61,2.51,1.34,13.77-11.23,23.29-27.95,11.31-19.85,13.85-34.43,21.6-34.73,2.91-.11,5.9,1.82,7.2,4.24,3.49,6.48-5.04,16.76-18.64,34.31-29.38,37.91-29.98,42.08-28.8,43.62,1.97,2.59,10.06-.66,24.99-6.78,22.76-9.33,34.2-14.02,47.01-24.56,15.11-12.44,19.47-22.61,27.95-21.18,5.08.86,9.84,5.59,10.59,10.59,1.32,8.82-10.02,17.34-24.99,27.11-44.35,28.93-55.42,26.36-75.39,43.62-8.48,7.33-17.65,21.55-36,49.98-22.74,35.24-27.37,50.02-29.65,60.14-4.35,19.37-5.17,44.48,2.12,47.01,4.84,1.68,12.32-6.94,19.91-15.67,11.41-13.14,11.53-19.32,19.91-26.68,8-7.03,12.74-5.65,27.95-11.44,26.82-10.21,44.3-26.76,51.67-33.88,12.77-12.33,20.27-23.81,22.87-27.95,10.33-16.45,18.57-29.59,18.21-46.59-.14-6.77-1.63-13.13,0-24.56,1.35-9.46,4.13-17.53,5.08-17.36,2.16.38-5.56,43.04,0,44.47.4.1.87,0,2.34-1.18,6.95-5.55,9.1-13.31,14.18-25.08,1.94-4.49,1.43-2.92,3.79-8.33,5-11.46,12.37-30.21,11.46-30.64-2.14-1-58.25,94.14-44.47,105.04,6.71,5.3,28.76-10.3,40.66-23.29,17.65-19.28,21.97-42.7,22.87-48.28,2.06-12.79.16-18.67,4.66-33.46,4.28-14.06,10.92-24.95,11.86-24.56.88.36-3.18,10.68-7.62,30.07-3.39,14.81-5.04,22.24-2.96,23.29,4.22,2.14,20.2-19.82,27.95-31.76,1.41-2.16,2.77-4.36,4.19-6.73,12.98-21.76,19.56-41.11,19.53-41.13-.05-.02-19.09,39.5-13.98,42.78,5.6,3.59,38.62-37.23,38.12-37.69-.37-.34-21.35,19.06-40.66,44.89-10.36,13.86-10.85,17.01-20.75,28.38-6.32,7.25-12.15,12.89-18.21,23.29-4.79,8.21-9.81,16.83-7.2,19.91,4.85,5.7,33.62-10.51,50.82-22.45,22.34-15.49,38.4-26.63,45.32-47.01,4.13-12.16,1.59-17.58,8.47-33.88,6.95-16.47,16.94-28.46,17.79-27.95.67.4-4.21,8.69-11.44,25.84-7.87,18.68-11.74,28.07-8.89,30.49,3.97,3.39,18.5-5.53,25.41-13.55,1.63-1.89,3.22-4.16,3.22-4.16,4.81-6.84,6.8-12.89,7.37-14.48,4.74-13.38,22.64-34.17,23.72-33.46,1.44.96-12.42,22.86-17.79,31.34-7.46,11.79-10.97,16.18-9.93,17.22,1.43,1.44,9.88-5.04,35.39-24.28,27.86-21.01,32.71-24.56,32.94-24.28.36.44-10.84,11.03-24.85,22.02-19.16,15.04-29.54,19.83-28.61,22.21,1.93,4.93,49.18-8.66,49.13-8.85-.03-.13-23.08,4.78-48.38,13.74-11.52,4.08-17.4,6.2-23.15,9.79-9.55,5.96-11.53,10.1-31.06,30.68-14.78,15.58-18.62,18.46-17.51,20.71,2.39,4.81,24.8,1.13,43.29-8.28,11.68-5.94,12.67-9.52,36.33-23.91,4.96-3.02,20.01-12.17,20.89-10.92.67.95-7.08,7.44-8.09,8.28-9.5,7.95-16.16,10.82-31.25,20.89-7.83,5.23-8.25,5.94-8.09,6.4,1.63,4.8,66.57-15,68.14-10.35.49,1.45-5.43,4.65-6.59,5.27-19.91,10.74-35.08,1.38-63.81,8.09-6,1.4-3.71,1.43-16,4.89-23.12,6.52-26.52,5.09-40.28,9.22-3.84,1.15-16.86,7.31-42.73,19.58-14.01,6.64-21.06,9.99-23.15,11.11-12.63,6.75-22.77,13.73-41.79,28.61-25.93,20.29-53.83,42.12-51.01,46.68,1.03,1.67,5.11-.65,13.93-.38,12,.38,19,5.14,25.22,7.53,19.07,7.32,40.95-3.73,57.41-12.05,10.28-5.19,24.68-12.47,35.01-27.86,4.2-6.26,3.67-7.82,11.11-20.14,9.45-15.66,19.14-27.78,19.58-27.48.22.15-2,3.54-8.47,14.49-11.71,19.83-12.06,21.69-11.48,22.21,1.57,1.41,10.71-6.36,17.13-11.86,20.29-17.38,30.95-30.99,32.38-29.93.95.7-2.25,7.83-7.34,14.68-10.12,13.62-19.99,15.76-34.82,27.11-9.99,7.64-26.5,22.72-23.91,27.29,2.66,4.69,25.83-.88,44.42-12.24,17.3-10.56,28.82-25.02,36.33-34.45,12.32-15.46,13.02-21.19,24.09-29.74,14.34-11.06,29.65-14.18,29.93-13.55.26.58-12.24,4.71-26.35,16-10.59,8.47-21.3,20.35-19.39,22.96.67.92,2.98.83,24.66-8.28,21.17-8.9,28.78-12.94,30.12-11.11,1.08,1.48-2.26,6.41-6.4,9.6-7.2,5.54-14.33,3.91-23.72,5.27-11.37,1.65-19,6.67-29.18,13.36-13.67,8.99-27.27,22.86-25.04,26.35.98,1.53,4.45.21,16.56-2.26,22.29-4.54,21.33-2.25,29.18-5.08,16.59-5.98,25.56-17.9,28.42-15.44,1.24,1.07.31,3.94.19,4.33-2.92,9.06-21.05,10.37-20.89,11.29.22,1.34,38.01-4.76,38.59-2.26.22.95-4.87,3.34-10.16,4.71-12.57,3.23-18.36-1.4-32.19,1.51-4.25.89-10,2.1-10.35,4.71-.53,3.97,11.7,9.33,21.08,11.86,13.08,3.53,23.84,2.42,23.91,3.58.04.75-4.51,1.85-8.85,2.26-17.41,1.65-31.04-7.74-31.81-8.28-5.35-3.8-5.3-5.57-9.6-7.15-7.35-2.71-14.46-.11-18.64,1.32-13.22,4.53,9.86-4.98-37.08,9.22-24.04,7.27-33.27,10.73-40.66,13.74-23.44,9.55-23.92,12.83-23.91,13.93.08,8.17,28.57,13.61,32.19,14.31,8.94,1.71,25.21,4.63,44.05-.94,11.25-3.33,10.59-5.89,24.09-10.16,18.13-5.74,34.46-5.91,34.64-4.89.12.7-7.38,1.96-23.15,6.78-16.43,5.02-29.52,9.01-29.18,11.86.35,2.91,14.56,3.47,26.54,3.95,25.21,1.01,43.1-1.38,43.29,0,.11.79-5.54,2.51-11.48,3.58-19.92,3.56-35.79-1.67-36.14-.38-.5,1.87,33.24,10.05,32.56,17.69-.15,1.71-1.96,2.76-2.07,2.82-6.19,3.49-15.54-12.02-35.01-20.14-9.34-3.9-17.05-4.45-28.61-5.27-9.11-.65-31.18-1.28-32.19,3.58-.63,3.03,7.16,7.01,11.86,9.41,18.72,9.57,31.38,6.24,40.85,16.94.87.99,3.87,4.37,3.01,5.65-1.97,2.94-23.94-5.75-41.22-15.44-4.27-2.39-7.5-4.42-8.28-3.58-2.26,2.43,18.51,25.86,18.82,25.6.26-.21-10.7-17.9-29.18-32.56-7.28-5.78-17.04-13.37-31.06-16.94-13.14-3.35-21.47-.98-37.08.75-37.58,4.18-41.75-3.71-64,.38-23.74,4.36-39.2,17.05-57.41,32-13.65,11.21-44.11,36.86-58.54,80.56-6.75,20.46-7.02,35.85-7.53,65.32-.39,22.41,1.79,23.55,8.28,100.33,1.61,19.1,1.79,22.69,3.76,29.74,1.47,5.24,11.88,40.46,43.48,59.67,18.04,10.97,26.96,6.97,57.79,14.49,31.68,7.73,50.06,13.65,69.27,28.05,2.84,2.13,11.43,10.66,28.61,27.72,36.28,36.02,35.03,36.31,40.66,39.39,24.88,13.6,36.68,1.02,62.26,17.36,13.69,8.75,11.54,13.13,24.99,19.48,14.27,6.73,26.05,6.22,38.12,17.79,4.31,4.13,7.41,8.61,6.78,9.32-.93,1.04-9.35-6.59-23.72-13.13-6.24-2.84-17.02-7.75-19.06-5.08-2.22,2.91,6.19,14.6,15.67,22.45,7.66,6.35,14.54,8.95,13.98,10.59-.51,1.48-7.01,1.88-12.71-.42-13.98-5.66-10.44-22.51-26.68-36.42-5.68-4.87-11.17-7.14-19.48-10.59-11.53-4.78-15.49-4.04-30.07-8.05-22.54-6.19-30.85-12.83-33.46-9.74-3.4,4.03,7.83,18.71,11.01,22.87,9.53,12.46,19.86,19.34,22.02,20.75,13.87,9.06,17.89,6.09,29.65,14.4,13.27,9.38,21.2,22.4,19.91,23.72-.83.85-5.63-3.04-28.38-19.48-22.18-16.03-28.1-19.91-30.07-18.21-2.35,2.02,2.09,10.94,4.66,16.09,5.61,11.26,12.87,19.26,13.13,19.06.37-.28-11.15-18.15-26.68-35.58-9.77-10.96-12.15-11.68-17.79-19.91-8.59-12.54-8.22-18.41-14.4-29.65-7.65-13.91-17.45-21.68-29.65-31.34-5.97-4.73-22.23-16.9-46.59-25.41-10.9-3.81-25.49-8.91-44.89-8.89-17.85.02-20.14,4.35-38.54,2.96-15.79-1.18-28.06-5.42-34.31-7.62-11.55-4.07-17.33-6.11-23.29-11.01-8.97-7.37-10.34-14.27-19.48-31.76-8.55-16.35-19.2-32.98-19.91-32.61-1.14.6,13.88,50.86,53.36,85.98,20.36,18.11,35.58,26.68,35.58,26.68,18.56,10.46,26.52,10.26,37.69,21.6,9.31,9.45,7.07,12.93,19.48,27.53,5.13,6.03,12.83,15.09,24.99,22.87,12.23,7.83,23.56,10.91,41.08,15.67,20.48,5.57,22.4,3.56,29.65,8.47,9.97,6.76,8.71,12.16,22.45,24.99,4.67,4.36,11.66,10.79,22.02,15.67,11.89,5.6,16.81,3.81,27.95,7.2,24.08,7.34,37.78,26.91,37.27,27.53-.47.57-14.24-13.41-38.54-22.02-6.4-2.27-22.36-7.92-25.84-2.96-3.94,5.61,10.02,22.14,11.01,23.29,5.89,6.88,9.7,8.37,17.36,17.79,2.72,3.34,8.71,10.71,7.62,11.86-1.4,1.48-15.09-6.93-25.84-19.06-9.71-10.96-7.98-14.76-19.06-32.61-15.41-24.84-28.5-33.16-31.76-35.15-9.67-5.89-20.88-9.54-22.45-7.2-1.85,2.75,11.73,10.7,20.33,30.07,3.84,8.65,2.32,9.73,6.35,19.06,8.03,18.56,19.82,27.62,19.06,28.38-.83.82-16.4-7.99-26.26-25.41-7.6-13.42-4.93-19.8-13.55-33.04-6.64-10.18-14.7-16.36-18.64-19.06-20.34-13.98-34.88-7.05-49.98-22.02-6.39-6.34-8.29-12.05-9.74-11.44-2.97,1.27,3.67,25.94,13.13,47.01,7.08,15.78,12.08,26.91,23.29,38.12,14.1,14.1,20.64,10.94,28.8,23.72,2.21,3.46,8.41,14.15,18.44,24.37.86.88,1.65,1.65,1.89,1.89,8.94,8.73,16.48,13.56,19.48,15.67,13.51,9.5,21.62,24.63,20.75,25.41-.63.57-6.87-5.78-25.84-22.45-18.18-15.98-21.98-18.52-23.72-17.36-3.03,2.03,1.81,14.33,5.51,23.72,8.84,22.47,18.19,34.62,16.94,35.58-1.25.95-14.07-8.48-22.02-24.56-10.2-20.62-1.71-30.56-11.86-47.44-3.76-6.25-11.54-12.07-27.11-23.72-18.34-13.72-30.46-19.04-34.73-33.04-1.64-5.37-1.41-9.69-2.54-9.74-2.27-.1-6.16,17.18-5.08,34.73.5,8.08.87,14.18,4.24,21.18,5.41,11.26,12.65,12.58,21.18,22.02,14.7,16.29,16.53,38.25,14.82,38.96-1.36.57-6.8-11.57-23.72-37.27-11.96-18.17-14.75-20.48-16.52-19.91-5.99,1.94.22,36.82,0,36.85-.16.02-1.33-18.95-5.51-41.08-2.79-14.78-4.15-16.33-4.24-24.14-.17-15.12,4.83-18.71,6.78-33.46,2.48-18.8-2.85-34.14-5.51-41.51-2.58-7.17-8.51-21-21.18-34.31-15.74-16.54-40.05-30.36-45.74-24.99-4.6,4.34,3.4,20.78,10.59,35.58,2.47,5.09,3.75,7.09,11.86,21.18,0,0,18.81,32.68,18.21,33.04-.53.31-19.96-38.58-27.53-36-4.42,1.5-4.05,16.89-1.27,27.53,1.43,5.48,4.14,12.11,5.08,11.86,1.68-.44-.46-23.09-9.32-45.32-3.95-9.91-8.42-17.33-17.36-32.19-9.28-15.41-13.92-23.11-17.79-26.68-14.31-13.2-24.06-7.67-47.86-22.02-12.27-7.4-23.22-17.04-23.29-16.94-.08.1,14.16,6.84,18.21,20.33,2.5,8.33-1.52,10.48,0,19.91,1.46,9.04,7.77,16.32,20.33,30.49,10.89,12.29,14.76,14.14,18.64,22.87,2.77,6.24,1.69,7.3,4.66,17.36,1.83,6.2,5.34,17.78,13.13,29.65,9.64,14.69,22.11,24.11,23.29,24.99,6.36,4.73,9.75,5.93,13.98,11.44,3.29,4.28,5.06,9.13,8.47,18.64,4.7,13.11,3.84,14.34,7.2,20.75,3.63,6.93,7.98,11.85,11.01,15.25,8.73,9.78,12.59,9.93,14.4,16.09,1.75,5.95-1.09,8.33,1.27,14.4,2.59,6.66,8.7,10.7,9.32,10.16.3-.26-.71-1.57-23.29-31.76-10.73-14.35-13.86-18.54-15.67-17.79-4.14,1.72,2.8,27.48,2.54,27.53-.21.04-3.32-18-10.16-38.12-4.1-12.04-6.15-18.07-11.01-25.41-9.66-14.58-22.87-24.14-22.87-24.14-7.55-5.46-13.7-8.03-17.79-16.09-2.57-5.06-3.26-10.2-3.39-10.16-.21.05,5.65,13.09,4.24,28.8-1.03,11.4-4.75,11.6-5.08,21.6-.45,13.47,5.91,24.77,8.89,30.07,4.8,8.52,8.92,11.7,12.28,22.02,1.83,5.63.82,5.34,2.54,10.59,1.53,4.67,4.2,10.59,15.67,24.99,10.49,13.17,10.18,10.61,12.28,14.82,4.02,8.04,4.62,16.24,5.51,28.38.33,4.57.56,10.52,0,10.59-1.12.14,1.73-23.7-12.28-38.96-6.95-7.58-13.28-7.83-18.64-17.79-4.35-8.09-4.39-15.76-5.93-15.67-1.89.11-2.69,11.65-2.96,15.67-.67,9.73-.26,17.33,0,21.6,1.22,19.91,2.97,27.76,2.12,27.95-1.17.26-7.96-13.89-8.89-31.76-.87-16.72,4.27-19.44,1.69-34.31-.28-1.64-.11-.23-8.05-24.56-6.28-19.26-6.17-19.44-7.62-22.45-3.24-6.68-5.8-9.85-6.78-16.52-.99-6.8.4-12.22,0-12.28-.6-.09-.32,12.75-7.62,24.56-4.02,6.5-5.93,5.57-14.4,16.09-5.55,6.89-8.86,11.01-11.44,17.36-4.1,10.13-3.65,19.32-3.39,23.72.75,12.62,4.71,13.59,5.08,25.84.25,8.16-1.31,14.46-2.96,21.18-2.69,10.93-6.84,20.57-7.62,20.33-.91-.28,4.5-13.49,4.66-33.04.02-2.87-.41-8.27-1.27-19.06-1.74-21.75-2.77-24.23-4.24-24.56-2.45-.55-5.6,5.01-10.59,13.98-6.2,11.14-7.35,16.13-13.13,27.11-1.18,2.24-9.06,17.18-10.59,16.52-1.54-.66,2.44-17.5,11.01-33.88,8.83-16.87,13.32-15.68,20.33-31.34,6.2-13.86,3.83-17.36,10.59-27.95,6.75-10.59,10.52-9.3,18.21-19.91,10.65-14.7,12.7-30,13.13-33.88,1.49-13.38-1.41-23.17-5.08-35.58-1.29-4.37-8.35-27.4-13.55-26.68-2.85.4-2.48,7.57-8.05,22.45-3.97,10.61-4.92,9.01-8.05,17.79-1.05,2.96-5.59,16.19-5.51,33.88.03,6.09.61,13.14.85,13.13.57-.02,2.48-40.62-4.24-41.93-3.63-.71-8.71,10.22-11.44,16.09-8.42,18.12-7.88,31.39-9.32,31.34-1.95-.07-8.89-24.61,2.96-41.08,7.66-10.65,15.64-7.44,22.87-18.21,9.79-14.57,4.48-34.29,2.54-41.51-2.89-10.75-7.79-18.38-13.13-26.68-9.54-14.85-12.31-13.07-17.36-22.87-9.73-18.87-6.37-38.86-5.51-43.62,2.28-12.56,7.38-21.09,6.35-21.6-1.42-.7-7.64,17.11-24.99,31.76-4.53,3.82-12.08,9.35-16.09,12.28-9.53,6.97-12.71,8.77-16.94,13.55-1.39,1.57-2.79,3.35-9.32,14.82-8.25,14.51-12.39,21.84-12.71,25.84-.49,6.17,1.79,11.74,6.35,22.87,2.95,7.19,5.48,13.21,11.01,19.06,5.06,5.35,8.9,6.62,13.55,9.74,18.09,12.14,23.02,35.28,22.45,35.58-.47.24-5.45-14.42-20.33-28.38-8.42-7.89-20.06-15.61-22.87-13.13-1.98,1.75,2.21,6.99,6.35,22.02,3.45,12.53,1.88,13.76,5.08,21.18,2.81,6.51,5.16,8.19,13.13,19.06,7.78,10.61,11.68,15.92,14.4,21.6,8.43,17.57,5.88,36.99,3.81,37.27-3.34.45-11.59-48.01-15.25-47.44-2.01.32-1.2,15.17-2.54,15.25-1.34.08.13-14.7-8.47-27.53-5.57-8.3-9.48-7.03-13.98-15.25-2.75-5.03-2.1-6.99-4.66-23.72-2.47-16.18-3.71-24.27-5.93-27.95-4.11-6.82-9.34-10.24-10.16-18.64-.4-4.13.45-7.54,0-7.62-.73-.14-2.19,9.12-6.78,20.75-3.5,8.9-7.42,15.6-8.47,17.36-6.44,10.84-8.66,10.48-10.59,16.52-1.71,5.37-1,10.64.42,21.18,1.56,11.56,4.17,20.03,5.08,22.87,3.69,11.51,5.53,17.26,10.59,23.29,6,7.16,8.51,5.14,15.25,12.71,5.6,6.29,8.18,12.52,12.28,22.45,4.46,10.78,3.13,11.15,6.78,18.64,4.95,10.15,8.03,10.73,13.13,20.33,6.04,11.37,8.27,22.86,7.2,23.29-1.17.47-5.72-12.4-18.21-31.76-5.92-9.18-6.13-8.19-15.25-22.02-4.76-7.22-9.9-14.21-14.4-21.6-4.53-7.45-6.49-11.41-8.05-11.01-2.48.64,1.05,11.12-3.39,24.56-2.67,8.09-5.15,7.94-6.78,15.25-1.56,7,.45,8.34.85,20.75.35,11.13-1.19,12.22-.85,25.41.23,8.9,1.08,13.95.85,13.98-.44.06-4.71-16.83-5.08-37.69-.32-18.33,2.53-30.22,0-30.92-.59-.16-1.87.18-10.59,14.82-6.24,10.48-8.47,14.82-8.47,14.82-18.39,35.83-22.08,44.05-23.29,43.62-1.58-.56,1.72-15.63,6.78-28.8,1.79-4.67,5.06-13.05,11.44-22.87,11.16-17.19,17.45-16.62,22.02-28.8,3.47-9.25,2.83-17.54,2.12-26.68-1.02-13.12-4.7-23.54-7.2-30.49-5.7-15.83-10.25-19.98-9.32-30.07.75-8.04,4.42-13.87,3.39-14.4-1.19-.62-4.93,7.78-13.98,16.52-8.14,7.86-11,6.75-17.36,13.98-4.08,4.63-6.11,8.88-10.16,17.36-4.18,8.75-7.53,15.76-9.32,25.41-2.26,12.22.83,13.31-1.69,24.99-.5,2.3-.5,1.71-8.47,22.02-4.47,11.38-6.29,16.2-10.59,22.45-2.75,3.99-7.77,10.4-8.89,9.74-1.81-1.06,9.58-18.77,16.52-45.74,4.11-15.99,5.7-31.51,3.39-32.19-1.84-.54-3.76,8.99-13.55,19.48-7.03,7.53-9.69,6.54-18.21,15.25-3.09,3.16-8.37,8.63-13.13,16.94-5.15,8.99-6,14.87-13.13,21.6-1.08,1.02-6.08,5.74-7.62,4.66-2.14-1.5,3.72-13.31,8.05-22.02,7.06-14.23,10.6-21.34,15.67-27.11,10.14-11.53,15.41-9.6,24.56-21.6,1.6-2.09,1.92-2.79,10.16-18.64,13.3-25.57,14.85-28.37,17.36-32.19,1.99-3.02,2.84-4.04,18.64-22.45,21.2-24.7,24.56-28.58,29.65-36.42,10.09-15.56,12.46-24.4,13.13-27.11,2-8.06.9-9.83,2.96-21.18,3.17-17.39,8.42-27.81,7.2-28.38-1.47-.69-6.3,15.76-21.6,28.8-9.63,8.21-12.59,5.84-26.68,16.09-13.07,9.51-21.03,19.19-23.29,22.02-4.44,5.56-8.75,13.16-17.36,28.38-6.05,10.68-6.46,12.15-12.28,22.02-4.54,7.7-5.3,8.54-11.86,19.48-4.51,7.54-4.93,8.45-11.44,19.48-9.96,16.9-8.68,14.27-13.13,22.02-8.25,14.38-9.91,18.68-16.09,26.26-2,2.45-10.05,12.33-12.28,11.01-2.05-1.21,1.55-11.39,4.24-17.36,2.22-4.93,3.69-6.71,10.16-17.36,8.13-13.37,8.45-14.91,8.05-15.25-1.13-.94-6.9,8.27-19.48,13.98-7.83,3.55-9.67,1.83-16.09,5.93-1.85,1.18-3.7,2.6-13.13,12.28-7.76,7.96-7.32,7.83-9.74,10.16-11.68,11.25-23.6,15.88-23.53,16Z"/>
  </g>
</svg>