<?xml version="1.0" encoding="UTF-8"?>
<svg id="b" data-name="Livello 2" xmlns="http://www.w3.org/2000/svg" viewBox="0 0 419.11 505.57">
  <defs>
    <style>
      .g {
        fill: #0c0c0c;
      }

      .g, .h, .i, .j, .k, .l, .m, .n, .o, .p, .q, .r, .s {
        stroke: #fff;
        stroke-miterlimit: 10;
      }

      .h {
        fill: #e52421;
      }

      .i {
        fill: #404040;
      }

      .j {
        fill: #078136;
      }

      .k {
        fill: #f3e600;
      }

      .l {
        fill: #2a4b9b;
      }

      .m {
        fill: none;
      }

      .n {
        fill: #737373;
      }

      .o {
        fill: #f6a316;
      }

      .p {
        fill: #262626;
      }

      .p, .s {
        stroke-linecap: round;
      }

      .q {
        fill: #7b217e;
      }

      .r {
        fill: #c688bb;
      }

      .s {
        fill: #5a5a5a;
      }
    </style>
  </defs>
  <g id="c" data-name="Livello 1">
    <path class="g" d="M417.96,38.66v134.4c-1.46,3.01-2.85,6.01-4.25,9.03-4.61,9.94-6.92,14.92-9.15,21.78-6.15,18.97-6.01,34.59-5.49,34.67.83,0,2.19-40.04,18.89-62.59v83.08c-5.52,14.26-8.22,28.96-10.47,43.72-2.88,18.91-16.35,82.18-8.24,163.86,1.24,12.47,2.75,23.21,5.84,33.12h-77.9c-.35.94-.66,1.8-.93,2.59.02-.8.04-1.66.04-2.59h-83.25c6.44-10.29,12.34-22.24,16.72-35.96,6.57-20.59,6.83-36.08,7.32-65.74.06-3.13.06-5.85.01-8.42h0c-.02-1.54-.07-3-.14-4.48-.12-2.61-.3-5.22-.54-8.13-.01-.02-.01-.03-.01-.05-1.07-12.65-3.39-31.08-7.37-79.88-1.57-19.22-1.74-22.84-3.66-29.93-1.43-5.28-11.55-40.72-42.28-60.05-17.55-11.03-26.22-7.01-56.2-14.58-30.81-7.78-48.68-13.74-67.36-28.23-2.76-2.14-11.11-10.72-27.82-27.89,0,0-1.74-1.79-3.5-3.6C40.8,114.81,7.29,77.88.69,70.6c1.7-1.75,4.21-3.96,7.62-5.93,3.75-2.16,7.24-3.24,9.74-3.81,10.78,18.21,27.49,40.5,52.72,59.77,21.35,16.3,39.68,23.53,45.3,25.57,10.6,3.84,24.79,8.97,43.66,8.95,17.36-.01,19.59-4.37,37.48-2.98,15.35,1.19,27.28,5.45,33.36,7.67,11.23,4.1,16.85,6.15,22.65,11.08,8.72,7.42,10.05,14.36,18.94,31.97,8.32,16.45,18.67,33.19,19.36,32.82,1.11-.61-13.49-51.19-51.89-86.53-19.8-18.22-34.6-26.85-34.6-26.85-18.05-10.53-25.79-10.32-36.65-21.73-9.05-9.51-6.88-13.02-18.95-27.71-3.53-4.3-8.32-10.13-15.03-15.95,8.04-5.26,16.29-10.19,24.73-14.77,3.22,7.64,8.82,18.27,18.31,28.59,15.3,16.64,38.94,30.56,44.48,25.15,4.47-4.37-3.3-20.92-10.3-35.8-2.4-5.12-3.65-7.14-11.53-21.31,0,0-3.21-5.78-6.9-12.51.3-.12.59-.23.88-.34,5.5,8.89,11.59,17.06,15.08,15.83.98-.35,1.72-1.42,2.24-3,.93,2.96,1.96,5.97,3.12,8.97,3.83,9.97,8.18,17.44,16.88,32.39,9.02,15.5,13.53,23.26,17.3,26.85,13.91,13.28,23.4,7.71,46.54,22.16,3.99,2.5,7.84,5.24,11.2,7.79,4.81,5.56,10.38,8.61,11.31,9.17.07.04.11.08.13.08-.01-.02-.05-.04-.13-.08-.82-.65-5.27-4.59-11.31-9.17-2.59-3-4.96-6.73-6.26-11.2-2.43-8.38,1.48-10.54,0-20.03-1.42-9.1-7.55-16.42-19.77-30.69-10.59-12.37-14.35-14.23-18.12-23.01-2.69-6.28-1.64-7.35-4.53-17.48-1.51-5.3-4.21-14.53-9.64-24.52,2.98-.65,5.98-1.27,8.98-1.86.04.12.08.23.11.32.06.26.1.43.14.48,0-.04-.05-.21-.14-.48-.02-.09-.04-.21-.07-.33,1.32-.26,2.65-.52,3.97-.76,4.13-.77,8.28-1.48,12.44-2.13.95,4.35,2.2,8.74,3.57,13.51,1.26,4.4,8.12,27.58,13.18,26.86,2.77-.4,2.41-7.62,7.82-22.59,3.86-10.68,4.79-9.07,7.83-17.9.23-.67.63-1.87,1.11-3.52,5.84-.41,11.68-.74,17.51-1.01-5.09,3.12-10.17,4.03-14.92,11.34-9.52,14.67-4.36,34.51-2.47,41.77,2.81,10.82,7.58,18.5,12.77,26.85,9.27,14.95,11.97,13.16,16.88,23.02,9.47,18.99,6.2,39.11,5.36,43.9-2.22,12.63-7.18,21.23-6.18,21.74,1.38.7,7.43-17.23,24.3-31.97,4.4-3.85,11.74-9.4,15.65-12.36,9.27-7.02,12.36-8.82,16.47-13.64,1.35-1.58,2.72-3.37,9.06-14.92,8.03-14.6,12.05-21.98,12.36-25.99.48-6.22-1.74-11.82-6.18-23.02-2.22-5.62-4.21-10.52-7.5-15.18,1.69-1.06,3.25-2.33,4.63-3.83,1.7-1.85,3.25-3.9,4.54-6.11.76,3.59,1.51,6.04,2.45,7.65,2.01,3.45,4.29,6.03,6.17,8.82Z"/>
    <g id="d" data-name="center">
      <path class="p" d="M368.54,419.08c-2.92,8.81-6.23,15.51-8.34,19.76-2.87,5.77-6.45,11.77-13.5,23.52-8.23,13.7-9.56,15.42-12.48,21.21-3.21,6.35-5.48,11.96-7.03,16.16-.35.94-.66,1.8-.93,2.59.02-.8.04-1.66.04-2.59,0-4.18-.31-9.62-1.53-15.8-2.21-11.24-5.7-16.31-12.72-32.13-4.08-9.21-8.46-19.08-12.43-32.1-2.72-8.94-5.45-18.1-6.28-30.59-.44-6.62-.9-13.65.83-22.18.17-.85.36-1.72.58-2.6,2.27-9.21,5.97-15.51,11.35-24.48,7.29-12.14,9.16-11.93,14.47-21.85,5.27-9.87,7.8-18.55,9.22-23.36,2.25-7.67,3.54-14.44,4.3-19.79.26,2.11.67,5.05,1.37,8.53,1.06,5.28,3.34,14.5,9.45,27.48,5.09,10.82,5.77,9.22,12.15,21.97,1.2,2.4,4.53,9.27,8.27,18.6,0,.02.01.04.02.06.47,1.16.94,2.37,1.42,3.61,2.47,6.43,4.28,11.13,5.56,15.08.02.04.03.07.04.11,1.07,3.33,1.76,6.13,2.16,9,2.13,15.38-2.16,28.3-5.99,39.79Z"/>
      <path class="i" d="M342.72,455.55c6.95-14.47,10.02-19.34,13.71-30.32,1.07-3.19,4.29-13.19,5.85-26.64,1.51-13.01,2.97-25.68-1.52-39.78-3.58-11.23-7.12-11.86-15.8-30.49-4.47-9.59-7.39-17.75-9.16-23.1-.23,2.91-.81,7.25-2.49,12.21-2.61,7.73-5.72,10.58-12.96,22.17-4.71,7.55-7.25,11.61-9.82,17.58-1.75,4.08-4.86,11.46-5.96,20.55-1.23,10.26.62,17.82,4.32,31.5,2.88,10.64,3.83,11.24,10.05,30.27,5.24,16.01,7.08,22.87,8.36,31.35,1.03,6.86,1.35,12.58,1.45,16.44,5.48-13.65,10.46-24.46,13.95-31.74Z"/>
      <path class="s" d="M334.93,350.85c-1.76,1.85-4.08,4.53-6.45,8.01-2.18,3.21-6.34,9.44-8.52,18.24-2.29,9.24-1.27,16.74-.57,21.55,1.49,10.22,5.1,17.66,8.25,24.14,2.41,4.95,4.77,8.88,6.5,11.56,5.85-10.97,10.38-19.47,14.09-25.65,1.93-3.22,5.75-9.33,6-17.71,0-.14,0-.25,0-.34.15-7.83-1.92-13.57-3.53-17.92-3.57-9.64-9.46-16.91-12.27-20.19"/>
      <path class="n" d="M332.79,404c3.64.24,6.24-2.22,7.49-3.41.54-.51,4.04-3.93,4.16-9.09.06-2.64-.78-4.75-1.3-6.05-.58-1.46-.94-2.4-1.81-3.26-2.5-2.47-6.3-2.05-7.12-1.96-3.91.43-7.36,3.09-9.13,6.44-2.44,4.64-1.67,10.62,1.68,14.19.6.64,2.73,2.95,6.03,3.16Z"/>
      <path class="q" d="M329.05,459.2c.05-.87,1.07-1.85,2.57-1.82,1.6.04,2.94,1.22,2.69,2.33-.2.88-1.37,1.5-2.63,1.45-1.46-.06-2.29-.99-2.34-1.05-.14-.2-.3-.52-.28-.91Z"/>
      <path class="o" d="M332.03,337.33c.38-1.3,1.52-2,2.09-2.35.5-.31,2.52-1.55,4.3-.64,1.52.78,1.85,2.62,2,3.48.15.86.44,2.48-.6,3.8-1.02,1.29-2.79,1.62-4.12,1.34-2.52-.53-4.32-3.45-3.68-5.63Z"/>
      <path class="h" d="M333.41,324.38c.36-1.37,1.83-2.89,3.13-2.67.92.15,1.46,1.13,1.58,1.33.32.57.29,1.06.26,1.67-.03.68-.06,1.22-.49,1.77-.2.26-.77.99-1.85,1.06-1.21.08-2.06-.73-2.15-.82-.87-.85-.58-1.93-.48-2.35Z"/>
      <path class="j" d="M329.59,393.01c-.19-.77-.57-2.31.34-3.63.94-1.36,2.75-1.77,4.15-1.48,2.07.44,3.87,2.58,3.46,4.69-.33,1.71-1.94,2.57-2.21,2.71-.25.35-1.2,1.55-2.5,1.54-1.88-.02-2.94-2.59-3.25-3.83Z"/>
      <path class="r" d="M328.29,448.16c-.06-.25-.18-.95.15-1.72.44-1.03,1.35-1.43,1.54-1.51.22-.24.85-.85,1.77-.93,1.4-.12,2.35,1.08,2.7,1.52.29.36,1.44,1.79.94,3.21-.54,1.52-2.65,2.17-4.27,1.8-1.86-.42-2.71-2.11-2.84-2.37Z"/>
      <path class="k" d="M339.85,365.07c-.16,1-.91,1.58-1.09,1.71-.23.17-1.31.97-2.35.48-.86-.41-1.15-1.44-1.08-2.19.08-.78.57-1.27,1.02-1.71.52-.52,1.24-1.24,2.04-1.09.99.18,1.65,1.63,1.46,2.81Z"/>
      <path class="l" d="M336.62,416.48s-.02.06-.04.11c-.31.96-1.18,1.91-2.31,2.23-.28.08-.98.26-1.74-.04-.99-.39-1.76-1.48-1.64-2.5.09-.69.56-1.13,1.26-1.78.53-.49.96-.9,1.65-1.05.14-.03,1.76-.35,2.55.68.68.88.31,2.18.26,2.35Z"/>
    </g>
    <g id="e" data-name="traces">
      <path class="m" d="M376.61,344.06c-6.05-6.65-18.79-22.64-20.32-45.27-.18-2.71-.7-12.95,2.86-25.31,2.98-10.37,6.7-14.76,18.53-35.29,8.02-13.91,12.03-20.86,13.19-23.88,7.89-20.51,1.72-29.06,8.56-47.05,3.84-10.13,9.09-16.08,18.17-26.38.12-.13.23-.26.36-.4"/>
      <path class="m" d="M374.47,326.95c-2.89-7.65-6.19-20.22-3.56-34.93,2.37-13.25,8.51-22.42,13.54-29.95,6.4-9.55,8.19-9.01,19.61-22.45,6.87-8.08,10.73-13.59,13.9-18.22"/>
      <path class="m" d="M282.5,355.11c9.66-6.9,26.34-20.89,37.07-44.2,6.46-14.04,8.21-25.91,9.62-36,3.91-27.99-.54-49.6-4.99-70.22-5.37-24.93-9.16-41.47-23.17-57.39-6.44-7.31-13.04-12.23-17.82-15.33"/>
      <path class="m" d="M338.11,285.6c-.15-40.77-.7-71.09-2.14-91.25-.28-3.87-.88-11.53,3.21-19.25,6.32-11.91,16.98-11.05,30.3-20.32,8.65-6.02,17.29-21.56,34.22-52.4,6.42-11.7,11.53-21.47,14.97-28.16"/>
      <g id="f" data-name="traces">
        <path class="m" d="M387.71,499.73c-1.12-3.6-2.05-7.05-2.9-10.23-.27-1-.81-3.56-1.7-7.93,0-.03-.02-.07-.03-.1-.64-3.12-1.45-7.17-2.46-12.23-.01-.02-.01-.03-.01-.05-.36-1.78-.74-3.69-1.15-5.72-2.76-13.81-4.15-20.74-4.27-22.45-.8-10.96,1.29-13.74,3.92-37.08,1.36-12.07,2.04-18.11,1.78-21.74-.48-6.78-1.7-9.19-11.05-36.36-6.09-17.68-6.23-18.59-8.2-22.81-3.43-7.37-5.7-10.47-9.27-19.61-3.55-9.09-4.33-13.8-4.63-16.04,0,0-1.03-7.59,0-14.97,2.15-15.41,16.22-28.77,22.1-35.29,18.81-20.83,6.12-30.33,25.66-69.51,6.97-13.97,14.99-25.6,22.46-34.95"/>
        <path class="m" d="M390.27,499.73c-2.59-5.08-5.17-11.18-7.16-18.16,0-.03-.02-.07-.03-.1-1.26-4.48-2.05-8.47-2.46-12.23-.01-.02-.01-.03-.01-.05-1.9-16.96,3.48-29.56,4.2-63.11.53-24.49-2.27-20.94-2.14-50.26.12-25.89.21-44.35,6.06-67.72,3.74-14.94,9.67-37.65,27.45-60.96.59-.78,1.19-1.56,1.78-2.34"/>
        <path class="m" d="M370.55,230.35c-19.07,12.4-24.62,26.72-26.38,32.44-5.22,16.97-.02,32.78,6.78,53.47,4.31,13.13,5.87,12.78,14.35,35.09.01.05.03.09.05.14,2.85,7.51,5.17,13.62,6.98,18.69.02.04.04.08.04.12,3,8.38,4.61,13.92,4.95,18.32.38,4.88-.07,10.1-1.29,16.5-1.7,8.9-4.9,20.1-9.4,35.9-2.76,9.67-4.19,14.72-6.77,22.1-6.43,18.37-10.82,25.14-13.33,36.61"/>
        <path class="m" d="M363.11,499.73c-1.13-3.53-1.91-7.47-2.18-12.73-.52-10.12,1.58-11.76,8.2-44.2,3.28-16.11,5.54-29.27,6.9-37.68"/>
        <path class="m" d="M97.5,153.71c2.03,2.4,5.4,5.76,10.34,8.2,4.84,2.38,9.65,3.11,14.52,2.94,8.49-.29,17.15-3.32,26.47-5.08,19.26-3.63,38.84-1.39,52.05,3.21,4.35,1.51,13.82,5.31,47.76,40.99,22.14,23.27,33.2,34.91,39.21,45.27,2.35,4.05,6.77,11.67,10.77,21.8,3.96,10,7.5,22.44,8.24,36.29.28,5.17.16,10.54-.47,16.05-.56,4.9-1.39,8.7-2.49,12.08-3.32,10.2-9.1,16.58-17.47,37.83-2.75,6.98-4.78,13.04-6.32,18.52-1.83,6.45-2.98,12.11-3.85,17.55-.6,3.76-1.06,7.41-1.51,11.14-1.75,14.57-3.33,30.4-12.21,58.66-2.43,7.73-4.82,14.54-7.2,20.57"/>
        <path class="m" d="M221.55,112c5.97,1.65,14.6,4.65,23.88,10.34,20.65,12.67,30.58,30.18,38.5,44.56,7.24,13.14,18.53,34.19,19.61,63.81.23,6.37.3,21.85-4.92,40.33-1.61,5.7-3.72,11.68-6.49,17.77-7.21,15.88-12.37,18.19-17.15,27.83-1.07,2.16-2.12,4.68-3.17,7.81-4.31,12.88-4.94,24.99-4.31,36.28.35,6.35,1.1,12.44,1.82,18.26,1.99,16.11,4.69,20.88,6.94,30.37.86,3.62,1.66,7.93,2.33,13.83.28,2.52.6,5.3.87,8.33,1,11.24,1.4,25.78-2.66,42.29-2.39,9.76-5.87,18.27-9.94,25.92"/>
        <path class="m" d="M87.88,144.09c7.41,6.67,18.88,15.33,34.48,20.76.97.34,1.95.67,2.95.98,28.3,8.82,38.84-2.8,64.52,5.7,24.6,8.15,39.77,27.05,50.97,41,14.2,17.68,21.2,34.48,24.24,42.77,7.21,19.67,8.36,35.69,9.62,55.25.14,2.15.24,4.18.32,6.09.37,8.35.24,14.62-.01,20.02-.53,11.63-1.63,19.16.41,34.49,1.27,9.63,2.84,15.25,4.73,20.66,2.41,6.94,5.34,13.55,8.81,27.82,4.19,17.23,6.12,33.03,6.86,47.28.63,12.06.41,23.03.02,32.82"/>
        <path class="m" d="M252.92,114.5c22.22,17.59,35.1,36.24,42.06,48.12,17.5,29.89,20.32,55.9,23.89,88.76,3.21,29.64-.02,39.18-3.57,45.63-2.6,4.72-5.43,7.86-8.44,10.32-7.32,5.97-15.74,7.9-24.71,18.55-2.86,3.39-5.23,7.01-7.18,10.78-4.01,7.7-6.29,16-7.47,24.07-.82,5.61-1.11,11.11-1.09,16.22,0,.02,0,.03.01.05.02,4.58.3,8.85.68,12.6h0c.71,6.98,1.78,12.19,2.22,14.34.92,4.52,2.68,9.78,5.43,16.56,1.33,3.29,2.9,6.93,4.71,11.02,3.49,7.85,7.91,17.34,13.38,29.1.98,2.11,1.96,4.19,2.94,6.29,4.55,9.76,8.94,19.71,12.21,32.82"/>
        <path class="m" d="M336.04,499.73c3.06-9.45,6.43-16.81,8.85-22,6.17-13.26,12.87-23.66,18.18-31.01"/>
        <path class="m" d="M294.17,366.93c-1.68,5.4-3.65,13.36-4.18,23.11-.83,15.48,2.41,27.18,6.06,39.93,12.76,44.54,12.62,42.21,14.62,50.26,1.68,6.79,2.93,13.1,3.89,19.5"/>
      </g>
    </g>
  </g>
</svg>