<?xml version="1.0" encoding="UTF-8"?>
<svg id="b" data-name="Livello 2" xmlns="http://www.w3.org/2000/svg" viewBox="0 0 5391.89 2309.08">
  <defs>
    <style>
      .d {
        fill: #ffed00;
      }

      .e {
        fill: #009fe3;
      }

      .f {
        fill: #009640;
      }

      .g {
        fill: #d60b52;
      }

      .h {
        fill: #312783;
      }
    </style>
  </defs>
  <g id="c" data-name="Livello 1">
    <path class="h" d="M1737.5,2214.06c-10.5-2.5-32-50-134.5-58s-142,20-152,17.5-20-41-100.5-65-162.5,5.5-174,0-5.5-59-110.5-100-166.5,11-181,6.5-40.5-40.5-151.5-40-134.5,53-151.5,54-30-29.5-128-20.5c-64.41,5.91-101.17,34.07-118.81,52.68-9.19,9.71-13.19,16.82-13.19,16.82l-88,225.5h1618.78v-117.02c-61.19,5.21-106.92,29.51-115.28,27.52ZM4408.13,2160.33s40.27-77.86-52.89-120.79c-93.17-42.92-146.42,13.01-146.42,13.01,0,0-5.54-62.25-95.87-73.3-90.34-11.05-137.77,48.38-137.77,48.38,0,0-4.63-52.3-92.06-70.13-87.41-17.84-162.6,40.04-162.6,40.04,0,0-31.47-54.93-142.04-45.1-15.05,1.34-28.54,3.47-40.62,6.17v319.02h907.74s57.5,19.5,57.5-51v-.67c-.6-69.8-94.97-65.63-94.97-65.63Z"/>
    <path class="f" d="M5321,2308.06H32s-72-149.5,0-177.5,93,28.5,104,28.5c10.02,0,37.07-81.79,199.19-97.82,15.79-1.57,32.85-2.5,51.31-2.68,208-2,248.5,99,255.5,100.5s97-68,269-34.5,194,134,203,138,88.5-24,256.5-12,186,47.5,192.5,47.5,50.5-66,204.5-65.5c33.61.11,61.75,2.6,85.28,6.43v65.17h1685.08v-144.77c181.19,25.19,186.68,85.66,196.64,84.17,10-1.5,49-63.5,226-71s207,63,216,63,71.5-55,243-27.5c33.68,5.4,61.13,11.53,83.6,17.9,91.98,26.05,100.65,56,111.9,55.6,14-.5-8.5-102,199-139,207.5-37,247.5,30.5,262,30s85.5-103.5,245-58.5,0,194,0,194Z"/>
    <path class="e" d="M3849.47,1904.89c2.31-6.29,3.58-13.09,3.58-20.18,0-32.28-26.17-58.45-58.45-58.45-20.18,0-37.97,10.23-48.47,25.78-10.77-4.6-22.63-7.14-35.08-7.14-37.51,0-69.62,23.08-82.93,55.82-10.39-7.4-23.09-11.77-36.81-11.77-11.17,0-21.65,2.89-30.77,7.95-22.64-22.37-53.76-36.18-88.1-36.18-28.91,0-55.53,9.79-76.74,26.23-7.97-60.29-59.56-106.82-122.03-106.82s-109.54,42.56-120.74,99.01c-7.29-1.71-14.89-2.61-22.7-2.61-45.79,0-84.34,30.97-95.86,73.1-1.17-.05-2.35-.09-3.53-.09-27.45,0-51.53,14.42-65.11,36.09-3.83-.44-7.73-.68-11.69-.68-56.13,0-101.64,45.51-101.64,101.65s45.51,101.65,101.64,101.65c25.32,0,48.48-9.26,66.27-24.58,18.54,18.84,44.13,30.72,72.49,31.36-7.86,16.39-12.26,34.75-12.26,54.14,0,21.29,5.31,41.34,14.67,58.9h221.37c2.49-4.67,4.7-9.52,6.59-14.52,13.03,3.5,26.72,5.38,40.85,5.38,86.7,0,156.99-70.29,156.99-156.99,0-13.24-1.65-26.09-4.74-38.38,32.68-12.19,58.9-37.63,72.14-69.78,8.41,36.19,40.83,63.16,79.58,63.16,33.07,0,61.53-19.65,74.39-47.91,16.95,28.67,48.18,47.91,83.91,47.91,53.8,0,97.41-43.61,97.41-97.41,0-45.81-31.62-84.22-74.23-94.63Z"/>
    <path class="g" d="M3016.75,2092.28c-6.83-19.64-25.5-33.75-47.47-33.75-5.26,0-10.34.81-15.11,2.32-13.03-14.69-32.04-23.95-53.22-23.95-15.9,0-30.58,5.22-42.43,14.03-13.42-24.51-39.46-41.14-69.38-41.14-36.7,0-67.55,25.01-76.46,58.91-10.95-6.45-23.71-10.17-37.35-10.17-40.69,0-73.67,32.99-73.67,73.68,0,2.4.12,4.77.35,7.11-.12,0-.24,0-.35,0-29.66,0-55.61,15.88-69.81,39.6-28.52-20.87-67.23-21.47-96.34-1.8-5.96-30.39-32.72-53.31-64.85-53.31-29.47,0-54.43,19.29-62.96,45.93-14.55-8.34-31.41-13.12-49.38-13.12-19.71,0-38.08,5.74-53.54,15.64-9.68-32.55-39.81-56.29-75.5-56.29-9.39,0-18.4,1.65-26.75,4.67-9.01-19.74-28.91-33.47-52.03-33.47-31.58,0-57.18,25.6-57.18,57.18s25.6,57.18,57.18,57.18c.1,0,.21,0,.31,0,3.44,40.34,37.24,72.01,78.47,72.01,10.74,0,20.98-2.16,30.31-6.05,1.69,14.76,6.61,28.54,14.06,40.6h169.33c9.34-15.14,14.72-32.97,14.72-52.06,0-.43-.01-.85-.01-1.28,4.19.84,8.53,1.28,12.97,1.28,9.99,0,19.45-2.22,27.94-6.19.76,20.4,8.91,40.57,24.48,56.14.72.72,1.45,1.43,2.2,2.11h114.21c.75-.68,1.48-1.39,2.2-2.11,5.58-5.59,10.19-11.77,13.87-18.34,13.1,9.03,28.98,14.33,46.1,14.33,24.6,0,46.63-10.94,61.54-28.2,12.09,5.99,25.7,9.37,40.1,9.37,34.62,0,64.68-19.47,79.85-48.04,12.77,10.26,28.99,16.41,46.65,16.41,40.44,0,73.33-32.2,74.48-72.36,13.75-.64,26.48-5.18,37.1-12.53,7.91,23.1,29.79,39.72,55.57,39.72,32.44,0,58.73-26.3,58.73-58.73,0-25.49-16.24-47.17-38.93-55.3Z"/>
    <path class="d" d="M4114.79,2222.3c0-41.25-29.06-75.7-67.82-84.04-8.31-76.86-73.39-136.69-152.45-136.69-6.73,0-13.36.44-19.87,1.28-17.16-35.33-53.38-59.69-95.3-59.69-54.75,0-99.8,41.56-105.31,94.86-11.33,3.83-21.96,9.19-31.64,15.84-11.86-53.63-59.68-93.75-116.88-93.75-66.12,0-119.72,53.6-119.72,119.71,0,19.57,4.7,38.04,13.02,54.36-4.45,8.07-7.88,16.79-10.09,25.98-24.59,5.57-46.15,19.08-61.87,37.69-25.13-25.04-59.78-40.51-98.05-40.51s-73.77,15.86-98.96,41.44c-23.66-25.49-57.45-41.44-94.96-41.44-9.22,0-18.22.97-26.89,2.8-17.47-39.33-56.86-66.76-102.66-66.76-62.01,0-112.27,50.26-112.27,112.27,0,4.88.31,9.68.91,14.39-10.03-2.85-20.62-4.37-31.56-4.37-28.29,0-54.2,10.19-74.25,27.11-13.31-7.4-28.62-11.61-44.93-11.61-27.85,0-52.83,12.29-69.81,31.75-13.47-27.96-42.08-47.25-75.19-47.25-28.91,0-54.38,14.7-69.35,37.04-6.19-29.09-32.02-50.91-62.95-50.91-26.99,0-50.08,16.61-59.65,40.16-4.96-.99-10.09-1.52-15.34-1.52-29.15,0-54.54,16.11-67.76,39.9-10.45-9.76-23.21-17.07-37.38-21.02-5.11-47.58-45.38-84.63-94.32-84.63-25.04,0-47.82,9.71-64.77,25.57-15.55-35.86-51.25-60.94-92.82-60.94-.57,0-1.14.01-1.71.02-15.94-55.61-67.16-96.31-127.89-96.31-73.47,0-133.03,59.56-133.03,133.03,0,58.99,38.4,109,91.56,126.43v4.91h20.27c6.9,1.11,13.98,1.69,21.19,1.69s14.29-.58,21.19-1.69h32.65c.2.22.39.45.59.67h556.07c.15-.17.3-.34.44-.51.02.17.03.34.06.51h1451.1c2.69.14,5.39.21,8.12.21s5.43-.07,8.12-.21h120.41c1.91.13,3.83.21,5.77.21s3.86-.09,5.77-.21h13.29v-1.93c38.31-8.67,66.92-42.9,66.92-83.83Z"/>
    <rect class="e" x="2665.47" width="415.06" height="2295.53"/>
  </g>
</svg>