<?xml version="1.0" encoding="UTF-8"?>
<svg id="b" data-name="Livello 2" xmlns="http://www.w3.org/2000/svg" viewBox="0 0 955.55 1870.04">
  <defs>
    <style>
      .d {
        fill: #fff;
        stroke: #35ffda;
        stroke-miterlimit: 10;
      }
    </style>
  </defs>
  <g id="c" data-name="Livello 1">
    <path class="d" d="M143.37,1751.2c.04.14,5.08-3.86,10.16-12.52,2-3.41,3.41-6.53,4.44-8.82,3.53-7.85,5.61-14.56,6.47-17.26,1.69-5.31,6.74-21.78,12.99-32.34,4.11-6.96,8.33-10.66,16.75-18.08,14.72-12.96,17.44-10.07,23.53-20.17,4.19-6.94,3.52-9.34,10.35-21.91,6.56-12.08,7.58-10.62,11.11-18.08,2.9-6.13,5.3-18.08,9.98-41.73,3.81-19.23,5.71-28.84,6.02-33.39.61-8.77.36-16.19,3.01-26.08,1.68-6.26,3.79-10.8,3.39-11.48-.54-.89-4.02,7.43-9.6,12.17-5.47,4.65-10.5,3.75-13.36,3.48-11.04-1.05-20.85,4.23-36.89,12.87-14.09,7.59-21.23,11.42-28.24,23.3-2.31,3.92-1.69,3.77-14.49,43.82-15.95,49.91-9.7,27.61-19.2,57.38-1.17,3.68-2.62,8.26-5.08,13.91-7.04,16.17-16.1,26.71-16.94,25.04-.64-1.28,3.38-10.07,5.08-13.56,5.76-11.82,9.1-12.43,13.55-21.91,1.68-3.57.93-2.9,6.4-20.87,7.67-25.21,8.24-23.56,9.22-30.6,1.31-9.39.69-15.13,3.58-25.04,1.31-4.49,3.08-8.96,3.01-9.04-.11-.14-3.07,13.19-9.79,19.48-2.79,2.61-3.5,1.45-11.48,4.17-4.57,1.56-9.49,3.24-14.31,6.61-3.85,2.69-4.52,4.28-13.55,14.61-12.55,14.34-12.78,13.01-17.32,19.48-8.48,12.1-12.65,23.88-12.8,23.65-.19-.3,6.5-20.21,18.82-38.25,7.49-10.96,14.34-17.27,20.14-22.61,11.04-10.15,14.94-10.47,24.66-21.56,1.73-1.98,6.46-7.5,12.05-16,9.11-13.85,10.25-20,16.94-30.95,9.41-15.4,18.94-22.52,23.34-25.74,10.56-7.7,12.07-3.94,27.48-12.17,6.1-3.26,15.19-8.21,25.79-18.43,5.29-5.11,15.47-15.88,26.16-34.08,10.92-18.59,11.23-25.95,21.46-41.73,7.29-11.25,10.61-12.84,19.95-23.65,18.45-21.35,30.79-43.97,37.27-55.99,7.13-13.21,17.4-32.48,27.29-61.9,5.56-16.53,9.63-32.17,13.74-47.99,4.75-18.26,7.12-27.39,9.41-39.99,6.33-34.82,6.18-63.51,5.65-63.64-.93-.23-2.5,88.32-24.85,125.89-10.74,18.05-23.15,22.95-23.15,22.95-6.23,2.46-11.03,1.72-13.93,1.39-21.9-2.52-26.14,7.5-60.61,10.78-22.82,2.17-22.75-2.05-33.32,2.78-5.03,2.3-19.87,9.39-33.88,30.6-5.36,8.11-5,9.82-16,27.82-7.95,13.01-11.92,19.51-17.88,26.78-11.05,13.48-12.79,9.92-21.65,21.56-9.13,12.01-14.71,25.55-18.45,34.78-7.09,17.5-5.28,19.43-13.74,41.04-7.57,19.32-9.54,19.13-11.48,29.91-2.39,13.28-.69,20.81-4.52,34.78-2.62,9.55-6.37,16.83-7.15,16-1.79-1.9,13.05-45.25,8.28-52.86-2.78-4.44-11.16,5.05-14.87,10.09-7.92,10.73-9.15,20.87-16.56,36.52-3.12,6.6-8,15.55-15.25,24.34,5.71-16.78,11.12-30.28,15.44-40.34,8.77-20.44,13.29-30.8,20.14-37.21,4.58-4.29,6.81-4.25,10.73-10.09,4.74-7.04,6.31-14.26,10.16-28.17,8.97-32.34,12.82-37.89,11.11-42.78-.96-2.74-3.54-4.93-21.27,1.74-21.97,8.27-32.95,12.4-40.47,25.04-6.63,11.14-4.94,16.04-15.06,39.65-6.76,15.77-13.3,27.08-17.69,34.08,16.1-34.07,17.53-43.1,16.38-45.56-2.52-5.38-20.16,14.8-23.34,18.43-7.59,8.69-13.36,17.25-17.13,23.3,2.9-8.24,7.92-20.2,16-29.56,8.83-10.23,13.36-8.12,21.65-18.78,8.87-11.4,7-18.06,16.19-33.73,10.52-17.93,22.11-24.79,28.99-28.87,13.42-7.94,14.46-2.26,27.86-8.69,19.15-9.21,32.26-28.15,38.4-37.21,11.93-17.6,10.73-23.2,24.47-48.69,8.68-16.11,21.68-40.21,40.66-57.38,13.2-11.94,26.5-16.54,53.08-25.74,24.05-8.32,23.83-4.87,33.69-10.43,28.97-16.35,46.74-55.05,52.14-67.12,18.94-42.3,24.27-88.46,28.24-134.94,2.96-34.72,16.81-150.87,8.47-300.82-2.24-40.19-5.31-70.62-16.56-100.16-9.91-26-22.08-40.65-42.35-65.03-20.07-24.15-30.11-36.22-44.61-41.04-6.86-2.28-33.06-11.56-53.08,15.65-8.28,11.25-13.09,25.44-19.2,43.47-9.33,27.53-9.31,40.63-19.2,60.51-8.75,17.59-18.3,26.51-18.64,25.74-.34-.79,8.54-11.8,17.32-32.69,4.58-10.91,14.68-37.7,11.48-44.17-1.86-3.77-7.79.3-30.31,22.61-18.84,18.66-44.27,45.11-44.24,45.21.04.12,39.54-38.49,37.46-47.99-1.67-7.64-29.81,5.47-29.74,6.26.05.58,15.82-2.7,32.19-10.43,11.58-5.47,20.96-10.04,31.25-21.91,8.07-9.31,24.94-32.63,22.4-44.51-1.88-8.81-20.29-5.53-57.04,1.39-17.09,3.22-30.31,6.56-45.36,18.08-8.66,6.63-14.36,11-20.14,21.56-5.25,9.61-7.12,18.04-15.44,32-5.11,8.58-9.56,14.05-9.79,13.56-.51-1.12,21.89-31.84,19.58-39.65-2.8-9.48-40.79,19.08-40.85,18.78-.03-.17,12.08-10.51,39.15-28.17,12.91-8.42,18.03-11.2,18.07-16,.08-9.38-19.36-17.88-32-21.56-35.45-10.33-67.92,2.58-67.76,5.22.2,3.42,55.94,1.1,56.85-12.87.89-13.72-51.29-35.96-51.2-36.52.06-.37,23.19,7.25,54.4,28.87,13.17,9.12,20.66,15.8,34.07,19.13,12.41,3.08,22.24,1.38,29.74,0,12.48-2.29,29.5-5.42,30.12-14.26.54-7.72-11.93-13.13-38.21-36.52-22.28-19.82-21.22-22.96-38.78-37.21-22.92-18.61-34.38-27.91-46.31-27.13-13.29.88-22.06,9.68-38.02,2.09-7.61-3.62-14.01-9.61-13.74-11.48.35-2.42,11.92,2.08,32.19,3.83,13.12,1.13,13.81-.27,13.93-1.04,1.22-7.94-44.52-38.48-44.42-38.95.08-.37,28.37,19.8,47.06,32.69,12.11,8.36,9.29,6.14,16.38,11.13,7.59,5.35,10.88,7.92,16.38,10.78,3.55,1.84,15.28,7.93,16.19,4.17.63-2.61-4.28-8.48-8.85-14.95-20-28.33-18.87-47.48-33.88-62.6-9-9.07-9.03-1.81-22.78-11.82-20.08-14.63-33.19-39.73-32.56-41.38.42-1.11,7.18,8.01,23.72,24,19.62,18.96,31.88,30.81,34.26,25.74,4.46-9.53-28.41-73.19-27.86-74.08.37-.59,15.73,26.33,30.68,68.51,5.9,16.64,5.3,17.52,9.6,28.17,8.59,21.28,18.37,36.09,32.38,53.21,12.2,14.91,46.18,56.42,50.45,46.95,4.74-10.52-28.92-80.14-30.31-78.25-1,1.36,11.15,45.02,33.88,75.47,11.47,15.36,21.83,22.27,25.79,24.69,5.72,3.51,20.57,11.46,39.53,7.65,11.7-2.35,11.11-6.39,25.41-11.48,26.96-9.58,43.4-.3,44.8-8.69,1.34-8.06-12.8-22.78-18.64-28.87-22.51-23.44-29.41-17.23-49.88-35.12-18.83-16.46-18.03-26.11-44.8-50.43-11.07-10.05-18.54-15.07-26.54-18.43-12.99-5.47-16.35-1.95-28.05-5.56-23.1-7.13-39.42-29.89-39.15-30.95.2-.78,9.75,9.01,26.16,17.74,10.68,5.67,34.29,16.22,35.95,8.69,1.38-6.23-14.13-16.46-39.53-54.95-12.33-18.68-16.24-27.73-26.35-34.08-11.24-7.06-16.45-2.18-29.18-3.83-29.39-3.79-50.29-36.07-50.26-36.17.02-.07,12.01,14.65,31.25,25.04,18.27,9.87,44.38,16.55,46.49,5.91,1.67-8.41-12.2-24.89-32.19-48.34C27.41,114.06.52,90.5.5,90.59c-.02.06,10.32,9.37,57.04,51.12C27.41,67.3,21.38,50.81,21.77,50.25c.64-.91,20.9,37.01,42.35,87.99,5.72,13.59,15.68,37.98,33.13,59.47,3.93,4.84,16.37,20.15,19.2,14.95,3.06-5.6-6.62-32.24-13.18-50.08-20.64-56.17-39.71-87.61-39.15-88.68.56-1.07,22.45,24.79,39.53,74.08,9.38,27.07,8.41,35.54,18.26,60.86,3.79,9.74,12.31,30.03,33.13,59.12,5.39,7.52,57.69,80.6,66.82,63.64,6.59-12.23-11.46-67.25-26.73-99.12-10.58-22.08-20.58-34.59-23.91-38.6-18.91-22.79-38.4-31.17-38.59-30.26-.25,1.26,33.9,29.18,35.95,22.61.86-2.75-4.15-10.68-23.15-39.65-30.54-46.55-38.01-57.14-37.65-58.08.54-1.39,18.94,16.07,37.27,46.6,8.29,13.8,12.97,24.3,14.31,22.61,2.96-3.77-15.29-61.67-15.06-61.9.17-.17,8.7,31.7,19.76,61.9,17.14,46.78,41.44,92.58,45.93,86.94,6.44-8.08-29.58-119.94-27.48-122.07,1.3-1.32,18.09,38.96,28.24,93.9,3.32,18.01,3.06,22.04,6.96,39.99,5.25,24.16,11.11,51.09,22.96,70.95,10.38,17.38,13.72,9.87,41.6,34.78,11.49,10.26,19.27,19.01,34.82,36.52,28.24,31.76,24.74,32.66,40.09,48.34,31.25,31.91,46.98,29.47,55.15,59.12,5.62,20.39,3.48,40.74,3.95,40.69.74-.08,5.1-48.72-5.46-99.11-5.91-28.2-15.44-47.93-34.26-86.25-5.51-11.23-18.14-36.33-41.41-74.42-21.01-34.4-41.52-64.38-56.28-85.9-34.74-50.64-50.68-70.62-48-89.38,1.24-8.68,6.24-15.4,10.73-16.69,7.9-2.27,13.98,12.29,34.64,51.82,18.15,34.72,22.91,41.59,25.04,39.3,2.22-2.4-.5-12.62-2.07-46.95-1.04-22.76.04-20.99-1.13-36.86-1.52-20.7-3.74-29.15-1.13-33.73,2.62-4.59,9-3.39,12.24,2.78,4.76,9.06.35,24.26-.94,49.04-.38,7.33-1.84,38.62,5.08,67.12,6.85,28.2,19.47,43.65,30.12,56.69,11.64,14.26,17.7,16.36,27.67,25.39,37.48,33.95,44.31,87.93,54.59,82.42,13.04-6.99,22.4-104.88.19-180.15-13.95-47.27-35.41-68.85-31.06-102.24,2.15-16.54,10.27-33.18,18.64-33.73,18.12-1.21,30.76,73.48,37.65,69.21,6.11-3.79-6.68-60.84,7.53-86.25,10.61-18.97,33.78-15.86,38.78,0,2.84,9.02-.35,21.66,1.13,22.61,2.34,1.49,6.13-32.57,17.69-39.65,9.11-5.57,22.22,6.1,24.85,21.91,2.68,16.15-6.43,31.51-13.55,50.08-12.88,33.56-14.67,65.84-18.26,130.41-4.49,80.8.45,168.49,8.28,169.71,3.66.57,4.97-18.21,16.09-47.56,10.42-27.5,19.4-37.18,26.68-50.86,15.25-28.66,23.69-79.27,22.87-117.37-.4-18.67-2.86-39.72,1.69-43.82,2.01-1.81,4.97.03,6.78,3.13,8.13,13.92-4.9,57.1-1.69,60.25,2.51,2.47,13.77-20.75,23.29-51.64,11.31-36.68,13.85-63.62,21.6-64.16,2.91-.21,5.9,3.36,7.2,7.82,3.49,11.98-5.04,30.97-18.64,63.38-29.38,70.05-29.98,77.74-28.8,80.6,1.97,4.78,10.06-1.22,24.99-12.52,22.76-17.23,34.2-25.9,47.01-45.38,15.11-22.98,19.47-41.78,27.95-39.12,5.08,1.59,9.84,10.32,10.59,19.56,1.32,16.3-10.02,32.03-24.99,50.08-44.35,53.46-55.42,48.7-75.39,80.6-8.48,13.55-17.65,39.81-36,92.33-22.74,65.1-27.37,92.41-29.65,111.11-4.35,35.78-5.17,82.18,2.12,86.86,4.84,3.11,12.32-12.82,19.91-28.95,11.41-24.28,11.53-35.7,19.91-49.3,8-12.99,12.74-10.44,27.95-21.13,26.82-18.85,44.3-49.44,51.67-62.6,12.77-22.78,20.27-43.98,22.87-51.64,10.33-30.39,18.57-54.66,18.21-86.07-.14-12.5-1.63-24.25,0-45.38,1.35-17.47,4.13-32.39,5.08-32.08,2.16.71-5.56,79.52,0,82.16.4.19.87,0,2.34-2.18,6.95-10.26,9.1-24.59,14.18-46.34,1.94-8.3,1.43-5.4,3.79-15.38,5-21.17,12.37-55.82,11.46-56.61-2.14-1.85-58.25,173.93-44.47,194.06,6.71,9.8,28.76-19.02,40.66-43.04,17.65-35.62,21.97-78.89,22.87-89.2,2.06-23.62.16-34.49,4.66-61.82,4.28-25.98,10.92-46.09,11.86-45.38.88.66-3.18,19.74-7.62,55.56-3.39,27.36-5.04,41.08-2.96,43.04,4.22,3.96,20.2-36.63,27.95-58.69,1.41-4,2.77-8.05,4.19-12.44,12.98-40.2,19.56-75.96,19.53-75.98-.05-.04-19.09,72.97-13.98,79.03,5.6,6.64,38.62-68.79,38.12-69.64-.37-.63-21.35,35.22-40.66,82.94-10.36,25.61-10.85,31.43-20.75,52.43-6.32,13.39-12.15,23.81-18.21,43.04-4.79,15.17-9.81,31.1-7.2,36.78,4.85,10.53,33.62-19.42,50.82-41.47,22.34-28.63,38.4-49.21,45.32-86.86,4.13-22.47,1.59-32.47,8.47-62.6,6.95-30.43,16.94-52.58,17.79-51.64.67.74-4.21,16.06-11.44,47.73-7.87,34.51-11.74,51.85-8.89,56.34,3.97,6.26,18.5-10.21,25.41-25.04,1.63-3.5,3.22-7.68,3.22-7.68,4.81-12.64,6.8-23.81,7.37-26.75,4.74-24.72,22.64-63.14,23.72-61.82,1.44,1.77-12.42,42.23-17.79,57.9-7.46,21.78-10.97,29.89-9.93,31.82,1.43,2.66,9.88-9.31,35.39-44.86,27.86-38.82,32.71-45.37,32.94-44.86.36.82-10.84,20.38-24.85,40.69-19.16,27.78-29.54,36.63-28.61,41.04,1.93,9.12,49.18-16,49.13-16.35-.03-.24-23.08,8.83-48.38,25.39-11.52,7.54-17.4,11.45-23.15,18.08-9.55,11.01-11.53,18.65-31.06,56.69-14.78,28.78-18.62,34.11-17.51,38.25,2.39,8.89,24.8,2.08,43.29-15.3,11.68-10.97,12.67-17.58,36.33-44.17,4.96-5.58,20.01-22.49,20.89-20.17.67,1.75-7.08,13.74-8.09,15.3-9.5,14.69-16.16,19.99-31.25,38.6-7.83,9.66-8.25,10.97-8.09,11.82,1.63,8.87,66.57-27.71,68.14-19.13.49,2.68-5.43,8.59-6.59,9.74-19.91,19.85-35.08,2.55-63.81,14.95-6,2.59-3.71,2.64-16,9.04-23.12,12.04-26.52,9.4-40.28,17.04-3.84,2.13-16.86,13.51-42.73,36.17-14.01,12.27-21.06,18.45-23.15,20.52-12.63,12.48-22.77,25.36-41.79,52.86-25.93,37.49-53.83,77.82-51.01,86.25,1.03,3.08,5.11-1.21,13.93-.7,12,.7,19,9.49,25.22,13.91,19.07,13.53,40.95-6.9,57.41-22.26,10.28-9.6,24.68-23.04,35.01-51.47,4.2-11.57,3.67-14.44,11.11-37.21,9.45-28.94,19.14-51.33,19.58-50.77.22.28-2,6.54-8.47,26.78-11.71,36.64-12.06,40.07-11.48,41.04,1.57,2.61,10.71-11.75,17.13-21.91,20.29-32.11,30.95-57.25,32.38-55.3.95,1.3-2.25,14.46-7.34,27.13-10.12,25.17-19.99,29.12-34.82,50.08-9.99,14.12-26.5,41.98-23.91,50.43,2.66,8.66,25.83-1.63,44.42-22.61,17.3-19.52,28.82-46.23,36.33-63.64,12.32-28.56,13.02-39.16,24.09-54.95,14.34-20.44,29.65-26.2,29.93-25.04.26,1.08-12.24,8.7-26.35,29.56-10.59,15.66-21.3,37.6-19.39,42.43.67,1.69,2.98,1.53,24.66-15.3,21.17-16.44,28.78-23.91,30.12-20.52,1.08,2.74-2.26,11.85-6.4,17.74-7.2,10.24-14.33,7.22-23.72,9.74-11.37,3.05-19,12.32-29.18,24.69-13.67,16.61-27.27,42.23-25.04,48.69.98,2.83,4.45.38,16.56-4.17,22.29-8.39,21.33-4.16,29.18-9.39,16.59-11.06,25.56-33.07,28.42-28.52,1.24,1.97.31,7.29.19,8-2.92,16.75-21.05,19.17-20.89,20.87.22,2.47,38.01-8.79,38.59-4.17.22,1.75-4.87,6.18-10.16,8.69-12.57,5.97-18.36-2.58-32.19,2.78-4.25,1.65-10,3.88-10.35,8.69-.53,7.33,11.7,17.23,21.08,21.91,13.08,6.52,23.84,4.48,23.91,6.61.04,1.39-4.51,3.41-8.85,4.17-17.41,3.05-31.04-14.3-31.81-15.3-5.35-7.02-5.3-10.29-9.6-13.22-7.35-5.01-14.46-.21-18.64,2.43-13.22,8.37,9.86-9.2-37.08,17.04-24.04,13.44-33.27,19.82-40.66,25.39-23.44,17.65-23.92,23.71-23.91,25.74.08,15.1,28.57,25.15,32.19,26.43,8.94,3.16,25.21,8.55,44.05-1.74,11.25-6.15,10.59-10.88,24.09-18.78,18.13-10.61,34.46-10.92,34.64-9.04.12,1.29-7.38,3.62-23.15,12.52-16.43,9.27-29.52,16.65-29.18,21.91.35,5.37,14.56,6.42,26.54,7.3,25.21,1.86,43.1-2.56,43.29,0,.11,1.46-5.54,4.65-11.48,6.61-19.92,6.57-35.79-3.09-36.14-.7-.5,3.45,33.24,18.56,32.56,32.69-.15,3.15-1.96,5.1-2.07,5.22-6.19,6.45-15.54-22.2-35.01-37.21-9.34-7.2-17.05-8.21-28.61-9.74-9.11-1.2-31.18-2.37-32.19,6.61-.63,5.59,7.16,12.95,11.86,17.39,18.72,17.69,31.38,11.54,40.85,31.3.87,1.82,3.87,8.07,3.01,10.43-1.97,5.44-23.94-10.63-41.22-28.52-4.27-4.41-7.5-8.17-8.28-6.61-2.26,4.49,18.51,47.77,18.82,47.3.26-.38-10.7-33.06-29.18-60.16-7.28-10.68-17.04-24.7-31.06-31.3-13.14-6.18-21.47-1.81-37.08,1.39-37.58,7.72-41.75-6.85-64,.7-23.74,8.05-39.2,31.5-57.41,59.12-13.65,20.71-44.11,68.1-58.54,148.85-6.75,37.79-7.02,66.23-7.53,120.68-.39,41.4,1.79,43.5,8.28,185.36,1.61,35.29,1.79,41.93,3.76,54.95,1.47,9.69,11.88,74.75,43.48,110.24,18.04,20.26,26.96,12.88,57.79,26.78,31.68,14.28,50.06,25.21,69.27,51.82,2.84,3.93,11.43,19.69,28.61,51.21,36.28,66.55,35.03,67.09,40.66,72.77,24.88,25.12,36.68,1.88,62.26,32.08,13.69,16.16,11.54,24.26,24.99,35.99,14.27,12.44,26.05,11.5,38.12,32.86,4.31,7.63,7.41,15.91,6.78,17.21-.93,1.91-9.35-12.17-23.72-24.26-6.24-5.25-17.02-14.32-19.06-9.39-2.22,5.38,6.19,26.97,15.67,41.47,7.66,11.72,14.54,16.54,13.98,19.56-.51,2.74-7.01,3.48-12.71-.78-13.98-10.46-10.44-41.58-26.68-67.29-5.68-8.99-11.17-13.2-19.48-19.56-11.53-8.83-15.49-7.47-30.07-14.87-22.54-11.43-30.85-23.71-33.46-18-3.4,7.44,7.83,34.57,11.01,42.25,9.53,23.01,19.86,35.73,22.02,38.34,13.87,16.73,17.89,11.25,29.65,26.6,13.27,17.34,21.2,41.38,19.91,43.82-.83,1.57-5.63-5.62-28.38-35.99-22.18-29.62-28.1-36.78-30.07-33.65-2.35,3.73,2.09,20.21,4.66,29.73,5.61,20.8,12.87,35.58,13.13,35.21.37-.52-11.15-33.54-26.68-65.73-9.77-20.25-12.15-21.58-17.79-36.78-8.59-23.17-8.22-34.02-14.4-54.77-7.65-25.7-17.45-40.05-29.65-57.9-5.97-8.74-22.23-31.21-46.59-46.95-10.9-7.04-25.49-16.46-44.89-16.43-17.85.03-20.14,8.03-38.54,5.48-15.79-2.19-28.06-10.01-34.31-14.08-11.55-7.52-17.33-11.29-23.29-20.34-8.97-13.62-10.34-26.37-19.48-58.69-8.55-30.21-19.2-60.94-19.91-60.25-1.14,1.11,13.88,93.97,53.36,158.84,20.36,33.45,35.58,49.3,35.58,49.3,18.56,19.33,26.52,18.95,37.69,39.91,9.31,17.46,7.07,23.89,19.48,50.86,5.13,11.14,12.83,27.87,24.99,42.25,12.23,14.46,23.56,20.15,41.08,28.95,20.48,10.28,22.4,6.58,29.65,15.65,9.97,12.48,8.71,22.47,22.45,46.17,4.67,8.06,11.66,19.93,22.02,28.95,11.89,10.35,16.81,7.03,27.95,13.3,24.08,13.56,37.78,49.72,37.27,50.86-.47,1.05-14.24-24.78-38.54-40.69-6.4-4.19-22.36-14.64-25.84-5.48-3.94,10.37,10.02,40.9,11.01,43.04,5.89,12.71,9.7,15.46,17.36,32.86,2.72,6.17,8.71,19.79,7.62,21.91-1.4,2.74-15.09-12.8-25.84-35.21-9.71-20.25-7.98-27.28-19.06-60.25-15.41-45.89-28.5-61.27-31.76-64.95-9.67-10.88-20.88-17.62-22.45-13.3-1.85,5.08,11.73,19.77,20.33,55.56,3.84,15.98,2.32,17.99,6.35,35.21,8.03,34.29,19.82,51.02,19.06,52.43-.83,1.52-16.4-14.77-26.26-46.95-7.6-24.8-4.93-36.59-13.55-61.03-6.64-18.81-14.7-30.22-18.64-35.21-20.34-25.82-34.88-13.02-49.98-40.69-6.39-11.71-8.29-22.27-9.74-21.13-2.97,2.34,3.67,47.92,13.13,86.86,7.08,29.15,12.08,49.71,23.29,70.42,14.1,26.04,20.64,20.21,28.8,43.82,2.21,6.39,8.41,26.14,18.44,45.03.86,1.62,1.65,3.05,1.89,3.48,8.94,16.13,16.48,25.05,19.48,28.95,13.51,17.54,21.62,45.5,20.75,46.95-.63,1.06-6.87-10.68-25.84-41.47-18.18-29.53-21.98-34.23-23.72-32.08-3.03,3.75,1.81,26.47,5.51,43.82,8.84,41.52,18.19,63.97,16.94,65.73-1.25,1.75-14.07-15.67-22.02-45.38-10.2-38.09-1.71-56.46-11.86-87.64-3.76-11.55-11.54-22.31-27.11-43.82-18.34-25.35-30.46-35.17-34.73-61.03-1.64-9.92-1.41-17.9-2.54-18-2.27-.19-6.16,31.73-5.08,64.16.5,14.92.87,26.19,4.24,39.12,5.41,20.81,12.65,23.24,21.18,40.69,14.7,30.09,16.53,70.67,14.82,71.99-1.36,1.05-6.8-21.37-23.72-68.86-11.96-33.57-14.75-37.83-16.52-36.78-5.99,3.58.22,68.03,0,68.08-.16.03-1.33-35.01-5.51-75.9-2.79-27.3-4.15-30.18-4.24-44.6-.17-27.93,4.83-34.57,6.78-61.82,2.48-34.74-2.85-63.07-5.51-76.68-2.58-13.24-8.51-38.8-21.18-63.38-15.74-30.55-40.05-56.1-45.74-46.17-4.6,8.02,3.4,38.4,10.59,65.73,2.47,9.4,3.75,13.11,11.86,39.12,0,0,18.81,60.37,18.21,61.03-.53.58-19.96-71.28-27.53-66.51-4.42,2.78-4.05,31.2-1.27,50.86,1.43,10.12,4.14,22.37,5.08,21.91,1.68-.81-.46-42.65-9.32-83.73-3.95-18.3-8.42-32.03-17.36-59.47-9.28-28.47-13.92-42.7-17.79-49.3-14.31-24.38-24.06-14.16-47.86-40.69-12.27-13.68-23.22-31.49-23.29-31.3-.08.19,14.16,12.63,18.21,37.56,2.5,15.4-1.52,19.36,0,36.78,1.46,16.71,7.77,30.14,20.33,56.34,10.89,22.71,14.76,26.13,18.64,42.25,2.77,11.52,1.69,13.49,4.66,32.08,1.83,11.45,5.34,32.85,13.13,54.77,9.64,27.13,22.11,44.54,23.29,46.17,6.36,8.74,9.75,10.95,13.98,21.13,3.29,7.91,5.06,16.86,8.47,34.43,4.7,24.23,3.84,26.5,7.2,38.34,3.63,12.8,7.98,21.9,11.01,28.17,8.73,18.06,12.59,18.34,14.4,29.73,1.75,10.99-1.09,15.39,1.27,26.6,2.59,12.3,8.7,19.77,9.32,18.78.3-.48-.71-2.9-23.29-58.69-10.73-26.51-13.86-34.26-15.67-32.86-4.14,3.18,2.8,50.76,2.54,50.86-.21.08-3.32-33.25-10.16-70.42-4.1-22.25-6.15-33.38-11.01-46.95-9.66-26.94-22.87-44.6-22.87-44.6-7.55-10.09-13.7-14.83-17.79-29.73-2.57-9.35-3.26-18.84-3.39-18.78-.21.1,5.65,24.18,4.24,53.21-1.03,21.06-4.75,21.44-5.08,39.91-.45,24.89,5.91,45.77,8.89,55.56,4.8,15.73,8.92,21.61,12.28,40.69,1.83,10.39.82,9.87,2.54,19.56,1.53,8.62,4.2,19.57,15.67,46.17,10.49,24.33,10.18,19.61,12.28,27.39,4.02,14.85,4.62,30,5.51,52.43.33,8.45.56,19.44,0,19.56-1.12.25,1.73-43.79-12.28-71.99-6.95-14-13.28-14.47-18.64-32.86-4.35-14.95-4.39-29.12-5.93-28.95-1.89.2-2.69,21.53-2.96,28.95-.67,17.98-.26,32.01,0,39.91,1.22,36.78,2.97,51.29,2.12,51.64-1.17.48-7.96-25.67-8.89-58.69-.87-30.89,4.27-35.91,1.69-63.38-.28-3.03-.11-.43-8.05-45.38-6.28-35.59-6.17-35.92-7.62-41.47-3.24-12.34-5.8-18.19-6.78-30.52-.99-12.57.4-22.58,0-22.69-.6-.17-.32,23.56-7.62,45.38-4.02,12.01-5.93,10.28-14.4,29.73-5.55,12.74-8.86,20.33-11.44,32.08-4.1,18.72-3.65,35.7-3.39,43.82.75,23.32,4.71,25.11,5.08,47.73.25,15.07-1.31,26.72-2.96,39.12-2.69,20.18-6.84,38-7.62,37.56-.91-.51,4.5-24.92,4.66-61.03.02-5.3-.41-15.27-1.27-35.21-1.74-40.17-2.77-44.77-4.24-45.38-2.45-1.02-5.6,9.26-10.59,25.82-6.2,20.58-7.35,29.81-13.13,50.08-1.18,4.15-9.06,31.74-10.59,30.52-1.54-1.23,2.44-32.32,11.01-62.6,8.83-31.18,13.32-28.97,20.33-57.9,6.2-25.6,3.83-32.07,10.59-51.64,6.75-19.56,10.52-17.17,18.21-36.78,10.65-27.16,12.7-55.42,13.13-62.6,1.49-24.71-1.41-42.81-5.08-65.73-1.29-8.08-8.35-50.63-13.55-49.3-2.85.73-2.48,13.98-8.05,41.47-3.97,19.6-4.92,16.64-8.05,32.86-1.05,5.47-5.59,29.91-5.51,62.6.03,11.26.61,24.27.85,24.26.57-.04,2.48-75.04-4.24-77.47-3.63-1.31-8.71,18.89-11.44,29.73-8.42,33.48-7.88,58-9.32,57.9-1.95-.13-8.89-45.46,2.96-75.9,7.66-19.68,15.64-13.75,22.87-33.65,9.79-26.93,4.48-63.36,2.54-76.68-2.89-19.85-7.79-33.95-13.13-49.3-9.54-27.43-12.31-24.15-17.36-42.25-9.73-34.86-6.37-71.8-5.51-80.6,2.28-23.2,7.38-38.97,6.35-39.91-1.42-1.29-7.64,31.62-24.99,58.69-4.53,7.06-12.08,17.27-16.09,22.69-9.53,12.88-12.71,16.2-16.94,25.04-1.39,2.9-2.79,6.18-9.32,27.39-8.25,26.8-12.39,40.35-12.71,47.73-.49,11.41,1.79,21.69,6.35,42.25,2.95,13.29,5.48,24.41,11.01,35.21,5.06,9.88,8.9,12.23,13.55,18,18.09,22.44,23.02,65.19,22.45,65.73-.47.44-5.45-26.65-20.33-52.43-8.42-14.59-20.06-28.84-22.87-24.26-1.98,3.23,2.21,12.91,6.35,40.69,3.45,23.15,1.88,25.42,5.08,39.12,2.81,12.03,5.16,15.14,13.13,35.21,7.78,19.61,11.68,29.42,14.4,39.91,8.43,32.46,5.88,68.34,3.81,68.86-3.34.83-11.59-88.7-15.25-87.64-2.01.58-1.2,28.03-2.54,28.17-1.34.14.13-27.16-8.47-50.86-5.57-15.33-9.48-12.99-13.98-28.17-2.75-9.29-2.1-12.92-4.66-43.82-2.47-29.9-3.71-44.84-5.93-51.64-4.11-12.6-9.34-18.92-10.16-34.43-.4-7.62.45-13.93,0-14.08-.73-.26-2.19,16.85-6.78,38.34-3.5,16.44-7.42,28.81-8.47,32.08-6.44,20.04-8.66,19.35-10.59,30.52-1.71,9.93-1,19.66.42,39.12,1.56,21.35,4.17,37.01,5.08,42.25,3.69,21.26,5.53,31.9,10.59,43.04,6,13.23,8.51,9.49,15.25,23.47,5.6,11.62,8.18,23.14,12.28,41.47,4.46,19.91,3.13,20.61,6.78,34.43,4.95,18.76,8.03,19.83,13.13,37.56,6.04,21,8.27,42.24,7.2,43.04-1.17.87-5.72-22.9-18.21-58.69-5.92-16.96-6.13-15.13-15.25-40.69-4.76-13.35-9.9-26.25-14.4-39.91-4.53-13.76-6.49-21.09-8.05-20.34-2.48,1.18,1.05,20.55-3.39,45.38-2.67,14.95-5.15,14.67-6.78,28.17-1.56,12.93.45,15.4.85,38.34.35,20.56-1.19,22.58-.85,46.95.23,16.44,1.08,25.77.85,25.82-.44.1-4.71-31.09-5.08-69.64-.32-33.87,2.53-55.83,0-57.12-.59-.3-1.87.34-10.59,27.39-6.24,19.36-8.47,27.39-8.47,27.39-18.39,66.2-22.08,81.39-23.29,80.6-1.58-1.04,1.72-28.88,6.78-53.21,1.79-8.62,5.06-24.12,11.44-42.25,11.16-31.75,17.45-30.7,22.02-53.21,3.47-17.09,2.83-32.4,2.12-49.3-1.02-24.24-4.7-43.49-7.2-56.34-5.7-29.25-10.25-36.91-9.32-55.56.75-14.85,4.42-25.62,3.39-26.6-1.19-1.14-4.93,14.37-13.98,30.52-8.14,14.52-11,12.46-17.36,25.82-4.08,8.56-6.11,16.4-10.16,32.08-4.18,16.17-7.53,29.12-9.32,46.95-2.26,22.57.83,24.59-1.69,46.17-.5,4.24-.5,3.16-8.47,40.69-4.47,21.02-6.29,29.93-10.59,41.47-2.75,7.38-7.77,19.21-8.89,18-1.81-1.96,9.58-34.68,16.52-84.51,4.11-29.55,5.7-58.22,3.39-59.47-1.84-.99-3.76,16.61-13.55,35.99-7.03,13.91-9.69,12.08-18.21,28.17-3.09,5.84-8.37,15.94-13.13,31.3-5.15,16.61-6,27.48-13.13,39.91-1.08,1.88-6.08,10.6-7.62,8.61-2.14-2.77,3.72-24.59,8.05-40.69,7.06-26.28,10.6-39.42,15.67-50.08,10.14-21.29,15.41-17.73,24.56-39.91,1.6-3.87,1.92-5.15,10.16-34.43,13.3-47.25,14.85-52.41,17.36-59.47,1.99-5.57,2.84-7.46,18.64-41.47,21.2-45.64,24.56-52.8,29.65-67.29,10.09-28.75,12.46-45.07,13.13-50.08,2-14.88.9-18.16,2.96-39.12,3.17-32.14,8.42-51.37,7.2-52.43-1.47-1.27-6.3,29.11-21.6,53.21-9.63,15.17-12.59,10.79-26.68,29.73-13.07,17.56-21.03,35.45-23.29,40.69-4.44,10.27-8.75,24.32-17.36,52.43-6.05,19.74-6.46,22.44-12.28,40.69-4.54,14.22-5.3,15.77-11.86,35.99-4.51,13.92-4.93,15.61-11.44,35.99-9.96,31.23-8.68,26.37-13.13,40.69-8.25,26.57-9.91,34.5-16.09,48.51-2,4.53-10.05,22.77-12.28,20.34-2.05-2.23,1.55-21.04,4.24-32.08,2.22-9.11,3.69-12.41,10.16-32.08,8.13-24.7,8.45-27.54,8.05-28.17-1.13-1.74-6.9,15.29-19.48,25.82-7.83,6.55-9.67,3.38-16.09,10.95-1.85,2.18-3.7,4.8-13.13,22.69-7.76,14.71-7.32,14.47-9.74,18.78-11.68,20.78-23.6,29.34-23.53,29.56Z"/>
  </g>
</svg>