<?xml version="1.0" encoding="UTF-8"?>
<svg id="b" data-name="Livello 2" xmlns="http://www.w3.org/2000/svg" viewBox="0 0 163.9 95.85">
  <defs>
    <style>
      .d {
        fill: #3465a4;
      }

      .e {
        fill: #333;
      }

      .f {
        fill: #77c1d2;
      }

      .f, .g {
        fill-rule: evenodd;
      }

      .g {
        fill: #2d3441;
      }
    </style>
  </defs>
  <g id="c" data-name="Livello 1">
    <g>
      <g>
        <path class="f" d="M108.21,0l23.68,24.7-23.68,24.7-23.68-24.7L108.21,0Z"/>
        <path class="g" d="M49,0l49.1,51.2h-47.37l-25.42-26.5L49,0Z"/>
      </g>
      <g>
        <path class="e" d="M16.75,90.45L0,82.81v-2.91l16.75-8.02v4.27l-11.94,5.11v.11l11.94,4.81v4.27Z"/>
        <path class="d" d="M38.06,65.86l-12.54,29.99h-5.06l12.48-29.99h5.11Z"/>
        <path class="e" d="M59,82.58l-16.75,7.64v-4.25l11.98-4.79v-.07l-11.98-5.13v-4.27l16.75,7.96v2.91ZM93.74,91.58h-5.65v-10.44c0-2.69-.98-4.04-2.94-4.04-.95-.03-1.85.39-2.44,1.13-.64.81-.97,1.83-.93,2.87v10.47h-5.67v-27.19h5.67v11.55h.07c1.39-2.12,3.27-3.17,5.65-3.17,4.16,0,6.24,2.51,6.24,7.53v11.28ZM109.33,91.36c-.84.44-2.1.66-3.78.66-3.99,0-5.99-2.07-5.99-6.22v-8.41h-2.98v-4.18h2.98v-3.96l5.65-1.61v5.58h4.12v4.18h-4.12v7.42c0,1.91.76,2.87,2.28,2.87.65-.01,1.29-.19,1.85-.52v4.2ZM141.68,91.58h-5.65v-10.47c0-2.67-.98-4-2.94-4-.91-.01-1.77.44-2.28,1.2-.61.88-.92,1.93-.88,2.99v10.28h-5.67v-10.58c0-2.59-.96-3.89-2.89-3.89-.92-.03-1.79.4-2.32,1.15-.58.77-.87,1.81-.87,3.12v10.2h-5.67v-18.36h5.67v2.87h.07c1.27-2.06,3.51-3.32,5.94-3.32,2.59,0,4.37,1.14,5.33,3.43,1.4-2.28,3.46-3.43,6.17-3.43,3.99,0,5.99,2.46,5.99,7.39v11.42Z"/>
        <path class="d" d="M163.9,73.22l-6.06,8.9,6.03,9.47h-6.53l-2.65-4.95c-.22-.39-.47-.95-.77-1.67h-.07c-.2.56-.45,1.1-.74,1.61l-2.67,5h-6.51l6.21-9.15-5.83-9.22h6.56l2.62,5.15c.29.55.54,1.13.74,1.72h.07c.21-.61.47-1.19.77-1.76l2.67-5.11h6.17Z"/>
      </g>
    </g>
  </g>
</svg>