<?xml version="1.0" encoding="UTF-8"?>
<svg id="b" data-name="Livello 2" xmlns="http://www.w3.org/2000/svg" viewBox="0 0 917.4 1199">
  <defs>
    <style>
      .d {
        fill: #ff9b45;
      }

      .e {
        fill: #521c0d;
      }
    </style>
  </defs>
  <g id="c" data-name="Livello 1">
    <path class="d" d="M500.95,137.64c14.13-15.07,112.22-117.76,215.57-134.29,13.81-2.21,42.75-6.84,78.92,1.18,18.68,4.14,54.33,12.04,81.74,40.86,29.96,31.5,33.37,70.91,38.41,118.17,4.37,41-.22,72.75-3.53,96.59,0,0-8.63,61.99-30.63,118.98-72.97,189.03-222.64,368.71-222.64,368.71-80.42,96.54-185.24,241.79-286.25,451.17-111.67-117.63-187.27-229.34-236.77-313.34,0,0-131.73-223.54-135.47-371.06-.11-4.39-.63-31.03,0-65.97,1.04-57.37,1.56-86.05,7.07-116.62,10.08-56,34.82-94.96,44.76-116.62,6.82-14.85,70.76-148.45,208.5-173.16,20.83-3.74,100.21-17.98,174.34,29.45,33.64,21.52,54.38,48.18,65.97,65.97Z"/>
    <g>
      <path class="e" d="M480.03,190.23c.28-.54.39-.96.84-1.38,0,0,1.46-1.61,1.46-1.61,6.84-7.46,13.99-14.76,21.28-21.77,50.3-47.51,111.52-91.66,182.85-95.89,17.8-1.13,35.72.89,53.05,5.17,24.92,5.65,49.39,17.11,66.53,36.57,26.09,28.37,28.85,68.88,32.77,105.27,1.42,14.73,1.6,29.6.64,44.36-.58,12.13-2.96,28.17-4.12,36.83-4.83,30.78-12.15,61.22-22.48,90.65-16.22,43.26-36.7,84.95-59.58,124.91-43.57,75.44-94.22,146.64-150.34,213.2-91.92,111.6-166.61,236.71-227.88,367.42,0,0-2.78,5.89-2.78,5.89-76.12-77.77-143.77-163.91-200.4-256.88-21.15-34.64-39.86-70.63-57.26-107.24-18.87-40.08-35.97-81.08-48.94-123.51-9.72-32.11-17.36-65.2-18.63-98.95-.54-18.44-.31-36.89-.03-55.33,1.77-90.92,1.59-121.66,45.71-203.69,34.27-69.87,96.19-131.1,174.27-147.13,66.1-14.29,137.71-.27,186.21,48.87,9.47,9.45,17.86,19.92,25.17,31.12.71,1,1.13,1.97,1.66,3.15h0ZM479.9,191.73c-1.57-1.82-2.4-2.94-3.71-4.81-15.91-22.06-36.58-40.85-60.37-54.02-50.67-28.34-113.24-29.09-167.44-10.78-61.35,21.37-108.9,71.65-138.61,128.26-9.31,19.64-19.97,38.97-27.79,58.95-6.54,16.57-11.34,33.74-14.18,51.32-5.12,31.83-4.13,65.24-4.98,97.53-.2,18.14-.31,36.42.28,54.53,2.07,46.79,15.94,92.03,31.71,136.06,24.11,64.68,54.13,127.4,89.15,186.88,54.36,90.74,118.49,175.55,190.29,253.22,0,0-7.36,1.15-7.36,1.15,60.39-121.06,131.11-237.08,214.07-343.99,11.48-15.1,24.31-30.51,36.07-45.31,17.63-22.34,34.91-46.5,51.11-69.92,52.29-77.19,99.64-159.23,132.14-246.81,9.66-28.09,16.65-57.17,21.52-86.48,4.01-25.31,6.67-53.25,4.12-79.75-.83-8.47-1.67-17.28-2.67-25.69-2.86-24.77-7.52-50.03-23.41-69.83-19.49-24.69-49.32-35.42-79.4-40.83-17.98-3.26-36.52-3-54.6-.3-49.65,7.25-94.09,34.44-133.5,64.57-17.05,13.27-33.38,27.56-48.76,42.76,0,0-1.53,1.53-1.53,1.53-.61.69-1.42,1.27-2.14,1.77h0Z"/>
      <path class="e" d="M379.27,369.49c17.36-27.35,35.35-54.27,53.14-81.34,7.92-13.56,12.42-30.22,8.45-45.61-5.16-19.41-20.82-31.83-39.05-38.86-17.73-6.89-38.84-7.18-56.15.24-25.65,10.97-39.11,39.26-48.47,64.1-.48,1.22-.92,2.54-1.54,3.66,0,0,.79-2.14.79-2.14-1.39,6.77-2.5,13.57-3.14,20.37-1.26,13.43-.75,27.09,2.73,40.07,2.13,8.02,5.44,15.62,9.75,22.67,2.68,4.4,6.13,8.31,9.31,12.35,13.34,17.21,25.38,35.24,37.12,53.49,30.75,48.66,59.01,99.33,79.93,153.08,21.12,54.02,28.71,112.68,25.99,170.47-2.79,47.58-13.03,111.32-52.19,143.02-66.72,52.33-161.77-62.58-196.59-112.78-37.92-56.37-107.75-182.91-7.22-213.25,33.78-9.73,76.5-4.43,101.32,22.29,28.03,31.85,27.29,79.95-11.16,102.97-6.31,3.76-13.05,6.7-20.11,8.5,0,0-.48-1.63-.48-1.63,45.19-16.24,57.83-62.27,27.88-99.33-22.04-25.56-62.67-29.26-93.3-19.42-18.37,5.92-34.54,18.09-38.31,37.88-16.28,74.67,118.66,262.57,193.98,271.99,61.29,7.91,82.73-95.14,86.43-140.94,8.99-97.29-14.25-171.47-63.32-254.53-12.62-21.39-26.52-42.7-40.91-62.9-12.38-17.39-25.25-34.54-38.95-50.84-5.02-5.64-9.93-11.38-13.71-17.95-15.98-26.69-16.27-59.2-10.04-88.71,0,0,.79-2.14.79-2.14-.05.07-.09.16-.13.24,0,0,.02-.05.02-.05,0,0,.04-.1.04-.1,0,0,.2-.49.2-.49,9.52-25.69,22.62-52.12,46.38-67.54,21.33-13.39,48.66-14.88,72.19-6.98,27.87,9.48,52.06,31.89,51.78,63.22-.21,14.38-5.33,28.26-13.18,40.15-19.35,26.11-38.97,52.03-58.91,77.73,0,0-1.39-.98-1.39-.98h0Z"/>
      <path class="e" d="M347.63,470.65c-13.96-5.88-39.84-14.11-50.3.53-2.57,3.83-4.26,8.66-4.22,13.3.36,8.03,5.54,14.98,11.8,19.68,3.48,2.58,7.37,4.64,11.49,6.14,0,0-.66-.19-.66-.19,15.21,2.7,30.58,3.44,45.81,1.7,14.95-1.82,29.58-6.36,42.6-13.96,10.42-6.08,19.05-14.91,27.74-23.42,22.12-22.3,44.41-44.86,66.09-67.39,41.85-42.85,57.18-112.26,53.11-170.71-.9-10.13-1.7-20.59-5.08-30.14,0,0-.05-.12-.05-.12,0,.02.02.04.04.04,0-.02.02.02.09.11.53.55,1.56,1.15,2.34,1.18-.78.33,3.47-.39,3.13-.83.75-.62.78-.8.94-1,.18-.3.14-.23.21-.36,0,0,.06-.14.06-.14.02-.07.02-.05,0-.04-.02.04-.05.15-.09.27-2.45,12.76-2.95,26.07-3.58,39.07-.57,22.68-1.72,72.92,12.78,90.33,1.58,2.03,5.11,3.31,7.33,4.36,0,0,8.51,3.9,8.51,3.9l.37.2c-.03-.05-.29-.17-.12-.09l.25.11.51.21c7.75,3.24,15.72,6.39,23.67,9.06,2.68.88,5.42,1.81,8.22,2.26,11.37,1.78,23.27,1.25,34.73-.11,27.99-3.65,58.05-14.32,74.08-38.84,15.36-24.05,12.63-56.3.36-81.08-9.7-19.25-27.63-35.6-50.37-28.05-14.18,4.65-26.62,14.75-36.5,25.87-1.02,1.29-2.86,3.66-3.8,4.85-.66,1.01-2.69,4.05-3.39,5.11,0,0-1.98,3.57-1.98,3.57-.32.6-.68,1.18-.98,1.79-5.25,10.52-8.08,22.24-9.57,33.91-2.04,16.3-2.26,35.73-2.86,52.51-2.13,53.57-12.36,105.9-16.25,159.19-11.06,113.84-17.46,251.89-107.42,333.96-7.73,7.11-15.97,13.58-24.47,19.72-7.61,6.12-19.81,16.21-27.46,22.32,0,0-.87.71-.87.71l-.96.72s-.96.72-.96.72l-.99.66c-10.27,6.61-22.17,9.91-33.85,12.83-11.59,2.8-23.32,4.75-35.05,6.43,0,0-.26-1.48-.26-1.48,11.57-2.41,23.08-5.17,34.34-8.53,7.04-2.11,13.89-4.53,20.54-7.53,4.48-2.09,8.93-4.43,12.69-7.57.42-.34,1.21-1.02,1.6-1.38,1.77-1.54,8.01-7.21,9.95-8.91,5.31-4.55,14.91-13.66,20.16-17.64,72.59-57.11,94.56-144.43,105.65-231.97,6.67-49.8,9.38-100,14.74-149.99,4.41-38.1,11.06-76.08,13.61-114.17,1.37-20.46,1.42-41.98,4.28-62.5,2.18-15.52,6.64-31,15.1-44.38,0,0,2.72-3.94,2.72-3.94,0,0,1.37-1.96,1.37-1.96,2.19-2.69,5.29-6.66,7.81-9.06,17.55-17.64,44.05-34.26,69.52-24.17,36.55,15.53,50.11,71.5,37.48,106.52-8.31,24.17-28.94,40.01-52.31,48.45-20.58,7.69-54.33,12.26-75.78,6.83-13.35-4.26-26.13-9.38-38.05-14.84,0,0-4.37-1.95-4.37-1.95-4.8-2.45-7.84-7.34-9.96-11.91-6.46-14.86-8.07-31.16-9.57-47.08-1.57-19.04-1.76-38.1-1.09-57.18.28-6.49.56-12.77,1.4-19.3.22-1.41.42-3.14,1.1-4.57.12-.22.1-.24.35-.62.21-.28.3-.54,1.13-1.22-.28-.51,4.09-1.25,3.4-.9,1.51.16,2.93,1.18,3.75,2.43.35.52.74,1.16.97,1.7,1.96,4.32,3,9.04,4.01,13.52,3.92,19.01,5.08,38.4,4.43,57.76-1.51,46.09-15.21,92.75-43.62,129.58-20.56,23.28-43.35,44.3-65.24,66.24-13.84,13.12-27.27,28.12-44.24,37.74-29.04,16.09-64.32,17.56-96.1,10.13-13.88-5.55-27.08-18.24-26.43-34.19,1.15-10.98,8.02-21.36,19.22-23.56,9.88-2.04,19.67.32,28.86,3.55,4.51,1.65,8.89,3.55,13.12,5.84,0,0-.68,1.33-.68,1.33h0Z"/>
    </g>
    <circle class="e" cx="671.21" cy="287.5" r="26.5"/>
    <circle class="e" cx="231.71" cy="641" r="26.5"/>
  </g>
</svg>