<?xml version="1.0" encoding="UTF-8"?>
<svg id="Layer_1" data-name="Layer 1" xmlns="http://www.w3.org/2000/svg" xmlns:xlink="http://www.w3.org/1999/xlink" viewBox="0 0 116 117.38">
  <defs>
    <style>
      .cls-1 {
        fill: url(#linear-gradient-3);
      }

      .cls-2 {
        fill: url(#linear-gradient-2);
      }

      .cls-3 {
        fill: url(#linear-gradient);
      }

      .cls-4 {
        fill: #00827e;
      }

      .cls-5 {
        fill: #42d3c8;
      }

      .cls-6 {
        fill: #e6635b;
      }

      .cls-7 {
        fill: #d300ff;
      }
    </style>
    <linearGradient id="linear-gradient" x1="38.07" y1="83.43" x2="133.17" y2="83.43" gradientUnits="userSpaceOnUse">
      <stop offset="0" stop-color="#edd4b2"/>
      <stop offset="1" stop-color="#e6635b"/>
    </linearGradient>
    <linearGradient id="linear-gradient-2" x1="55.42" y1="12.93" x2="136.53" y2="12.93" gradientUnits="userSpaceOnUse">
      <stop offset="0" stop-color="#a8e2a8"/>
      <stop offset="1" stop-color="#53eadb"/>
    </linearGradient>
    <linearGradient id="linear-gradient-3" x1="55.42" y1="27.67" x2="136.53" y2="27.67" xlink:href="#linear-gradient-2"/>
  </defs>
  <path class="cls-3" d="M115.82,72.01c.3-1.52-.19-2.77-1.61-3.57-3.3-1.85-26.54,1.01-43.18,2.57-16.55,1.55-26.78,1.87-27.32,1.89h0s0,0,0,0c-23.36,5.15-34.36,14.3-29.78,20.33l.06.06c3.51,2.31,7.16,3.82,10.26,4.29,17.4,2.63,35.68.87,35.68.87h0c8.78-2.51,17.97-4.9,25.12-6.78,17.5-4.58,29.64-14.02,30.76-19.66Z"/>
  <path class="cls-2" d="M95.42,12.9s.07.03.1.05c-.03-.02-.07-.03-.1-.05Z"/>
  <path class="cls-1" d="M96.37,17.96c1.28-2.45.53-4.11-1.07-5.11-4.75-2.16-12.45-.8-29.33,4.16-4.75,1.4-9.62,2.1-13.16,2.48-3.27.97-7.03,1.78-11.34,2.34-26.75,3.46-33.3,6.93-34.17,10.24-.08.31-.1.62-.1.93v.33s0,.05.01.07c.38,3.19,8.03,9.95,36.06,10.09h0c2.61-.59,5.37-1.21,8.3-1.87,24.59-5.46,41.75-17.82,44.79-23.66Z"/>
  <path class="cls-4" d="M27.78,7.92C10.55,17.22,7.75,28.32,7.3,32.07c.87-3.31,7.42-6.78,34.17-10.24,4.32-.56,8.07-1.37,11.34-2.34,1.93-.57,3.68-1.2,5.29-1.87,14.82-6.19,16.53-15.86,16.53-15.86,0,0-22.97-6.74-46.85,6.16Z"/>
  <path class="cls-6" d="M115.82,72.01c-1.12,5.64-13.26,15.08-30.76,19.66-7.15,1.87-16.34,4.27-25.12,6.78-14.82,4.23-28.49,8.77-29.3,11.63-1.3,4.55,32.52,12.2,52.52,2.93,20-9.27,29.73-25.41,32.85-40.99h-.18Z"/>
  <path class="cls-5" d="M95.26,12.82s.02.02.03.02c.04.02.09.04.13.06-.05-.03-.11-.06-.16-.08Z"/>
  <path class="cls-5" d="M111.04,33c-4.41-12.3-10.58-17.68-15.51-20.05-.03-.02-.07-.03-.1-.05-.04-.02-.09-.04-.13-.06,1.61,1,2.35,2.65,1.07,5.11-3.04,5.84-20.2,18.21-44.79,23.66-2.94.65-5.69,1.27-8.3,1.87C-1.5,53.7.42,56.16,0,69.96c-.3,9.91,6.52,18.4,13.95,23.3,0,0-.01-.02-.02-.03-4.58-6.03,6.42-15.17,29.78-20.33h-.05s.04,0,.05,0c4.04-.89,8.43-1.66,13.19-2.28,34.47-4.45,60.42-20.07,54.12-37.62Z"/>
  <path class="cls-7" d="M13.98,93.28h.02s-.02-.01-.04-.02c0,0,0,.02.02.02Z"/>
  <path class="cls-7" d="M43.72,72.9s0,0,0,0c-.02,0-.05,0-.05,0h.05Z"/>
  <path class="cls-7" d="M43.67,72.9h0s.04,0,.05,0h0s-.05,0-.05,0Z"/>
</svg>