<?xml version="1.0" encoding="UTF-8"?>
<svg id="b" data-name="Livello 2" xmlns="http://www.w3.org/2000/svg" viewBox="0 0 870.84 915.3">
  <defs>
    <style>
      .j, .k, .l, .m, .n, .o {
        font-family: ChelseaMarket-Regular, 'Chelsea Market';
      }

      .j, .p, .m, .o {
        fill: #499133;
      }

      .j, .n {
        font-size: 196.08px;
      }

      .k, .l, .q, .n {
        fill: #284a2f;
      }

      .k, .m {
        font-size: 343.52px;
        letter-spacing: .07em;
      }

      .l, .o {
        font-size: 230px;
      }
    </style>
  </defs>
  <g id="c" data-name="Livello 2">
    <g>
      <g id="d" data-name="Cercio Sinistra">
        <path class="q" d="M124.7,347.31c0-.25-1.36-2-1.88-4.43-.29-1.36-.7-2.69-1.43-4.18-.65-1.32-1.14-2.63-2.29-3.76-1.03-1.02-1.85-2.47-3.39-3.13-1.45-.62-3.13.07-4.69-.02s-3-.41-4.52.01-2.69,1.26-4.02,2.13-2.2,1.77-3.23,3c-.63,1.29-2.39,1.98-3.03,3.34s.12,3.27-.51,4.63-1.67,2.44-2.28,3.81-1.45,2.55-2.05,3.92-1.35,2.6-1.93,3.97-1.96,2.35-2.53,3.73-.14,3.1-.7,4.49-1.68,2.49-2.22,3.88-1.26,2.66-1.78,4.05-1.16,2.7-1.67,4.1.49,3.29,0,4.69-.88,2.79-1.36,4.2-1.53,2.57-2,3.98-.48,2.93-.93,4.34-.96,2.77-1.4,4.19c-.46,1.49-.9,2.97-1.33,4.43s-.79,3-1.21,4.47-.58,3.06-.98,4.53-1.75,2.75-2.14,4.22-1.55,2.82-1.92,4.29-.62,3.06-.97,4.53-.29,3.14-.62,4.61-.07,3.18-.39,4.66c-.34,1.55-1.48,2.88-1.78,4.36-.32,1.56-.36,3.12-.65,4.59-.3,1.57.58,3.3.32,4.76-.29,1.58-2.25,2.8-2.49,4.26-.27,1.61.72,3.34.5,4.77-.26,1.64-1.13,3.07-1.33,4.47-.25,1.72-.19,3.29-.36,4.62-.26,2.01-.07,3.6-.18,4.62-.14,1.23-1.01,2.66-1.18,4.42-.13,1.35-.85,2.81-.99,4.46-.12,1.4.9,3,.78,4.6-.1,1.43-1.04,2.88-1.14,4.46-.09,1.44.35,2.98.27,4.55-.07,1.46-.14,2.96-.19,4.52-.05,1.46-.35,2.97-.39,4.52s1.22,3,1.2,4.54-1.74,2.97-1.74,4.51,1.31,2.99,1.33,4.52-1.4,3.01-1.37,4.55,1.81,2.95,1.86,4.48-1.12,3.04-1.05,4.57.54,2.98.62,4.5.84,2.95.93,4.48-.89,3.07-.78,4.59.82,2.95.95,4.47-.18,3.04-.03,4.55c.15,1.52.98,2.97,1.15,4.48s.75,2.98.93,4.49.47,3.01.67,4.51-.54,3.15-.32,4.65-.4,3.15-.16,4.65,2.14,2.75,2.39,4.24-.25,3.14.02,4.63.42,3.03.71,4.52-.08,3.13.22,4.62,1.38,2.84,1.7,4.32.94,2.92,1.28,4.4.88,2.93,1.23,4.4-.32,3.22.05,4.69,2.09,2.61,2.48,4.08-.23,3.22.18,4.68.14,3.14.56,4.6,2.55,2.43,2.99,3.88.55,3.02,1.01,4.46.53,3.04.99,4.48,1.61,2.68,2.09,4.12.79,2.95,1.29,4.38-.28,3.34.23,4.77,1.37,2.76,1.9,4.18,1.43,2.73,1.98,4.14,1.67,2.62,2.24,4.03,1.18,2.81,1.76,4.21,1.31,2.76,1.9,4.15.86,2.95,1.46,4.34.19,3.26.81,4.64,2.41,2.2,3.04,3.57c.92,1.27,1.12,3.12,2.27,4.04,1.21.97,2.84,1.43,4.2,2.01s3.02.43,4.49.59,3.13.97,4.58.66,2.66-1.6,3.93-2.43c1.15-.75,2.83-1.06,3.68-2.14s.75-2.77,1.26-4.07.78-2.54.93-3.92,1.16-2.9.97-4.28c-.57-1.37-2.8-2.24-3.4-3.73-.56-1.39.38-3.43-.2-4.92-.55-1.4-2.12-2.45-2.69-3.94-.53-1.41-1.41-2.74-1.95-4.23s-.88-2.95-1.41-4.44-.85-2.96-1.36-4.45.23-3.32-.26-4.81-2.06-2.56-2.54-4.06.25-3.3-.21-4.8-2.39-2.49-2.84-4c-.41-1.38-.23-3.03-.68-4.56-.41-1.4-1.41-2.7-1.85-4.22-.4-1.41-.88-2.87-1.3-4.39-.39-1.42.39-3.22-.01-4.73-.38-1.43-.67-2.92-1.06-4.44s-.98-2.85-1.35-4.36-1.06-2.84-1.41-4.36-1.02-2.86-1.35-4.38.04-3.09-.27-4.61-.17-3.04-.47-4.56-1.7-2.75-1.98-4.27-.26-3.03-.52-4.55.14-3.09-.1-4.61-.68-2.95-.9-4.47-1.46-2.85-1.66-4.38,1.1-3.19.92-4.72-.7-2.96-.87-4.49-.55-2.99-.69-4.52-.55-2.99-.68-4.53.09-3.05-.02-4.58.4-3.06.31-4.59-.6-3-.67-4.54-1.26-2.99-1.32-4.52.82-3.06.78-4.6-.98-3.03-1-4.56c-.01-1.27-.16-2.78-.17-4.49,0-1.36-.2-2.87-.19-4.49.01-1.4.02-2.91.05-4.5.03-1.42.56-2.91.61-4.47.05-1.44,1.36-2.88,1.43-4.43.07-1.45.11-2.93.2-4.47.08-1.45-1.26-3.04-1.16-4.57s1.81-2.83,1.94-4.35.28-2.94.43-4.46.25-2.94.42-4.45-.62-3.05-.44-4.56.63-2.92.84-4.42.85-2.88,1.07-4.38.03-3,.27-4.49-.42-3.09-.16-4.58.45-2.96.74-4.44,1.45-2.76,1.75-4.24-.2-3.1.12-4.57,1.91-2.63,2.25-4.09-.38-3.17,0-4.63c.36-1.42,1.8-2.58,2.2-4.03s-.63-3.25-.22-4.69,1.05-2.79,1.48-4.22,1.66-2.6,2.1-4.03.61-2.93,1.05-4.35.5-2.97.96-4.38.9-2.85,1.37-4.25,1.66-2.59,2.14-3.99.41-3.02.89-4.41,1.87-2.52,2.36-3.9.1-3.15.6-4.53,1.3-2.73,1.8-4.1c.53-1.44,1.84-2.54,2.35-3.89.54-1.45.05-3.22.55-4.56.56-1.47,1.68-2.63,2.19-3.94.58-1.5.48-3.14.97-4.41.62-1.59,1.86-2.71,2.32-3.88,1-2.52.63-4.4.68-4.54,0-.02,2.28.28,2.43-5.07Z"/>
      </g>
      <g id="e" data-name="Cercio Fondo">
        <path class="q" d="M196.82,793.11c-1.75-.69-3.47-.64-5.02-.95-1.92-.38-3.51-1.13-5-1.13-2.61,0-4.21,1.2-4.9,1.37-1.46.35-3.41-.9-4.72-.33s-1.66,2.43-2.57,3.72c-.84,1.2-1.25,2.19-1.39,3.51-.15,1.44-1.03,2.91-.75,4.16.48,2.11,2.49,2.95,2.6,3.15.95,1.04,1.45,2.58,2.57,3.77.99,1.05,1.86,2.31,2.98,3.46,1.02,1.04,2.18,2.03,3.31,3.14,1.05,1.03,1.57,2.69,2.71,3.77,1.07,1.02,3.13,1.04,4.28,2.1s1.8,2.48,2.97,3.51c1.13,1,1.99,2.37,3.19,3.39s3.15.97,4.38,1.97,1.69,2.76,2.94,3.73,2.27,2.06,3.54,3,2.46,1.81,3.75,2.73,2.3,2.04,3.61,2.94,2.98,1.05,4.29,1.92,2.92,1.09,4.25,1.94,2.52,1.7,3.86,2.52,1.76,2.98,3.12,3.79,3.56-.03,4.92.76,2.32,2.08,3.7,2.85,2.46,1.86,3.85,2.61,3.01.86,4.4,1.6,2.05,2.68,3.45,3.4,3.26.35,4.67,1.07c1.35.69,2.44,1.92,3.8,2.6s3.04.74,4.4,1.42,2.65,1.49,4.02,2.17,3.04.7,4.41,1.38,1.93,2.97,3.31,3.63,3.36.01,4.75.67,2.8,1.17,4.18,1.82,2.82,1.1,4.22,1.73,2.19,2.53,3.6,3.15,3.09.48,4.51,1.08,2.45,2,3.87,2.58,3.37-.26,4.8.3,2.2,2.72,3.63,3.27,3.38-.39,4.83.14,2.78,1.21,4.23,1.72,2.76,1.29,4.22,1.78,2.78,1.24,4.25,1.71,3.19-.06,4.66.38,2.37,2.67,3.85,3.1,3.19-.11,4.67.3c1.46.4,2.72,1.6,4.21,1.99,1.46.38,2.92.89,4.41,1.26,1.36.34,2.99.12,4.59.49,1.4.33,2.9.62,4.47.97,1.42.31,2.9.71,4.46,1.03,1.44.3,2.98.37,4.53.67,1.45.28,3.13-.43,4.68-.15,1.46.26,2.84,1.21,4.38,1.46s2.97.47,4.52.7c1.47.23,3.06-.09,4.6.12,1.48.21,2.82,1.69,4.36,1.89,1.49.19,3.09-.39,4.64-.21,1.49.17,2.98.56,4.52.72s2.93,1.17,4.47,1.31,3.14-1.15,4.68-1.03c1.5.12,2.99.51,4.53.61s3,.64,4.54.73,3.03.18,4.57.24,3.07-.99,4.61-.94,2.99,1.91,4.53,1.94c1.51.03,3.05-.4,4.59-.38,1.51.01,3.04-.78,4.58-.79s3.04.16,4.58.13c1.51-.02,3.04.14,4.58.1s3-1.06,4.54-1.12c1.52-.06,3.09,1.09,4.63,1.01s3.03-.36,4.57-.46c1.28-.08,2.77-.3,4.45-.43,1.36-.1,2.84-.32,4.45-.46,1.39-.13,2.87-.38,4.44-.54,1.41-.15,2.96.29,4.51.11,1.42-.16,2.95.02,4.48-.18,1.43-.18,2.95-.12,4.47-.34,1.43-.2,2.81-1.13,4.32-1.36s3.03.26,4.53.02c1.44-.24,2.62-2.19,4.12-2.45s3.04.24,4.53-.03,2.86-.79,4.35-1.08,3.04.11,4.52-.2c1.44-.3,2.67-1.65,4.15-1.97s3.22.8,4.69.45c1.43-.33,2.72-1.4,4.19-1.76s3.06-.03,4.52-.4c1.43-.37,2.85-.86,4.3-1.24,1.43-.38,2.58-1.81,4.03-2.21,1.42-.4,2.82-.92,4.27-1.34,1.42-.41,3.25.5,4.69.06,1.42-.43,2.29-2.66,3.72-3.11s3.16.12,4.59-.35,2.87-.81,4.3-1.29c1.4-.48,2.68-1.26,4.05-1.75s2.74-1.07,4.11-1.56,2.45-1.83,3.81-2.34,3.14-.01,4.5-.54,2.91-.66,4.26-1.2,2.32-2.12,3.66-2.67,2.56-1.51,3.89-2.08,3.01-.47,4.33-1.05,2.6-1.4,3.92-2,3.16-.21,4.46-.82,2.58-1.48,3.87-2.11,2.04-2.56,3.33-3.2,2.87-.88,4.14-1.53c1.34-.68,3.06-.56,4.32-1.22,1.34-.7,2.59-1.48,3.84-2.15,1.34-.72,2.12-2.35,3.35-3.03,1.35-.75,2.52-1.63,3.72-2.32,1.36-.78,2.69-1.39,3.86-2.08,1.39-.82,3.4-.32,4.52-1,1.5-.91,2.38-2.29,3.37-2.9,1.29-.81,2.49-1.75,3.74-2.56s3.14-.77,4.39-1.59,1.62-3.05,2.85-3.89,3.36-.49,4.59-1.34,1.69-2.88,2.91-3.76,2.9-1.19,4.1-2.08,1.75-2.74,2.93-3.64,2.79-1.36,3.96-2.27,2.7-1.5,3.86-2.42,2.1-2.26,3.25-3.2,2.97-1.21,4.1-2.16c1.19-1,1.83-2.57,2.95-3.53,1.18-1.02,1.97-2.35,3.07-3.32.34-.42,1.33-1.52,2.21-3.37.55-1.16,2.06-2.23,2.3-3.73.21-1.33-.02-2.93-.37-4.39-.32-1.33-1.86-2.1-2.69-3.27-.78-1.1-1.34-2.29-2.49-3.18-1.07-.82-2.02-1.94-3.35-2.52-1.24-.54-2.81.06-4.23-.22-1.33-.26-2.55-2.07-4-2.07-1.35,0-3.13.08-4.55.34-1.14.9-2.24,2.28-3.47,3.24-1.15.9-2.63,1.43-3.87,2.37-1.17.89-1.21,3.35-2.45,4.27s-3.27.58-4.52,1.48-1.64,2.84-2.89,3.72-2.79,1.23-4.05,2.1-2.77,1.24-4.05,2.09-2.32,1.9-3.6,2.74-2.88,1.05-4.17,1.88-1.66,2.99-2.95,3.8-2.67,1.39-3.98,2.19-3.08.7-4.39,1.48c-1.29.77-2.24,2.1-3.53,2.84s-3.18.47-4.47,1.2-2.24,2.13-3.54,2.84-2.63,1.44-3.94,2.14-2.33,2.02-3.65,2.7-3.39-.03-4.71.63-2.22,2.28-3.54,2.93-2.51,1.72-3.84,2.36-2.98.74-4.32,1.36-2.67,1.4-4.01,2-3.13.36-4.47.95-2.23,2.43-3.58,3-2.61,1.6-3.96,2.16-2.91.86-4.27,1.4-2.81,1.13-4.17,1.66c-1.43.55-3.11.33-4.47.83-1.44.53-2.85,1.03-4.21,1.52-1.46.52-2.84,1.09-4.2,1.56-1.47.51-3.01.62-4.36,1.07-1.5.49-2.69,1.67-4.02,2.09-1.54.48-3.07.6-4.38.99-1.6.48-2.82,1.64-4.07,2-1.48.42-3.23-.16-4.68.24s-2.75,1.56-4.22,1.94-3.13.14-4.59.5-2.95.83-4.42,1.17-3.01.59-4.48.91-2.87,1.26-4.34,1.57-3.06.38-4.54.67-3.23-.58-4.71-.31-2.82,1.63-4.3,1.89-3.17-.37-4.65-.13-2.78,2.13-4.26,2.35-3.26-1.08-4.74-.88-3.05.37-4.53.55-3.06.26-4.54.43-2.95,1.38-4.43,1.53c-1.56.15-3.05.7-4.52.82-1.57.13-3.18-.94-4.65-.83-1.58.11-3.06.84-4.51.93-1.6.09-3.11.39-4.55.45-1.62.07-3.18-.69-4.59-.64-1.67.05-3.18.35-4.54.38-1.5.03-2.99-.05-4.48-.05s-2.99.07-4.48.06-2.99-.05-4.47-.08-3.01.6-4.49.56-2.99-.43-4.46-.5-3.01.09-4.48,0-2.99-.21-4.47-.32-3-.16-4.47-.28-2.9-1.28-4.37-1.41-2.95-.58-4.42-.73-3.12.92-4.58.75-2.93-.78-4.4-.97-3.06.13-4.51-.07-2.79-1.68-4.24-1.9-3.16.71-4.61.47-2.81-1.37-4.25-1.63-3-.34-4.43-.61-3.13.22-4.55-.07-2.92-.84-4.33-1.15c-1.5-.33-2.92-.83-4.33-1.16-1.5-.35-3.15.08-4.55-.27-1.51-.38-2.82-1.29-4.2-1.65-1.52-.4-2.94-.87-4.3-1.25-1.54-.43-3.06-.56-4.39-.95-1.58-.47-3.08-.69-4.35-1.09-1.7-.53-2.63-2.5-3.77-2.88-1.4-.47-2.93-.61-4.36-1.09s-3.2.2-4.63-.29-2.66-1.41-4.09-1.91-2.98-.52-4.4-1.04-2.37-2.16-3.78-2.7-3.18-.05-4.58-.62-2.3-2.22-3.7-2.81-3.15-.22-4.53-.83-2.49-1.73-3.86-2.37-2.73-1.2-4.09-1.87-2.86-.95-4.2-1.65-2.36-1.9-3.69-2.63-2.63-1.39-3.94-2.15-2.72-1.26-4.02-2.05-2.37-1.83-3.65-2.65c-1.3-.82-2.09-2.39-3.34-3.18s-3.01-.94-4.26-1.74-2.33-2.02-3.57-2.81-2.66-1.5-3.9-2.29-3.04-.9-4.28-1.69c-1.3-.83-1.77-2.9-3.01-3.69-1.31-.83-3.38-.39-4.61-1.18-1.31-.84-2.68-1.5-3.91-2.29-1.31-.84-2.71-1.46-3.93-2.25-1.31-.85-2.47-1.84-3.69-2.63-1.32-.86-1.7-3.03-2.9-3.82-1.32-.87-3.38-.51-4.56-1.3-1.33-.89-2.32-2.12-3.48-2.92-1.34-.92-2.24-2.24-3.37-3.06-1.35-.98-2.41-2.04-3.47-2.87-1.39-1.08-2.52-1.97-3.45-2.83-.35-.32-1.25-1.62-2.89-2.79-.92-.66-2.57-.62-3.85-1.32-1.07-.58-2.35-.9-3.64-1.41Z"/>
      </g>
      <g id="f" data-name="Cercio Destra">
        <path class="q" d="M782.74,332.3c-.82-1.15-1.8-2.23-3.07-3.26-1.16-.93-1.94-2.68-3.35-3.36s-3.23-.1-4.73-.39-3.07-1.67-4.6-1.46-3.02,1.16-4.41,1.96c-1.34.77-2.89,1.66-3.88,2.86s-.97,3.07-1.55,4.53-.61,2.88-.77,4.46-1.2,3.16-.95,4.73c.58,1.33.89,2.96,1.53,4.47.58,1.35,2.51,2.22,3.13,3.71.57,1.37.23,3.19.84,4.67.57,1.39,2.3,2.35,2.9,3.83.56,1.4-.2,3.36.38,4.84s2.15,2.45,2.72,3.92.72,3.01,1.27,4.49,1.06,2.88,1.6,4.36c.53,1.44.41,3.13.93,4.57s1.05,2.88,1.58,4.32,1.47,2.73,1.99,4.17.68,3.01,1.2,4.46,1.13,2.85,1.64,4.3,1.14,2.85,1.64,4.3,1.09,2.86,1.58,4.32,1.35,2.78,1.82,4.24,1.29,2.81,1.74,4.28.85,2.95,1.28,4.43.85,2.95,1.27,4.43-.56,3.32-.16,4.81,2.18,2.59,2.56,4.08-.19,3.19.17,4.7,1.15,2.87,1.49,4.38.56,3,.88,4.52,1.21,2.88,1.5,4.4,1.03,2.93,1.3,4.46c.27,1.51-.96,3.27-.72,4.76s.26,3.05.48,4.54,2.12,2.8,2.32,4.3-.72,3.18-.55,4.68.61,3.01.76,4.52.11,3.06.24,4.57.5,3.03.6,4.54-.18,3.08-.09,4.59.88,3.02.94,4.53.44,3.05.49,4.56-1.14,3.09-1.12,4.6,1.22,3.05,1.22,4.56-.34,3.07-.36,4.58-.8,3.05-.83,4.56.16,3.07.11,4.57.08,3.07.01,4.57.14,3.08.06,4.58-.05,3.07-.14,4.57-1.2,2.99-1.31,4.49,1.01,3.15.89,4.65-.48,3.04-.61,4.54-.12,3.07-.25,4.56-.79,3.01-.93,4.5c-.14,1.55.31,3.15.16,4.66s-.63,3.06-.79,4.57-1.66,2.94-1.84,4.44-.49,3.06-.68,4.56.08,3.14-.12,4.64-.29,3.1-.5,4.59c-.23,1.56-1.05,2.99-1.28,4.47-.24,1.57.52,3.25.27,4.72-.26,1.57.09,3.2-.16,4.66-.27,1.58-1.37,2.96-1.63,4.41-.04,1.54.55,2.98.73,4.39.19,1.52.3,2.96.71,4.32.44,1.47.81,2.9,1.46,4.16.7,1.37.92,3.08,1.8,4.19.96,1.22,2.08,2.46,3.17,3.33,1.23.98,3.2.67,4.49,1.17,1.49.57,2.73.44,4.1.29,1.43-.15,3.21.4,4.57-.53,1.17-.8,2.44-1.93,3.45-3.22.89-1.14,1.07-2.88,1.77-4.33.64-1.32,1.24-2.69,1.67-4.23.4-1.42.72-2.91.9-4.48.41-1.44.17-3.22.62-4.95.39-1.49,2.49-2.66,2.9-4.35.37-1.52.8-3.13,1.18-4.81.35-1.55-.58-3.44-.23-5.1.32-1.56.16-3.26.47-4.93.26-1.39,2.34-2.5,2.59-3.99.23-1.39-.25-2.95-.03-4.45.2-1.39.42-2.84.61-4.34.18-1.39.31-2.85.47-4.36.15-1.4-.52-2.93-.39-4.44.12-1.4,1.64-2.75,1.75-4.26.1-1.41-.04-2.89.05-4.4.08-1.41.54-2.86.61-4.36.06-1.42-1.15-2.93-1.09-4.43.05-1.42.52-2.87.56-4.37.03-1.42.75-2.87.77-4.37s-1.4-2.9-1.38-4.4,1.23-2.88,1.23-4.38-.23-2.89-.24-4.39-.78-2.89-.8-4.38c-.02-1.57-.28-3.11-.3-4.62s.66-3.12.64-4.63-.73-3.1-.76-4.61,1.16-3.14,1.13-4.64-.92-3.1-.95-4.6-.36-3.1-.4-4.61-.51-3.09-.56-4.6.22-3.11.15-4.62.49-3.13.4-4.64-.04-3.1-.14-4.62.29-3.13.16-4.65-1.74-2.94-1.89-4.46.92-3.19.74-4.72-.26-3.07-.47-4.6-.67-3-.91-4.53-.89-2.95-1.16-4.49-.2-3.07-.49-4.61c-.12-.64-1.16-1.96-1.61-4.12-.25-1.21-.48-2.65-.84-4.27-.29-1.3.21-2.9-.14-4.43-.31-1.33-1.77-2.48-2.13-3.97-.33-1.35-.52-2.8-.9-4.26-.35-1.36.13-2.99-.26-4.43-.36-1.37-1.73-2.5-2.13-3.93s-.82-2.75-1.23-4.17.35-3.1-.08-4.52-1.63-2.51-2.07-3.92-.72-2.8-1.18-4.2-.69-2.82-1.17-4.2-1.25-2.63-1.74-4.01.28-3.2-.23-4.57c-.59-1.59-2.15-2.66-2.68-4.02-.62-1.57-.56-3.27-1.12-4.63-.63-1.52-2.44-2.43-3.04-3.82s-.53-3.16-1.16-4.62c-.59-1.38-1.34-2.74-1.97-4.27-.56-1.35-.31-3.12-.92-4.69-.53-1.36-1.67-2.58-2.26-4.17-.29-.77-.3-2.33-1.18-4.3-.5-1.12-2.59-1.77-3.3-3.33-.54-1.2.07-3.08-.61-4.56-.56-1.23-2.14-2.12-2.8-3.55-.58-1.25-.07-3.1-.72-4.52-.38-.82-1.65-1.08-2.33-2.03Z"/>
      </g>
    </g>
    <text class="k" transform="translate(139.31 758.89) scale(.93 1)"><tspan x="0" y="0">SHU</tspan></text>
    <text class="n" transform="translate(327.37 487.49)"><tspan x="0" y="0">BY</tspan></text>
    <text class="l" transform="translate(166.09 373.27) rotate(-35.07)"><tspan x="0" y="0">M</tspan></text>
    <text class="l" transform="translate(332.47 255.98) rotate(-6.11)"><tspan x="0" y="0">A</tspan></text>
    <text class="l" transform="translate(472.91 235.76) rotate(22.1)"><tspan x="0" y="0">D</tspan></text>
    <text class="l" transform="translate(606.74 287.66) rotate(44.49)"><tspan x="0" y="0">E</tspan></text>
    <g>
      <g id="g" data-name="Cercio Sinistra">
        <path class="p" d="M107.39,340.15c0-.25.59-2.16.06-4.59-.29-1.36-.69-2.93-1.42-4.42-.65-1.32-1.64-2.57-2.79-3.71-1.03-1.02-2.29-1.94-3.83-2.59-1.45-.62-3.07.1-4.63.01s-2.92-.37-4.45.06-3.42,0-4.75.88-2.59,2.1-3.62,3.33c-.63,1.29-1.01,2.83-1.65,4.19s-1.9,2.33-2.53,3.7-.66,2.91-1.28,4.28-1.4,2.58-2,3.95-1.03,2.74-1.61,4.11-.38,3.01-.95,4.39-1.94,2.37-2.49,3.76-.05,3.12-.59,4.51-1.72,2.47-2.24,3.87-.4,2.97-.91,4.37-2.12,2.35-2.62,3.75-.77,2.84-1.25,4.25.17,3.15-.3,4.56-2.45,2.29-2.9,3.71.34,3.19-.1,4.61c-.46,1.49-1.45,2.8-1.89,4.27s-.74,3.02-1.16,4.49-1.38,2.85-1.78,4.32-.99,2.96-1.38,4.43.58,3.36.21,4.83-.63,3.04-.98,4.52-2.19,2.69-2.53,4.16.45,3.3.13,4.77c-.34,1.55-1.73,2.83-2.04,4.3-.32,1.56-.38,3.12-.67,4.59-.3,1.57.07,3.21-.2,4.67-.29,1.58-1.23,2.99-1.48,4.44-.27,1.61-.4,3.15-.62,4.59-.26,1.64-.18,3.22-.38,4.62-.25,1.72.44,3.37.27,4.7-.26,2.01-.6,3.53-.72,4.55-.14,1.23-1.01,2.66-1.18,4.42-.13,1.35.55,2.93.41,4.57-.12,1.4-1.6,2.8-1.72,4.4-.1,1.43-.5,2.92-.6,4.5-.09,1.44-.07,2.97-.14,4.53-.07,1.46.11,2.98.05,4.54-.05,1.46-.09,2.98-.12,4.53s1.18,3,1.16,4.54,0,2.97,0,4.51-1.65,3-1.64,4.53,1.28,2.98,1.31,4.51-.83,3.02-.78,4.55,1.22,2.95,1.29,4.48.53,2.97.61,4.49-1.15,3.07-1.06,4.59.95,2.94,1.07,4.46-.87,3.09-.74,4.61,1.08,2.92,1.23,4.44c.15,1.52-.11,3.08.06,4.59s-.11,3.09.07,4.6,1.73,2.86,1.93,4.36-.42,3.14-.2,4.64-.27,3.13-.03,4.63,1.28,2.89,1.53,4.39.26,3.06.53,4.55,1.7,2.79,1.99,4.28-1.06,3.32-.76,4.81.63,3,.95,4.48,1.21,2.87,1.54,4.35.3,3.07.66,4.55,2.31,2.58,2.68,4.05.24,3.08.62,4.55.02,3.16.43,4.62.43,3.06.85,4.51,1.99,2.6,2.42,4.05,1.41,2.76,1.86,4.2-.78,3.46-.31,4.9,2.23,2.48,2.72,3.92.99,2.88,1.49,4.31,1.03,2.87,1.55,4.29,1.48,2.7,2.02,4.12,0,3.26.56,4.67.59,3.06,1.15,4.46,2.38,2.33,2.95,3.73.08,3.28.67,4.67,2.5,2.25,3.11,3.64.37,3.17.99,4.55.9,3,1.53,4.37c.92,1.27,2.04,2.56,3.19,3.48,1.21.97,2.92,1.2,4.29,1.77s2.81,1.59,4.28,1.75,3.05-.72,4.5-1.03,2.74-.94,4.01-1.76c1.15-.75,2.02-1.63,2.87-2.71s2.56-1.71,3.06-3.01.19-2.85.34-4.24-.76-2.49-.96-3.87c-.57-1.37-.26-3.06-.87-4.55-.56-1.39-1.84-2.55-2.42-4.04-.55-1.4.04-3.28-.52-4.77-.53-1.41-1.29-2.78-1.84-4.27s-.68-3.01-1.21-4.5-1.59-2.69-2.1-4.18-.86-2.95-1.36-4.44-1.42-2.77-1.9-4.27-1.56-2.74-2.02-4.25.75-3.45.31-4.95c-.41-1.38-1.23-2.73-1.68-4.26-.41-1.4-.84-2.86-1.28-4.38-.4-1.41-1.14-2.79-1.56-4.31-.39-1.42-.91-2.86-1.31-4.38-.38-1.43-.07-3.08-.46-4.6s-1.73-2.67-2.1-4.18-.74-2.93-1.09-4.44-.71-2.94-1.04-4.45-.11-3.07-.42-4.58-.73-2.93-1.03-4.45.15-3.1-.13-4.62-1.8-2.75-2.06-4.27.21-3.1-.03-4.63-1.51-2.84-1.73-4.36,1.43-3.25,1.22-4.78-1.43-2.87-1.61-4.4-.62-2.98-.79-4.51.31-3.08.16-4.61-.32-3.01-.45-4.55.49-3.07.38-4.6-.2-3.02-.29-4.55-1.1-2.98-1.17-4.51.35-3.05.3-4.58.26-3.04.23-4.58-.98-3.02-1-4.56c-.01-1.27.15-2.77.15-4.48,0-1.36.25-2.86.26-4.48.01-1.4-.42-2.91-.38-4.49.03-1.42.12-2.92.18-4.48.05-1.44.56-2.91.63-4.46.07-1.45-.63-2.98-.54-4.52.08-1.45,1.18-2.88,1.28-4.41s-1.08-3.05-.95-4.57,1.12-2.88,1.27-4.4-.52-3.03-.36-4.54.91-2.89,1.09-4.39.72-2.9.92-4.41.35-2.95.57-4.45.61-2.91.85-4.4.91-2.86,1.18-4.34.37-2.95.65-4.43-1.03-3.25-.73-4.72.85-2.88,1.18-4.35,1.78-2.66,2.13-4.12.55-2.94.92-4.4c.36-1.42.17-3.01.56-4.46s.49-2.94.9-4.38,2.22-2.44,2.64-3.88-.38-3.21.06-4.64,2.14-2.45,2.59-3.87-.15-3.18.31-4.59.38-3.02.85-4.43,2.15-2.43,2.63-3.83.97-2.83,1.45-4.22.19-3.11.68-4.49.65-2.96,1.15-4.33,2.4-2.33,2.91-3.69c.53-1.44,1.22-2.77,1.73-4.12.54-1.45.85-2.92,1.36-4.25.56-1.47-.35-3.41.15-4.72.58-1.5,1.7-2.67,2.19-3.94.62-1.59.65-3.19,1.12-4.36,1-2.52,2.09-3.81,2.15-3.95,0-.02.74.06.89-5.29Z"/>
      </g>
      <g id="h" data-name="Cercio Fondo">
        <path class="p" d="M180.55,786.09c-1.75-.69-3.25-1.65-4.79-1.96-1.92-.38-3.69-1.3-5.17-1.3-2.61,0-4.47,1.18-5.17,1.34-1.46.35-2.95.65-4.26,1.22s-2.47,1.55-3.38,2.84c-.84,1.2-.64,2.62-.78,3.94-.15,1.44-1.06,2.92-.78,4.17.48,2.11,1.9,3.46,2.01,3.67.95,1.04,2.24,1.9,3.36,3.08.99,1.05,1.3,2.85,2.42,3.99,1.02,1.04,2.19,2.03,3.32,3.14,1.05,1.03,2.22,2.01,3.36,3.1,1.07,1.02,2.52,1.7,3.67,2.76s1.9,2.39,3.06,3.42c1.13,1,2.55,1.72,3.75,2.74s2.79,1.41,4.01,2.4,1.52,2.99,2.76,3.96,2.2,2.17,3.46,3.12,2.71,1.49,3.99,2.41,2.87,1.22,4.17,2.11,2.29,2.06,3.61,2.93,2.93,1.08,4.26,1.93,2.09,2.41,3.43,3.23,3.14.71,4.49,1.51,2.59,1.61,3.95,2.4,2.34,2.06,3.71,2.84,2.31,2.15,3.69,2.9,3.34.24,4.73.98,2.28,2.24,3.67,2.96,3.23.41,4.63,1.12c1.35.69,2.71,1.38,4.07,2.07s2.08,2.63,3.44,3.31,2.8,1.21,4.16,1.89,3.16.47,4.53,1.15,2.29,2.25,3.66,2.91,2.56,1.69,3.95,2.35,2.88,1.02,4.27,1.66,2.75,1.3,4.15,1.93,3.05.6,4.46,1.22,3.04.6,4.45,1.2,2.85,1.02,4.27,1.6,2.83,1.05,4.26,1.61,2.17,2.79,3.61,3.33,2.96.77,4.41,1.29,3.02.58,4.47,1.08,3.07.37,4.53.86,2.97.62,4.44,1.09,2.39,2.53,3.86,2.98,3.29-.42,4.77,0,2.53,2.21,4.01,2.62,2.96.72,4.45,1.11,3.28-.59,4.78-.22c1.36.34,2.82.74,4.43,1.12,1.4.33,2.78,1.09,4.36,1.43,1.42.31,2.82,1.05,4.39,1.37,1.44.3,3.14-.45,4.69-.15,1.45.28,2.68,1.99,4.23,2.27,1.46.26,3.11-.29,4.65-.04s2.97.51,4.51.74,2.91.98,4.45,1.2,3.05,0,4.59.2c1.49.19,3,.38,4.54.56s2.96.79,4.5.95,3.07-.23,4.61-.09,2.99.64,4.53.76,3.11-.97,4.64-.87c1.5.1,3.01.34,4.54.43s2.98.98,4.52,1.05c1.51.07,3.04-.02,4.58.03s3.01,1.16,4.55,1.19,3.06-1.83,4.6-1.82c1.51.01,3.03,1.07,4.57,1.07s3.04-.31,4.57-.33,3.03-.36,4.57-.4,3.04.19,4.58.13c1.52-.06,3.08.62,4.62.54s3.04-.32,4.57-.42c1.28-.08,2.71-1.06,4.4-1.19,1.36-.1,2.88.16,4.48.02,1.39-.13,2.8-.99,4.38-1.15,1.41-.15,2.92-.03,4.47-.21,1.42-.16,2.86-.63,4.39-.83,1.43-.18,2.88-.5,4.4-.71,1.43-.2,2.97.08,4.49-.15s2.99.05,4.49-.19,2.77-1.26,4.27-1.52c1.44-.25,3.05.3,4.54.02,1.44-.27,2.68-1.68,4.17-1.97s3.02.06,4.5-.25c1.44-.3,3.04.07,4.52-.25s2.98-.29,4.45-.63,2.65-1.69,4.11-2.05,3.02-.14,4.48-.51,2.92-.55,4.38-.94,2.5-2.09,3.95-2.49,2.87-.72,4.32-1.14,3.26.54,4.7.1,2.63-1.57,4.06-2.02,3.06-.22,4.49-.69,2.41-2.17,3.84-2.65c1.4-.48,3.24.37,4.61-.11s2.72-1.16,4.08-1.65,2.3-2.26,3.66-2.77,2.85-.77,4.2-1.3,2.95-.53,4.3-1.08,2.88-.77,4.21-1.33,2.71-1.19,4.04-1.76,2.66-1.3,3.98-1.88,2.95-.65,4.26-1.25,2.24-2.2,3.54-2.81,2.89-.82,4.18-1.44,2.74-1.15,4.02-1.79,2.5-1.63,3.77-2.28c1.34-.68,2.64-1.36,3.9-2.02,1.34-.7,2.95-.81,4.19-1.48,1.34-.72,2.17-2.26,3.4-2.94,1.35-.75,3.1-.62,4.3-1.31,1.36-.78,1.91-2.74,3.09-3.43,1.39-.82,2.84-1.24,3.95-1.92,1.5-.91,3.37-.68,4.35-1.3,1.29-.81,2.09-2.39,3.35-3.2s3-.98,4.25-1.8,2.3-2.04,3.54-2.88,2.08-2.34,3.31-3.2,2.59-1.6,3.81-2.48,2.6-1.61,3.8-2.5,2.68-1.51,3.86-2.41,2.47-1.8,3.64-2.71,1.49-3.04,2.65-3.96,2.92-1.24,4.07-2.18,1.77-2.65,2.9-3.6c1.19-1,2.81-1.41,3.92-2.37,1.18-1.02,2.05-2.27,3.14-3.24.34-.42,2.01-1.2,2.89-3.05.55-1.16,1.41-2.55,1.64-4.05.21-1.33.34-3.02-.02-4.48-.32-1.33-1.01-2.87-1.84-4.05-.78-1.1-2.44-1.6-3.59-2.49-1.07-.82-2.37-1.27-3.7-1.85-1.24-.54-2.31-1.91-3.73-2.19-1.33-.26-2.84-.57-4.29-.56-1.35,0-2.72.95-4.14,1.22-1.14.9-2.86,1.12-4.09,2.07-1.15.9-2.18,2.01-3.42,2.95-1.17.89-2.61,1.46-3.85,2.38s-1.41,3.12-2.65,4.02-2.28,1.95-3.54,2.83-3.34.43-4.6,1.31-1.81,2.64-3.09,3.5-2.89,1.06-4.16,1.9-2.28,1.99-3.56,2.82-2.34,1.92-3.63,2.73-2.81,1.16-4.12,1.95-2.76,1.23-4.07,2.01c-1.29.77-2.43,1.78-3.71,2.52s-2.62,1.47-3.91,2.19-3.02.73-4.32,1.44-2.67,1.36-3.97,2.06-2.53,1.62-3.84,2.3-2.4,1.89-3.72,2.56-2.43,1.87-3.76,2.52-3.25.19-4.58.83-2.64,1.44-3.98,2.06-2.26,2.28-3.6,2.89-2.78,1.16-4.13,1.75-2.76,1.22-4.11,1.79-3.07.48-4.42,1.03-2.4,2.12-3.76,2.66-2.77,1.22-4.13,1.74c-1.43.55-3.01.6-4.38,1.11-1.44.53-3.1.34-4.46.83-1.46.52-2.67,1.59-4.03,2.06-1.47.51-3.24-.06-4.59.38-1.5.49-2.75,1.45-4.09,1.88-1.54.48-2.62,2.06-3.93,2.46-1.6.48-3.23.25-4.48.6-1.48.42-3.06.4-4.52.8s-2.95.8-4.41,1.18-2.69,1.86-4.16,2.22-3.12.14-4.59.49-2.95.87-4.42,1.2-3.23-.42-4.7-.11-2.83,1.43-4.31,1.72-2.86,1.39-4.34,1.66-3.17-.26-4.65,0-2.95,1.02-4.43,1.26-3.19-.51-4.67-.29-2.93,1.26-4.41,1.46-3.21-.89-4.69-.71-2.94,1.31-4.42,1.47-3.17-.73-4.65-.59c-1.56.15-3.02.86-4.49.98-1.57.13-3.09.12-4.56.22-1.58.11-3.06.86-4.51.95-1.6.09-3.11.36-4.55.42-1.62.07-3.16-.15-4.58-.1-1.67.05-3.2-.47-4.56-.44-1.5.03-2.99-.23-4.47-.23s-2.99.23-4.47.22-2.98-.31-4.47-.34-2.98-.29-4.46-.34-3.06,1.7-4.54,1.64-2.98-.58-4.46-.67-3.03.27-4.5.17-2.98-.53-4.45-.65-2.93-.97-4.4-1.11-3.02.05-4.49-.1-2.88-1.2-4.35-1.37-2.99-.26-4.45-.45-3.04.05-4.5-.16-2.98-.42-4.43-.64-2.97-.45-4.42-.69-3-.32-4.44-.58-2.89-.94-4.32-1.22-2.92-.74-4.35-1.04-2.94-.65-4.36-.96c-1.5-.33-2.89-.92-4.3-1.25-1.5-.35-3.06-.21-4.46-.55-1.51-.38-2.95-.75-4.33-1.12-1.52-.4-3.01-.59-4.37-.97-1.54-.43-2.81-1.37-4.14-1.76-1.58-.47-3.11-.54-4.38-.94-1.7-.53-3.47.07-4.6-.31-1.4-.47-2.63-1.51-4.06-1.99s-2.51-1.83-3.95-2.32-3.03-.31-4.46-.81-2.76-1.1-4.18-1.62-3.01-.45-4.42-.99-2.37-2.1-3.77-2.67-2.72-1.18-4.11-1.77-2.9-.76-4.29-1.37-3.13-.32-4.5-.96-2.09-2.52-3.45-3.19-3.03-.59-4.37-1.29-2.41-1.8-3.74-2.53-2.98-.77-4.3-1.53-2.11-2.28-3.41-3.07-3.04-.75-4.32-1.57c-1.3-.82-1.96-2.59-3.21-3.38s-2.85-1.2-4.1-1.99-3.02-.93-4.26-1.73-2.16-2.29-3.4-3.08-2.94-1.06-4.18-1.85c-1.3-.83-2.18-2.26-3.42-3.05-1.31-.83-3.12-.8-4.35-1.59-1.31-.84-2.26-2.14-3.49-2.94-1.31-.84-2.68-1.5-3.9-2.3-1.31-.85-2.78-1.37-3.99-2.16-1.32-.86-1.88-2.76-3.08-3.55-1.32-.87-3.13-.88-4.32-1.67-1.33-.89-1.72-2.99-2.88-3.79-1.34-.92-3.57-.37-4.7-1.18-1.35-.98-1.46-3.33-2.53-4.15-1.39-1.08-2.77-1.67-3.7-2.52-.35-.32-1.43-1.34-3.07-2.51-.92-.66-2.69-.3-3.97-1-1.07-.58-2.02-1.48-3.31-1.99Z"/>
      </g>
      <g id="i" data-name="Cercio Destra">
        <path class="p" d="M766.11,325.45c-.82-1.15-1.11-2.87-2.39-3.9-1.16-.93-2.85-1.02-4.26-1.7s-2.49-1.97-3.99-2.26-3.02.12-4.54.33-3.29-.23-4.68.57c-1.34.77-1.53,2.87-2.52,4.07s-2.95,1.75-3.53,3.21-.64,3.1-.8,4.67-.76,3.33-.5,4.89c.58,1.33,1.17,2.88,1.82,4.39.58,1.35,1.41,2.68,2.03,4.17.57,1.37,1.04,2.85,1.65,4.33.57,1.39,1.2,2.79,1.79,4.27.56,1.4,2.78,2.18,3.36,3.66s-.72,3.56-.15,5.04,2.89,2.18,3.45,3.66-.06,3.3.49,4.78c.53,1.44,1.35,2.78,1.88,4.22s.7,3.01,1.22,4.45.88,2.94,1.4,4.39,1.44,2.74,1.95,4.19,1.15,2.84,1.66,4.29.44,3.09.94,4.54,1.85,2.61,2.33,4.07,1.33,2.79,1.8,4.26.29,3.12.74,4.6-.1,3.22.34,4.7,2.34,2.51,2.76,3.99-.33,3.26.07,4.75,1.54,2.75,1.92,4.25,1.52,2.78,1.88,4.29-1.14,3.4-.8,4.91,1.97,2.7,2.28,4.21.37,3.05.66,4.57-.13,3.13.14,4.66c.27,1.51,1.64,2.83,1.88,4.32s-.88,3.23-.66,4.73.51,3.01.7,4.51.86,2.97,1.04,4.47,1.24,2.95,1.4,4.45.14,3.07.27,4.58.27,3.06.38,4.57.6,3.04.69,4.55-.17,3.08-.1,4.59.43,3.06.47,4.57-1.57,3.1-1.54,4.61-.11,3.05-.11,4.56.85,3.06.83,4.57.76,3.08.73,4.59-.51,3.06-.56,4.56-.85,3.03-.92,4.54.18,3.07.09,4.58.24,3.08.14,4.59-1.42,2.97-1.53,4.48,1.14,3.16,1.02,4.66.01,3.08-.11,4.58-1.71,2.93-1.84,4.42.99,3.16.85,4.66c-.14,1.55-.7,3.05-.85,4.56s.14,3.14-.02,4.64-.38,3.09-.56,4.6-1.14,2.99-1.33,4.49-.81,3.03-1.01,4.52-.62,3.05-.83,4.54c-.23,1.56.08,3.16-.15,4.64-.24,1.57.16,3.19-.08,4.67-.26,1.57-.31,3.13-.57,4.59-.27,1.58-1.83,2.92-2.09,4.36-.04,1.54,1.57,2.96,1.75,4.37.19,1.52-.47,3.1-.06,4.46.44,1.47,1.91,2.39,2.56,3.65.7,1.37.7,3.01,1.58,4.12.96,1.22,2.07,2.18,3.16,3.05,1.23.98,2.62,1.35,3.9,1.85,1.49.57,2.86,2.13,4.22,1.98,1.43-.15,2.64-1.75,4-2.69,1.17-.8,2.51-1.6,3.52-2.89.89-1.14.9-2.86,1.6-4.31.64-1.32,1.87-2.42,2.29-3.95.4-1.42.37-2.99.54-4.56.41-1.44.71-3.09,1.17-4.82.39-1.49,1.32-2.95,1.73-4.64.37-1.52,1.3-3,1.67-4.68.35-1.55.69-3.17,1.03-4.84.32-1.56.86-3.15,1.17-4.81.26-1.39.68-2.81.93-4.3.23-1.39-.27-2.95-.05-4.45.2-1.39-.36-2.93-.17-4.44.18-1.39.49-2.82.65-4.33.15-1.4.58-2.82.71-4.33.12-1.4.45-2.84.56-4.35.1-1.41-.36-2.9-.27-4.41.08-1.41,1.42-2.8,1.49-4.31.06-1.42-.66-2.91-.6-4.41.05-1.42.15-2.88.19-4.38.03-1.42-.38-2.89-.36-4.39s-.42-2.88-.41-4.38,1.01-2.88,1.01-4.38.11-2.89.1-4.39.58-2.9.56-4.4c-.02-1.57-1.88-3.09-1.9-4.6s.35-3.12.33-4.62.77-3.13.75-4.63-.77-3.1-.8-4.61.06-3.11.02-4.62.26-3.12.22-4.63-.5-3.1-.55-4.6.95-3.15.88-4.66-1.23-3.05-1.31-4.56.88-3.16.77-4.67.13-3.12,0-4.64-2.1-2.9-2.26-4.43,1.13-3.21.95-4.74-.19-3.08-.4-4.61-1.48-2.88-1.71-4.41-.92-2.94-1.18-4.48,1-3.28.71-4.82c-.12-.64-1.36-1.93-1.81-4.09-.25-1.21.06-2.77-.3-4.39-.29-1.3-.22-2.81-.58-4.34-.31-1.33-.64-2.76-1-4.25-.33-1.35-2.32-2.35-2.7-3.82-.35-1.36-.66-2.77-1.04-4.22-.36-1.37-.85-2.73-1.25-4.17s-.81-2.75-1.22-4.17-.17-2.95-.6-4.36-1.02-2.7-1.46-4.1.19-3.1-.27-4.5-1.57-2.53-2.05-3.91-.01-3.07-.5-4.45-1.09-2.7-1.6-4.07c-.59-1.59-1.3-3-1.83-4.35-.62-1.57-2.43-2.51-2.99-3.87-.63-1.52-1.15-2.97-1.75-4.36s-.96-2.97-1.59-4.43c-.59-1.38-1.44-2.7-2.07-4.24-.56-1.35.04-3.26-.58-4.83-.53-1.36-2.29-2.35-2.88-3.94-.29-.77.11-2.47-.77-4.43-.5-1.12-1.93-2.07-2.64-3.63-.54-1.2-.61-2.77-1.28-4.25-.56-1.23-1.8-2.28-2.45-3.71-.58-1.25-1.42-2.48-2.07-3.9-.38-.82-.77-1.39-1.45-2.34Z"/>
      </g>
    </g>
    <text class="m" transform="translate(123.08 751.76) scale(.93 1)"><tspan x="0" y="0">SHU</tspan></text>
    <text class="j" transform="translate(311.15 480.37)"><tspan x="0" y="0">BY</tspan></text>
    <text class="o" transform="translate(149.87 366.15) rotate(-35.07)"><tspan x="0" y="0">M</tspan></text>
    <text class="o" transform="translate(316.24 248.85) rotate(-6.11)"><tspan x="0" y="0">A</tspan></text>
    <text class="o" transform="translate(456.68 228.64) rotate(22.1)"><tspan x="0" y="0">D</tspan></text>
    <text class="o" transform="translate(590.51 280.53) rotate(44.49)"><tspan x="0" y="0">E</tspan></text>
  </g>
</svg>