<?xml version="1.0" encoding="UTF-8"?>
<svg id="b" data-name="Livello 2" xmlns="http://www.w3.org/2000/svg" viewBox="0 0 870.84 915.19">
  <defs>
    <style>
      .j, .k, .l, .m, .n, .o {
        font-family: ChelseaMarket-Regular, 'Chelsea Market';
      }

      .j, .p, .m, .o {
        fill: #499133;
      }

      .j, .n {
        font-size: 196.08px;
      }

      .k, .l, .q, .n {
        fill: #284a2f;
      }

      .k, .m {
        font-size: 343.52px;
        letter-spacing: .07em;
      }

      .l, .o {
        font-size: 230px;
      }
    </style>
  </defs>
  <g id="c" data-name="Livello 2">
    <g>
      <g id="d" data-name="Cercio Sinistra">
        <path class="p" d="M123.41,347.27c0-.25.61-2.11.09-4.54-.29-1.36-.32-3.07-1.05-4.55-.65-1.32-2.52-1.78-3.67-2.91-1.03-1.02-1.3-3.33-2.84-3.99-1.45-.62-3.27-1.05-4.83-1.13s-3.17.93-4.69,1.36-2.94,1.05-4.27,1.92-2.04,2.17-3.07,3.4c-.63,1.29-2.14,2.13-2.78,3.49s-1.02,2.74-1.65,4.1-1.61,2.48-2.22,3.84-1.04,2.74-1.64,4.11-1.49,2.54-2.07,3.92-.03,3.16-.6,4.54-1.55,2.53-2.11,3.91-.63,2.89-1.17,4.28-.68,2.87-1.21,4.26-1.65,2.5-2.16,3.9-.94,2.77-1.44,4.17-.57,2.9-1.05,4.31-2.26,2.33-2.73,3.74-.42,2.96-.87,4.37-.02,3.07-.45,4.49c-.46,1.49-.99,2.94-1.43,4.4s-.99,2.94-1.41,4.41-.74,3.02-1.14,4.49-.65,3.04-1.03,4.51-1.71,2.77-2.08,4.25.06,3.22-.29,4.69-.88,2.99-1.22,4.46-1.67,2.83-1.99,4.3c-.34,1.55-.68,3.06-.98,4.53-.32,1.56.52,3.3.23,4.76-.3,1.57-1.27,2.96-1.54,4.42-.29,1.58-.6,3.1-.85,4.55-.27,1.61-.27,3.17-.5,4.61-.26,1.64.18,3.27-.02,4.67-.25,1.72-1.59,3.1-1.76,4.42-.26,2.01.24,3.64.12,4.67-.14,1.23-.05,2.76-.23,4.52-.13,1.35-1.19,2.77-1.33,4.42-.12,1.4.12,2.94,0,4.54-.1,1.43.46,2.98.37,4.56-.09,1.44-.58,2.93-.65,4.49-.07,1.46.02,2.97-.03,4.52-.05,1.46-1.25,2.94-1.29,4.49s.84,3,.82,4.54-.82,2.98-.82,4.52.33,2.99.35,4.53-.21,3-.18,4.53.22,3,.27,4.53,0,3.01.06,4.53,1.22,2.94,1.3,4.47.56,2.97.65,4.49-.24,3.02-.12,4.54.13,3,.26,4.52-.54,3.07-.39,4.59c.15,1.52.74,3,.9,4.51s-.28,3.11-.09,4.62.91,2.97,1.11,4.47.78,2.97,1,4.48.75,2.97.98,4.47.03,3.09.28,4.58.99,2.92,1.26,4.42.79,2.95,1.07,4.44.62,2.98.93,4.47.5,3.01.82,4.49.08,3.11.41,4.59.88,2.93,1.23,4.4.19,3.1.56,4.57.42,3.05.8,4.52.66,2.99,1.07,4.45.88,2.93,1.3,4.39,1.19,2.84,1.63,4.29,1.1,2.86,1.55,4.31.98,2.9,1.45,4.34.22,3.15.7,4.59,2.47,2.38,2.97,3.81-.32,3.36.2,4.78,1.31,2.78,1.84,4.2,1.05,2.87,1.6,4.28.7,3.02,1.26,4.42,2.52,2.28,3.09,3.68.97,2.9,1.56,4.29.15,3.27.76,4.65,2.3,2.32,2.92,3.7,1.16,2.78,1.8,4.15c.92,1.27,1.17,3.15,2.31,4.07,1.21.97,3.38.24,4.74.81s2.59,1.25,4.06,1.41,2.91.38,4.37.07,3.48.23,4.75-.6c1.15-.75,2.06-2.15,2.9-3.23s1.3-2.5,1.81-3.8.78-2.65.93-4.04-.12-2.7-.31-4.09c-.57-1.37-1.46-2.67-2.07-4.16-.56-1.39.03-3.29-.55-4.78-.55-1.4-2.43-2.33-3-3.82-.53-1.41-1.03-2.89-1.57-4.37s-.49-3.08-1.02-4.57-1.47-2.74-1.98-4.23-.22-3.17-.71-4.66-1.17-2.85-1.65-4.35-.51-3.06-.97-4.56-1.32-2.82-1.76-4.32c-.41-1.38-.85-2.84-1.3-4.38-.41-1.4-1.35-2.72-1.79-4.24-.4-1.41.46-3.24.04-4.75-.39-1.42-2.19-2.51-2.59-4.03-.38-1.43-.1-3.08-.49-4.6s-.95-2.86-1.32-4.38-1.55-2.74-1.9-4.25,1.17-3.35.83-4.87-1.88-2.68-2.19-4.2-.33-3.02-.63-4.53-1.24-2.85-1.51-4.37.36-3.14.1-4.66-1.64-2.8-1.88-4.33.52-3.14.3-4.67-1.45-2.86-1.65-4.39,1.25-3.21,1.06-4.74-.19-3.02-.36-4.55-.24-3.01-.38-4.54-.95-2.95-1.08-4.49-.49-3-.6-4.53-.34-3.02-.43-4.55.63-3.07.56-4.61-.99-2.99-1.04-4.53.71-3.06.67-4.59-.75-3.03-.76-4.56c-.01-1.27-.9-2.77-.9-4.48,0-1.36,1.04-2.86,1.06-4.48.01-1.4-.51-2.91-.48-4.5.03-1.42.71-2.9.76-4.46.05-1.44-.8-2.97-.73-4.52.07-1.45,1.21-2.89,1.3-4.43.08-1.45.6-2.91.71-4.44s-1.35-3.07-1.22-4.59,1.53-2.84,1.67-4.36.2-2.95.36-4.46-.93-3.1-.75-4.6.77-2.91.97-4.41.07-3,.29-4.5,2.11-2.68,2.35-4.18-1.08-3.2-.82-4.69,2.03-2.66,2.31-4.14.49-2.93.79-4.41-.43-3.14-.11-4.61,1.48-2.72,1.83-4.19.49-2.95.87-4.41c.36-1.42,1.39-2.68,1.79-4.13s.52-2.92.93-4.36.95-2.8,1.38-4.24.71-2.88,1.14-4.31-.26-3.2.19-4.61,2.25-2.41,2.71-3.82-.33-3.25.14-4.65,1.74-2.57,2.21-3.96.99-2.82,1.47-4.21.06-3.16.56-4.54,1.09-2.8,1.59-4.18,1.48-2.67,1.98-4.03c.53-1.44,1.1-2.82,1.6-4.17.54-1.45,1.76-2.58,2.27-3.91.56-1.47.12-3.23.63-4.54.58-1.5,1.14-2.89,1.63-4.15.62-1.59.91-3.09,1.37-4.26,1-2.52,2.27-3.73,2.33-3.86,0-.02.08-.13.23-5.48Z"/>
      </g>
      <g id="e" data-name="Cercio Fondo">
        <path class="p" d="M197.19,792.17c-1.75-.69-3.56-1.12-5.1-1.43-1.92-.38-3.79.4-5.28.4-2.61,0-4.3.71-4.99.87-1.46.35-3.2-.24-4.5.33s-3.12,1.21-4.03,2.5c-.84,1.2-.86,3.04-1,4.36-.15,1.44.74,2.83,1.02,4.07.48,2.11,1.28,3.46,1.39,3.67.95,1.04,1.98,2.12,3.1,3.3.99,1.05,1.81,2.36,2.93,3.5,1.02,1.04,1.83,2.38,2.96,3.49,1.05,1.03,1.61,2.65,2.75,3.74,1.07,1.02,3.04,1.15,4.2,2.2,1.1,1,2.29,1.95,3.45,2.98,1.13,1,2.56,1.69,3.76,2.71s1.76,2.65,2.98,3.64,2.31,2,3.56,2.97,2.72,1.46,3.99,2.4,1.86,2.62,3.14,3.54,3.26.66,4.56,1.55,2.08,2.36,3.4,3.23,3.13.77,4.46,1.62,1.96,2.61,3.3,3.44c1.28.79,2.68,1.48,4.03,2.28s2.27,2.19,3.63,2.97,3.5.02,4.87.79,2.26,2.21,3.65,2.96,2.71,1.41,4.1,2.15,2.27,2.26,3.67,2.99,2.72,1.42,4.12,2.13c1.35.69,3.14.54,4.5,1.22s2.64,1.52,4,2.21,2.49,1.82,3.86,2.5c1.36.68,2.74,1.31,4.12,1.99s3.29.18,4.67.84,2.59,1.61,3.97,2.27,2.6,1.61,3.98,2.25,3.06.59,4.46,1.22,2.51,1.81,3.91,2.43,2.73,1.31,4.15,1.91,2.52,1.85,3.94,2.43,2.95.8,4.38,1.37,2.89.93,4.33,1.48,3.09.39,4.53.91,2.9.87,4.35,1.38,2.81,1.11,4.27,1.59,2.64,1.66,4.11,2.12,3.18-.04,4.65.4,2.69,1.59,4.16,2.01,3.02.45,4.5.85c1.46.4,2.61,1.98,4.1,2.37,1.46.38,3.27-.55,4.77-.18,1.36.34,2.86.58,4.46.95,1.4.33,2.6,1.91,4.17,2.25,1.42.31,2.94.53,4.5.85,1.44.3,2.91.73,4.46,1.03,1.45.28,2.89.93,4.44,1.21,1.46.26,3.05.07,4.59.33s3.18-.86,4.73-.62,2.94.65,4.48.87c1.48.21,2.79,1.87,4.33,2.07,1.49.19,3.09-.36,4.63-.18,1.49.17,3.07-.31,4.61-.15s2.93,1.15,4.47,1.29,3.08-.45,4.62-.33,3.02.08,4.56.19c1.5.1,3.02.16,4.56.25s3.01.28,4.55.35c1.51.07,3.02.18,4.56.23s3.02.46,4.56.49,3.04-.59,4.58-.58,3.03,1.58,4.57,1.58,3.04-.62,4.58-.65,3.04-.15,4.58-.19,3.04-.05,4.58-.11,3.07.43,4.61.35,2.95-1.74,4.48-1.84c1.28-.08,2.87,1.22,4.55,1.09,1.36-.1,2.88.02,4.48-.13,1.39-.13,2.87-.47,4.44-.63,1.41-.15,2.94.04,4.49-.13,1.42-.16,2.83-.97,4.36-1.17,1.43-.18,2.95-.12,4.47-.33,1.43-.2,2.94-.27,4.45-.5,1.44-.22,2.69-1.81,4.2-2.05s3.15.94,4.65.68c1.44-.25,2.67-1.86,4.16-2.14,1.44-.27,3.13.62,4.62.32,1.44-.28,2.87-.73,4.35-1.04s2.99-.21,4.46-.53,2.72-1.4,4.2-1.74,2.78-1.1,4.25-1.46,3.09.13,4.55-.24c1.43-.37,2.52-2.08,3.97-2.47s3-.25,4.45-.65,2.73-1.22,4.18-1.65,3.16.2,4.6-.24,2.57-1.74,4-2.19,2.96-.5,4.39-.96,2.83-.91,4.26-1.4c1.4-.48,2.59-1.5,3.96-1.98s2.73-1.08,4.09-1.58,3.31.45,4.66-.06,2.73-1.12,4.08-1.64,2.42-1.89,3.77-2.43,2.55-1.55,3.89-2.11,3.05-.35,4.38-.92,3.05-.4,4.37-.99,2.52-1.61,3.84-2.21,2.65-1.31,3.96-1.92,2.69-1.24,3.99-1.86,2.9-.83,4.19-1.46,1.93-2.77,3.2-3.42c1.34-.68,3.21-.26,4.47-.92,1.34-.7,2.03-2.53,3.27-3.2,1.34-.72,2.59-1.48,3.81-2.16,1.35-.75,3.29-.27,4.5-.96,1.36-.78,1.96-2.67,3.13-3.36,1.39-.82,3.24-.58,4.36-1.26,1.5-.91,2.67-1.82,3.65-2.44,1.29-.81,2-2.52,3.25-3.33s3.33-.46,4.58-1.29c1.27-.85,2.55-1.68,3.78-2.52s2.16-2.24,3.38-3.09,2.96-1.1,4.17-1.98,1.51-3.11,2.71-3.99,2.56-1.65,3.75-2.54,2.84-1.31,4.01-2.22,2.41-1.88,3.57-2.8,2.55-1.71,3.69-2.65,2.57-1.71,3.7-2.66c1.19-1,2.3-2.03,3.42-2.99,1.18-1.02,1.96-2.43,3.06-3.4.34-.42.65-2.11,1.53-3.97.55-1.16,1.63-2.24,1.86-3.74.21-1.33-.63-2.53-.98-3.99-.32-1.33-.51-2.48-1.34-3.65-.78-1.1-.94-2.87-2.09-3.76-1.07-.82-2.67-.95-4-1.53-1.24-.54-2.42-1.52-3.84-1.81-1.33-.26-2.8.06-4.24.06-1.35,0-2.73.07-4.16.33-1.14.9-1.87,2.39-3.1,3.35-1.15.9-2.77,1.28-4,2.21-1.17.89-2.1,2.16-3.34,3.08s-2.35,1.84-3.6,2.74-2.66,1.41-3.92,2.3-3.03.87-4.29,1.75-2.31,1.9-3.58,2.75-2.72,1.3-3.99,2.14-1.67,2.92-2.96,3.75-3.15.63-4.44,1.44-1.84,2.73-3.14,3.52-3.26.4-4.57,1.18c-1.29.77-2.41,1.81-3.69,2.55s-2.23,2.15-3.52,2.88-2.72,1.28-4.02,1.99-3.15.49-4.45,1.18-2.26,2.14-3.58,2.82-3.04.64-4.36,1.31-2.41,1.89-3.74,2.54-2.78,1.14-4.11,1.78-2.34,2.09-3.68,2.71-2.75,1.23-4.09,1.84-2.9.88-4.25,1.47-2.71,1.32-4.06,1.9-2.49,1.87-3.85,2.43-3.32-.15-4.67.39-2.31,2.38-3.67,2.91c-1.43.55-3.4-.42-4.76.08-1.44.53-2.71,1.4-4.07,1.89-1.46.52-3.04.52-4.4.99-1.47.51-2.85,1.06-4.21,1.51-1.5.49-2.47,2.35-3.81,2.77-1.54.48-3.11.47-4.42.87-1.6.48-3.05.87-4.29,1.23-1.48.42-2.89,1.03-4.35,1.43s-3.05.45-4.51.83-3.08.3-4.55.66-2.68,1.98-4.15,2.32-3.13.11-4.6.43-3.1.19-4.57.5-3.16-.18-4.64.11-2.72,2.1-4.2,2.38-3.24-.71-4.72-.46-2.89,1.32-4.37,1.56-3.05.4-4.53.61-3.18-.55-4.66-.35-2.95,1.12-4.43,1.3-3,.82-4.48.98-3.02.82-4.5.97c-1.56.15-3.16-.59-4.63-.46-1.57.13-3.07.43-4.54.53-1.58.11-3.1.25-4.55.33-1.6.09-3.1.63-4.54.69-1.62.07-3.17-.57-4.59-.53-1.67.05-3.18.38-4.55.4-1.5.03-3,.27-4.48.28s-2.99-1.22-4.47-1.23-3,.85-4.48.83-2.97-1.02-4.45-1.06-3.07,1.79-4.54,1.72-2.93-1.55-4.4-1.63-3.01.2-4.49.1-3.03.27-4.5.15-2.97-.49-4.44-.63-3.06.43-4.53.28-2.93-.89-4.39-1.07-2.94-.72-4.4-.91-3.01-.18-4.47-.39-3.09.29-4.54.06-2.89-1-4.34-1.24-2.96-.58-4.4-.85-2.82-1.32-4.25-1.6-3.01-.31-4.44-.6-3.11.07-4.53-.24c-1.5-.33-2.88-.99-4.29-1.32-1.5-.35-2.9-.9-4.3-1.25-1.51-.38-2.84-1.17-4.22-1.54-1.52-.4-3.29.42-4.65.04-1.54-.43-2.58-2.22-3.9-2.61-1.58-.47-3.35.24-4.62-.16-1.7-.53-2.96-1.5-4.09-1.87-1.4-.47-2.83-.91-4.26-1.39s-3.09-.13-4.52-.62-2.52-1.81-3.94-2.32-2.94-.61-4.36-1.13-2.57-1.61-3.99-2.15-2.71-1.23-4.11-1.8-3.12-.23-4.52-.82-2.85-.94-4.23-1.56-2.29-2.15-3.67-2.79-2.93-.77-4.29-1.45-2.65-1.36-3.99-2.06-2.91-.91-4.23-1.64-2.07-2.41-3.38-3.17-2.37-1.83-3.66-2.62-2.33-1.87-3.61-2.68c-1.3-.82-3.29-.5-4.54-1.29s-2.27-2.1-3.52-2.89-2.73-1.38-3.98-2.17-2.77-1.32-4.01-2.11-2.37-1.96-3.61-2.75c-1.3-.83-2.43-1.86-3.67-2.65-1.31-.83-2.83-1.25-4.06-2.04-1.31-.84-2.8-1.31-4.03-2.1-1.31-.84-2.61-1.61-3.84-2.4-1.31-.85-1.77-2.91-2.98-3.7-1.32-.86-3.35-.52-4.55-1.31-1.32-.87-2.62-1.65-3.81-2.45-1.33-.89-1.92-2.69-3.09-3.5-1.34-.92-3.25-.83-4.38-1.65-1.35-.98-1.75-2.95-2.82-3.78-1.39-1.08-2.39-2.13-3.32-2.99-.35-.32-2.15-.38-3.78-1.55-.92-.66-1.27-2.63-2.55-3.33-1.07-.58-2.42-1.04-3.71-1.55Z"/>
      </g>
      <g id="f" data-name="Cercio Destra">
        <path class="p" d="M783.61,331.68c-.82-1.15-2.32-2.04-3.6-3.07-1.16-.93-2.82-1.14-4.23-1.82s-2.65-1.45-4.15-1.74-3.13-1.53-4.66-1.32-2.45,2.24-3.84,3.03c-1.34.77-2.87,1.16-3.86,2.36s-1.43,2.64-2.01,4.11-2.16,2.69-2.32,4.27.57,3.2.83,4.77c.58,1.33,1.56,2.62,2.21,4.13.58,1.35,1.8,2.52,2.42,4.01.57,1.37-.38,3.44.23,4.93.57,1.39,1.33,2.74,1.93,4.22.56,1.4,2.62,2.24,3.2,3.72.55,1.41-.35,3.42.22,4.9s1.61,2.66,2.17,4.14.55,3.07,1.1,4.55c.53,1.44,1.17,2.85,1.7,4.29.53,1.44,1.12,2.86,1.64,4.3s1.35,2.77,1.88,4.21,1.55,2.7,2.06,4.15,1.39,2.77,1.9,4.22c.5,1.45.63,3.03,1.12,4.49.49,1.45.86,2.95,1.34,4.41.48,1.45.18,3.16.65,4.63s1.44,2.75,1.9,4.22.51,3.04.94,4.52c.43,1.46,1.94,2.63,2.36,4.11s.96,2.92,1.36,4.41.05,3.15.43,4.65-.28,3.21.07,4.71c.35,1.48,1.68,2.74,2.02,4.25s1.07,2.9,1.38,4.41c.31,1.49-.57,3.23-.28,4.75s.73,2.97,1,4.49c.27,1.51,1.81,2.8,2.06,4.29s-.57,3.19-.35,4.69.67,3,.87,4.5-.56,3.15-.39,4.65c.18,1.53,1.25,2.94,1.4,4.44.15,1.53-.4,3.11-.27,4.61s.45,3.03.56,4.53c.11,1.53,1.45,2.98,1.53,4.48.09,1.53.33,3.06.4,4.57s-1.39,3.11-1.35,4.62,1.23,3.03,1.25,4.54-1.16,3.07-1.16,4.58c0,1.54,1.09,3.07,1.07,4.58-.02,1.54.22,3.07.19,4.58s-1.07,3.04-1.13,4.54,1.02,3.11.95,4.61-.96,3.02-1.04,4.52-.19,3.06-.29,4.56-.57,3.03-.68,4.53,1.07,3.16.95,4.65c-.12,1.54-1.62,2.94-1.74,4.44s-.68,3.01-.81,4.51-.17,3.06-.3,4.55c-.14,1.55.11,3.12-.04,4.63s.21,3.14.05,4.65-.91,3.02-1.08,4.53.1,3.14-.09,4.64.24,3.17.03,4.67c-.21,1.56-.32,3.11-.53,4.6-.23,1.56-.48,3.09-.71,4.57-.24,1.57-.75,3.05-.99,4.53-.26,1.57-.39,3.12-.64,4.58-.27,1.58-2.07,2.89-2.33,4.34-.04,1.54,1.71,3,1.88,4.41.19,1.52.29,2.89.7,4.25.44,1.47.76,2.84,1.4,4.1.7,1.37.39,3.4,1.27,4.51.96,1.22,2.32,2.25,3.41,3.12,1.23.98,3.16.7,4.45,1.19,1.49.57,2.81,1.4,4.18,1.25,1.43-.15,3-.66,4.36-1.6,1.17-.8,2.68-1.67,3.69-2.95.89-1.14,1.49-2.72,2.19-4.16.64-1.32,1.8-2.65,2.23-4.18.4-1.42-1-3.34-.83-4.91.41-1.44,1.11-3.02,1.57-4.74.39-1.49,1.09-3.01,1.51-4.7.37-1.52,1.34-2.99,1.72-4.66.35-1.55.95-3.11,1.29-4.78.32-1.56.66-3.19.97-4.85.26-1.39-.98-3.09-.73-4.58.23-1.39.76-2.76.99-4.26.2-1.39-.02-2.87.17-4.38.18-1.39,2.18-2.63,2.34-4.14.15-1.4-1.48-3.02-1.35-4.54.12-1.4,1.17-2.78,1.28-4.29.1-1.41.66-2.84.75-4.35.08-1.41-.8-2.92-.73-4.42.06-1.42,1.27-2.83,1.32-4.33.05-1.42-1.2-2.92-1.16-4.42.03-1.42,1.03-2.86,1.05-4.36s.11-2.89.13-4.39c.01-1.43-.33-2.89-.33-4.39s.8-2.9.79-4.39-.78-2.89-.8-4.39c-.02-1.57.19-3.12.17-4.62s-.05-3.11-.07-4.62-1.08-3.1-1.11-4.6,1.62-3.14,1.59-4.65c-.03-1.58-1.98-3.07-2.02-4.58-.03-1.57,1.71-3.16,1.67-4.66-.04-1.57.02-3.12-.03-4.63-.05-1.57-1.49-3.05-1.55-4.56s-.17-3.1-.25-4.61-.29-3.08-.39-4.59.91-3.17.78-4.69c-.13-1.54-1.64-2.94-1.79-4.47s-.36-3.04-.54-4.57.75-3.18.54-4.72-1.28-2.9-1.52-4.43.19-3.12-.07-4.66-.34-3.04-.62-4.59c-.12-.64-.36-2.13-.81-4.29-.25-1.21-.19-2.73-.55-4.35-.29-1.3-1.16-2.6-1.51-4.13-.31-1.33-1.4-2.57-1.76-4.06-.33-1.35-.86-2.71-1.24-4.18-.35-1.36.43-3.06.04-4.51-.36-1.37-1.63-2.53-2.03-3.96s.51-3.13.09-4.56-1.96-2.43-2.39-3.84c-.41-1.37-.79-2.77-1.23-4.17s-.43-2.9-.89-4.29-.72-2.81-1.2-4.2c-.47-1.37-2.05-2.35-2.55-3.73-.49-1.36-.77-2.8-1.28-4.17-.59-1.59.35-3.62-.18-4.97-.62-1.57-2.89-2.33-3.45-3.68-.63-1.52.07-3.49-.53-4.88s-1.29-2.83-1.92-4.29c-.59-1.38-1.37-2.72-2-4.25-.56-1.35-.78-2.92-1.4-4.49-.53-1.36-2.62-2.23-3.21-3.81-.29-.77.65-2.68-.22-4.65-.5-1.12-1.37-2.33-2.08-3.88-.54-1.2-2.22-2.04-2.89-3.51-.56-1.23-.43-2.9-1.09-4.34-.58-1.25-1.79-2.31-2.44-3.73-.38-.82.37-2.23-.3-3.18Z"/>
      </g>
    </g>
    <text class="m" transform="translate(139.31 758.89) scale(.93 1)"><tspan x="0" y="0">SHU</tspan></text>
    <text class="j" transform="translate(327.37 487.49)"><tspan x="0" y="0">BY</tspan></text>
    <text class="o" transform="translate(166.09 373.27) rotate(-35.07)"><tspan x="0" y="0">M</tspan></text>
    <text class="o" transform="translate(332.47 255.98) rotate(-6.11)"><tspan x="0" y="0">A</tspan></text>
    <text class="o" transform="translate(472.91 235.76) rotate(22.1)"><tspan x="0" y="0">D</tspan></text>
    <text class="o" transform="translate(606.74 287.66) rotate(44.49)"><tspan x="0" y="0">E</tspan></text>
    <g>
      <g id="g" data-name="Cercio Sinistra">
        <path class="q" d="M107.32,340.15c0-.25.24-2.07-.28-4.5-.29-1.36-.93-2.7-1.66-4.19-.65-1.32-1.24-2.64-2.39-3.77-1.03-1.02-2.25-1.7-3.78-2.36-1.45-.62-2.79-1.9-4.34-1.98s-2.94,1.37-4.46,1.8-3.2.21-4.53,1.08-2.37,1.99-3.4,3.22c-.63,1.29-.91,2.78-1.55,4.14s-1.81,2.37-2.44,3.73-1.4,2.57-2.02,3.94-1.04,2.74-1.64,4.11-1.16,2.68-1.75,4.05-.56,2.93-1.13,4.31-1.23,2.65-1.78,4.04-1.35,2.61-1.89,4-.42,2.97-.95,4.36-.89,2.78-1.4,4.18-1.12,2.7-1.62,4.1-2.36,2.28-2.84,3.69-.57,2.91-1.03,4.32.08,3.11-.37,4.53-1.51,2.6-1.95,4.02c-.46,1.49-1.23,2.88-1.66,4.34s-.41,3.12-.83,4.58-1.43,2.83-1.83,4.3-.81,3.01-1.2,4.48-1.02,2.96-1.39,4.43-.41,3.11-.77,4.58.04,3.21-.29,4.68-.46,3.09-.78,4.56c-.34,1.55-.35,3.11-.65,4.59-.32,1.56-1.05,2.97-1.33,4.44-.3,1.57-.32,3.13-.59,4.59-.29,1.58-.7,3.07-.95,4.52-.27,1.61-.77,3.08-1,4.52-.26,1.64-.54,3.16-.74,4.56-.25,1.72-1.02,3.18-1.19,4.5-.26,2.01-.68,3.54-.79,4.56-.14,1.23-.45,2.73-.62,4.49-.13,1.35.19,2.91.05,4.55-.12,1.4-.01,2.93-.13,4.53-.1,1.43-.93,2.89-1.03,4.47-.09,1.44.37,2.99.3,4.55-.07,1.46-.5,2.95-.55,4.51-.05,1.46,1.41,3.01,1.37,4.56s-.26,2.97-.28,4.51-1.47,2.97-1.47,4.51.32,2.99.33,4.53-.05,3-.01,4.53-.05,3,0,4.53.07,3,.13,4.53,1.6,2.92,1.68,4.45-.99,3.06-.89,4.58.11,3,.23,4.52.27,3,.4,4.52-.01,3.03.13,4.54c.15,1.52,1.54,2.91,1.7,4.42s.06,3.06.24,4.57.8,2.97,1,4.47-.06,3.08.16,4.59.55,3,.78,4.5-.04,3.1.21,4.6-.09,3.12.18,4.61,1.12,2.9,1.4,4.39.83,2.95,1.14,4.44,1.39,2.82,1.71,4.31-.73,3.29-.39,4.77,1.9,2.69,2.26,4.16,0,3.14.36,4.61,1.49,2.77,1.88,4.23-.66,3.34-.26,4.8,1.71,2.69,2.13,4.15.06,3.17.49,4.62,2.47,2.44,2.92,3.88-.93,3.5-.46,4.94,2.61,2.36,3.09,3.79.02,3.22.52,4.65,2,2.53,2.51,3.95-.64,3.49-.11,4.91,1.82,2.59,2.36,4,.47,3.11,1.03,4.51,2.14,2.44,2.71,3.84.45,3.13,1.04,4.52,2.27,2.35,2.88,3.74.54,3.1,1.15,4.48,1,2.96,1.64,4.33c.92,1.27,1.8,2.87,2.94,3.78,1.21.97,3.15.93,4.51,1.5s2.79,1.88,4.26,2.04,3.21-.45,4.67-.76,3.11-.77,4.38-1.6c1.15-.75,1.47-2.44,2.31-3.52s2.69-1.64,3.19-2.94.62-2.83.78-4.21.19-2.95,0-4.33c-.57-1.37-2.29-2.43-2.89-3.92-.56-1.39-.17-3.21-.75-4.7-.55-1.4-1.02-2.87-1.58-4.36-.53-1.41-1.77-2.6-2.32-4.09s-.7-3.01-1.23-4.5-1.98-2.56-2.49-4.05-.54-3.06-1.04-4.56-1.35-2.8-1.83-4.3.67-3.44.21-4.94-2.28-2.53-2.72-4.03c-.41-1.38-.85-2.85-1.3-4.38-.41-1.4.34-3.2-.09-4.73-.4-1.41-1.04-2.81-1.46-4.33-.39-1.42-1.52-2.7-1.92-4.21-.38-1.43-.5-2.98-.88-4.49s-.65-2.94-1.01-4.45-1.51-2.74-1.86-4.26-.66-2.95-.99-4.47-.8-2.93-1.11-4.44,1.1-3.3.81-4.82-1.15-2.85-1.42-4.37.07-3.08-.19-4.6-1.97-2.74-2.21-4.27-.83-2.94-1.05-4.47.22-3.1.02-4.62.56-3.12.38-4.65-1.21-2.91-1.38-4.44-.13-3.04-.28-4.57.55-3.09.42-4.62-1.26-2.94-1.37-4.47-.26-3.03-.35-4.56.79-3.08.72-4.62-.66-3.01-.71-4.54-1.07-3.02-1.1-4.55.61-3.06.6-4.59c-.01-1.27-.12-2.77-.12-4.48,0-1.36-.54-2.87-.53-4.49.01-1.4,1.26-2.88,1.29-4.47.03-1.42-.19-2.92-.13-4.48.05-1.44.45-2.92.52-4.46.07-1.45.18-2.93.27-4.47.08-1.45.13-2.95.23-4.47s.12-2.95.24-4.48-.23-2.99-.09-4.51.54-2.92.7-4.43.03-2.99.21-4.49-.35-3.05-.15-4.55,1.71-2.77,1.93-4.26.51-2.93.75-4.42-.9-3.17-.64-4.66,1.88-2.69,2.16-4.17-.24-3.09.07-4.56,1.04-2.83,1.37-4.3.46-2.96.81-4.43-.16-3.13.21-4.59c.36-1.42,2.2-2.48,2.59-3.93s.46-2.94.87-4.38-.13-3.13.29-4.56.99-2.81,1.42-4.24.78-2.88,1.23-4.3,1.94-2.51,2.4-3.92,1.36-2.69,1.83-4.1-.14-3.2.34-4.6,1.3-2.72,1.78-4.11.55-2.99,1.04-4.37,2.34-2.35,2.83-3.73-.75-3.48-.25-4.84c.53-1.44,2.7-2.22,3.2-3.58.54-1.45.86-2.92,1.37-4.25.56-1.47.8-2.97,1.31-4.28.58-1.5,1.21-2.85,1.71-4.12.62-1.59,1.1-3.01,1.56-4.18,1-2.52,1.69-3.95,1.75-4.09,0-.02.09-.18.25-5.52Z"/>
      </g>
      <g id="h" data-name="Cercio Fondo">
        <path class="q" d="M180.52,786.19c-1.75-.69-3.06-2.53-4.6-2.83-1.92-.38-3.84-.43-5.33-.44-2.61,0-4.34,1.66-5.03,1.82-1.46.35-3.29-.39-4.6.19s-2.82,1.62-3.73,2.91c-.84,1.2.08,3.03-.06,4.36-.15,1.44-1.28,2.91-.99,4.16.48,2.11,1.32,3.99,1.43,4.2.95,1.04,2.47,1.74,3.59,2.93.99,1.05,1.35,2.82,2.47,3.96,1.02,1.04,3.11,1.11,4.24,2.22,1.05,1.03,2.31,1.9,3.45,2.98,1.07,1.02,1.28,3.03,2.43,4.09s2.32,1.93,3.49,2.96c1.13,1,2.35,1.96,3.55,2.98s3.12,1.02,4.34,2.01,1.96,2.42,3.2,3.39,2.52,1.71,3.79,2.65,1.95,2.5,3.23,3.42c1.22.88,2.77,1.37,4.07,2.26,1.24.85,2.38,1.92,3.7,2.8s2.59,1.61,3.93,2.46,2.2,2.25,3.54,3.08,3.39.3,4.74,1.11,2.05,2.54,3.41,3.33,3.3.38,4.67,1.15,2.21,2.3,3.59,3.06,2.56,1.7,3.95,2.44,3.06.76,4.46,1.48,2.65,1.55,4.05,2.26c1.35.69,3.06.7,4.42,1.39s1.86,3.07,3.22,3.76,3.18.45,4.55,1.13,2.31,2.19,3.68,2.87,3.22.34,4.6,1,2.22,2.4,3.6,3.06,3.45-.2,4.84.44,2.32,2.23,3.71,2.86,2.55,1.75,3.95,2.37,3.53-.54,4.94.06,2.25,2.48,3.67,3.06,2.77,1.25,4.2,1.81,3.01.62,4.45,1.17,2.74,1.35,4.18,1.88,2.68,1.53,4.13,2.04c1.42.5,2.94.8,4.4,1.29s2.91.87,4.38,1.34,3.31-.45,4.78,0,2.71,1.51,4.19,1.93,2.86,1,4.35,1.41,3.11.1,4.6.48,2.74,1.53,4.24,1.89c1.36.34,2.86.61,4.47.99,1.4.33,2.69,1.55,4.27,1.89,1.42.31,3.29-1.15,4.85-.83,1.44.3,2.9.71,4.45,1,1.45.28,2.83,1.15,4.38,1.42,1.46.26,2.86,1.14,4.4,1.39s3.19-.9,4.73-.66,2.9.92,4.44,1.14c1.48.21,2.85,1.47,4.39,1.67,1.49.19,3.02.26,4.56.44,1.49.17,2.97.75,4.51.91,1.49.16,3.14-1.01,4.68-.87s2.97.83,4.51.95,2.98.88,4.52.98,3.11-1.2,4.65-1.11,3.01.37,4.55.44c1.51.07,2.99,1.43,4.53,1.48s3.05-.02,4.59.01,3.05-.58,4.59-.57c1.51.01,3.04.34,4.58.33s3.05.13,4.58.1c1.51-.02,3.06.24,4.6.19s3.02-.79,4.56-.86,3.01-.88,4.54-.96,3.03-.22,4.57-.32c1.28-.08,2.88,1.24,4.56,1.11,1.36-.1,2.86-.17,4.47-.32,1.39-.13,2.8-1.14,4.37-1.3,1.41-.15,3.01.67,4.56.5,1.42-.16,2.74-1.7,4.27-1.89,1.43-.18,2.98.19,4.5-.02,1.43-.2,2.87-.72,4.38-.95s3.01.17,4.51-.07,2.73-1.55,4.23-1.81c1.44-.25,3.13.73,4.63.45s2.93-.48,4.41-.77c1.44-.28,2.81-1.05,4.29-1.36s2.66-1.68,4.14-2.01,2.94-.4,4.41-.74,2.86-.78,4.32-1.14,3.01-.17,4.47-.54,2.98-.32,4.44-.71,2.89-.69,4.34-1.1,2.57-1.8,4.02-2.22,3.08-.07,4.52-.51,3.04-.23,4.48-.69,2.55-1.79,3.98-2.26,3.09-.15,4.52-.64c1.4-.48,2.39-2.1,3.76-2.59s2.88-.69,4.24-1.19,2.56-1.54,3.92-2.05,3.22.18,4.57-.34,2.46-1.8,3.8-2.34,3.1-.23,4.44-.78,2.24-2.28,3.57-2.85,2.52-1.6,3.84-2.18,3.32.2,4.63-.4,2.2-2.28,3.5-2.89,2.94-.69,4.24-1.31,2.79-1.04,4.08-1.67,2.82-1,4.09-1.65c1.34-.68,1.93-2.74,3.19-3.39,1.34-.7,3.13-.44,4.38-1.11,1.34-.72,2.39-1.87,3.61-2.55,1.35-.75,2.83-1.1,4.03-1.79,1.36-.78,2.06-2.47,3.23-3.16,1.39-.82,3.07-.86,4.19-1.53,1.5-.91,2.51-2.06,3.49-2.68,1.29-.81,2.42-1.85,3.68-2.66s2.88-1.14,4.13-1.97,2.4-1.88,3.64-2.72c1.26-.86,2.56-1.64,3.78-2.5s2.36-1.93,3.57-2.81,2.2-2.14,3.4-3.03c1.23-.91,3.45-.47,4.64-1.37s1.98-2.43,3.16-3.35,2.75-1.45,3.91-2.37,2.32-2,3.46-2.94,2.19-2.16,3.32-3.11c1.19-1,1.65-2.78,2.76-3.74,1.18-1.02,2.93-1.3,4.02-2.27.34-.42,2.16-1.38,3.04-3.23.55-1.16-.09-2.98.15-4.48.21-1.33,1.08-2.85.73-4.31-.32-1.33-2.18-1.98-3.01-3.16-.78-1.1-1.1-2.56-2.25-3.44-1.07-.82-1.91-2.33-3.24-2.91-1.24-.54-2.87-.39-4.29-.67-1.33-.26-2.75.11-4.2.12-1.35,0-2.36.63-3.78.9-1.14.9-2.23,1.59-3.46,2.55-1.15.9-3.06.89-4.3,1.83-1.17.89-2.24,1.97-3.48,2.89s-2.46,1.67-3.71,2.58-2.02,2.3-3.28,3.19-2.86,1.12-4.12,1.99-2.2,2.07-3.47,2.93-3.02.85-4.3,1.69-2.48,1.65-3.77,2.48-1.99,2.46-3.28,3.26-2.16,2.22-3.47,3.01-2.61,1.5-3.92,2.28c-1.29.77-3.24.41-4.52,1.15s-2.56,1.56-3.85,2.29-2.17,2.28-3.46,2.99-2.75,1.24-4.05,1.94-3.05.65-4.37,1.33-2.36,1.97-3.68,2.64-3.1.51-4.43,1.16-2.02,2.72-3.35,3.36-2.83,1.06-4.17,1.68-2.62,1.51-3.96,2.12-2.82,1.09-4.16,1.68-3.29-.04-4.64.53-2.6,1.57-3.96,2.13-2.83,1.03-4.19,1.57-2.93.78-4.29,1.3c-1.43.55-2.73,1.31-4.09,1.81-1.44.53-2.47,2.09-3.83,2.57-1.46.52-2.94.82-4.3,1.29-1.47.51-2.97.74-4.33,1.19-1.5.49-2.84,1.21-4.18,1.63-1.54.48-3.39-.46-4.7-.07-1.6.48-2.51,2.67-3.76,3.03-1.48.42-3.08.39-4.53.79s-2.81,1.38-4.27,1.76-3.01.65-4.47,1.01-3.25-.39-4.72-.05-3.09.19-4.57.52-2.7,2.02-4.17,2.33-3.02.59-4.5.88-3.03.52-4.51.79-3.09.14-4.57.4-3.16-.32-4.64-.08-2.91,1.28-4.39,1.5-2.97.97-4.45,1.17-3.18-.6-4.66-.42-2.91,1.69-4.39,1.86-3.22-1.18-4.7-1.04c-1.56.15-3.08.15-4.55.27-1.57.13-3.03.94-4.5,1.05-1.58.11-3.08.49-4.54.58-1.6.09-3.15-.44-4.59-.38-1.62.07-3.13.57-4.54.62-1.67.05-3.21-.99-4.57-.96-1.5.03-2.98,1.26-4.46,1.26s-3-.28-4.48-.29-3.01.7-4.49.67-2.97-1.07-4.45-1.12-3.03.86-4.51.8-2.98-.45-4.46-.54-2.94-.95-4.42-1.05-3.1,1.22-4.57,1.1-2.85-1.91-4.32-2.04-3.03.19-4.5.04-3.12.81-4.58.64-2.75-2.26-4.21-2.45-3.07.28-4.52.07-2.89-1-4.34-1.22-2.99-.28-4.44-.52-2.94-.61-4.38-.87-3.25,1-4.69.72-2.85-1.19-4.27-1.48-3.02-.34-4.44-.65c-1.5-.33-3.02-.4-4.43-.74-1.5-.35-2.54-2.4-3.93-2.75-1.51-.38-3.43,1.12-4.81.75-1.52-.4-2.95-.85-4.31-1.23-1.54-.43-2.86-1.25-4.19-1.65-1.58-.47-2.9-1.24-4.18-1.64-1.7-.53-3.18-.82-4.31-1.2-1.4-.47-2.84-.89-4.27-1.37s-2.41-2.15-3.84-2.64-3.35.6-4.78.1-2.47-1.91-3.89-2.43-2.75-1.12-4.16-1.66-2.54-1.62-3.95-2.19-2.94-.64-4.34-1.23-2.86-.88-4.24-1.49-2.74-1.16-4.11-1.81-3.04-.56-4.4-1.23-2.17-2.3-3.51-3.01c-1.31-.68-3.16-.42-4.49-1.15s-2.09-2.35-3.41-3.11-2.9-.94-4.2-1.73-2.38-1.81-3.67-2.63c-1.3-.82-2.76-1.33-4.01-2.13s-2.49-1.75-3.74-2.54-2.65-1.51-3.89-2.31-2.51-1.74-3.75-2.53-2.6-1.6-3.84-2.39c-1.3-.83-2.06-2.45-3.3-3.24-1.31-.83-2.93-1.08-4.17-1.87-1.31-.84-2.38-1.97-3.6-2.76-1.31-.84-2.82-1.29-4.04-2.08-1.31-.85-2.53-1.75-3.74-2.54-1.32-.86-2.56-1.71-3.76-2.5-1.32-.87-2.09-2.43-3.28-3.23-1.33-.89-3.22-.78-4.38-1.58-1.34-.92-2.4-2.03-3.53-2.84-1.35-.98-2.32-2.18-3.38-3.01-1.39-1.08-2.49-2.04-3.42-2.9-.35-.32-1.33-1.46-2.97-2.63-.92-.66-1.97-1.63-3.25-2.33-1.07-.58-2.8-.01-4.1-.52Z"/>
      </g>
      <g id="i" data-name="Cercio Destra">
        <path class="q" d="M766.56,325.14c-.82-1.15-1.15-3.06-2.43-4.08-1.16-.93-3.17-.71-4.58-1.39s-2.65-1.44-4.15-1.73-3.02-.71-4.54-.5-3.25.2-4.64,1c-1.34.77-2.74,1.9-3.74,3.1s-1.75,2.75-2.33,4.22-.6,3.11-.75,4.69-.65,3.29-.39,4.86c.58,1.33,2.85,2.15,3.5,3.66.58,1.35.9,2.9,1.53,4.39.57,1.37.11,3.24.71,4.73.57,1.39,1.5,2.68,2.09,4.15.56,1.4,1.94,2.52,2.52,3.99.55,1.41-.04,3.3.52,4.78.54,1.42,2.02,2.51,2.57,3.99s.92,2.94,1.46,4.42c.53,1.44,1.42,2.76,1.95,4.2s.43,3.11.96,4.55,1.78,2.62,2.3,4.06,1.04,2.89,1.55,4.34-.2,3.32.3,4.77.82,2.96,1.31,4.41c.49,1.45,2.04,2.54,2.53,4s-.08,3.25.39,4.71,1.39,2.77,1.85,4.24,1.3,2.81,1.74,4.28,1.12,2.87,1.54,4.35c.41,1.47.57,3.02.97,4.51s.06,3.14.44,4.64,2.16,2.62,2.51,4.12c.35,1.48-.57,3.28-.23,4.79s.84,2.94,1.15,4.46.82,2.96,1.11,4.48.24,3.07.5,4.59c.27,1.51,1.62,2.84,1.86,4.33s0,3.11.21,4.6.6,3.02.79,4.52c.2,1.52-.7,3.17-.53,4.67s.81,2.99.96,4.49c.15,1.53-.57,3.12-.45,4.63.13,1.53,1.5,2.95,1.6,4.46s.79,3.02.88,4.53c.09,1.53-1.26,3.13-1.2,4.64s.5,3.04.54,4.55,1.24,3.04,1.26,4.55c.02,1.54-.2,3.07-.2,4.58s.14,3.08.12,4.59-.71,3.06-.75,4.57.63,3.09.58,4.6-1.59,3-1.66,4.51.89,3.11.8,4.61.11,3.08.02,4.58-.76,3.03-.87,4.53c-.11,1.54.33,3.1.21,4.6-.12,1.54-.82,3.01-.95,4.51s-.47,3.04-.6,4.53-.27,3.05-.4,4.54c-.14,1.55.29,3.14.14,4.66s-1.72,2.94-1.89,4.45.48,3.18.31,4.68-.31,3.09-.5,4.59c-.2,1.56-.17,3.12-.37,4.61s-.27,3.11-.49,4.6c-.23,1.56-1.36,2.95-1.59,4.43-.24,1.57.11,3.18-.13,4.66-.26,1.57.06,3.19-.19,4.65-.27,1.58-1.95,2.9-2.22,4.34-.04,1.54.9,3.06,1.08,4.47.19,1.52-.29,3.17.12,4.53.44,1.47,1.51,2.71,2.15,3.97.7,1.37,1.04,3.01,1.91,4.12.96,1.22,2.5,1.92,3.59,2.79,1.23.98,2.91.82,4.19,1.32,1.49.57,2.65,1.62,4.02,1.48,1.43-.15,2.7-.97,4.06-1.91,1.17-.8,2.72-1.43,3.73-2.71.89-1.14,1.3-2.73,2-4.17.64-1.32,1.62-2.61,2.04-4.14.4-1.42,1.19-2.86,1.37-4.43.41-1.44.12-3.17.58-4.89.39-1.49.4-3.19.82-4.88.37-1.52.35-3.21.73-4.88.35-1.55,2.22-2.83,2.56-4.5.32-1.56-.36-3.38-.05-5.05.26-1.39-.04-2.91.21-4.4.23-1.39.31-2.83.53-4.33.2-1.39,1.16-2.72,1.35-4.22.18-1.39.15-2.86.31-4.37.15-1.4.52-2.82.66-4.34.12-1.4-.09-2.88.02-4.39.1-1.41.33-2.85.42-4.36.08-1.41,1.14-2.82,1.2-4.32.06-1.42-.96-2.92-.91-4.42.05-1.42.6-2.86.64-4.37.03-1.42.21-2.88.23-4.38.02-1.42-.07-2.89-.05-4.39.01-1.43.57-2.89.57-4.39,0-1.43-1.4-2.89-1.41-4.38,0-1.43.96-2.9.94-4.4-.02-1.57-.79-3.1-.81-4.61s-.37-3.11-.39-4.61.55-3.12.53-4.63-.26-3.11-.28-4.62.67-3.13.63-4.63-.24-3.11-.28-4.62c-.04-1.57-.76-3.09-.81-4.6s1.24-3.16,1.17-4.67c-.07-1.57-.67-3.08-.75-4.6-.08-1.56.39-3.13.29-4.65s-.18-3.1-.3-4.62c-.13-1.54-1.08-3.01-1.23-4.53-.15-1.53-.76-3.01-.94-4.54s.79-3.19.58-4.73-1.22-2.92-1.46-4.45c-.23-1.5.16-3.13-.1-4.67-.26-1.49-1.8-2.78-2.09-4.32-.12-.64-.16-2.15-.6-4.31-.25-1.21-.41-2.67-.77-4.29-.29-1.3.37-2.94.02-4.47-.31-1.33-2.06-2.41-2.43-3.9-.33-1.35-.04-2.92-.42-4.38-.35-1.36-.67-2.78-1.05-4.23-.36-1.37-.9-2.73-1.3-4.16s-.17-2.94-.58-4.37-1.98-2.42-2.41-3.83-.79-2.77-1.23-4.17.16-3.08-.3-4.48-.46-2.91-.93-4.29c-.47-1.37-1.4-2.59-1.89-3.97s-1.71-2.47-2.22-3.84c-.59-1.59-1.3-2.97-1.83-4.33-.62-1.57-1.32-2.95-1.88-4.3-.63-1.52-.94-3.06-1.54-4.45s-.95-2.98-1.57-4.44c-.59-1.38-1.86-2.52-2.5-4.06-.56-1.35.36-3.39-.25-4.96-.53-1.36-1.76-2.55-2.35-4.13-.29-.77-1.18-1.94-2.06-3.9-.5-1.12-.26-2.82-.97-4.38-.54-1.2-1.85-2.21-2.53-3.68-.56-1.23-.45-2.89-1.11-4.33-.58-1.25-1.71-2.34-2.37-3.76-.38-.82-1.13-1.33-1.81-2.28Z"/>
      </g>
    </g>
    <text class="k" transform="translate(123.08 751.76) scale(.93 1)"><tspan x="0" y="0">SHU</tspan></text>
    <text class="n" transform="translate(311.15 480.37)"><tspan x="0" y="0">BY</tspan></text>
    <text class="l" transform="translate(149.87 366.15) rotate(-35.07)"><tspan x="0" y="0">M</tspan></text>
    <text class="l" transform="translate(316.24 248.85) rotate(-6.11)"><tspan x="0" y="0">A</tspan></text>
    <text class="l" transform="translate(456.68 228.64) rotate(22.1)"><tspan x="0" y="0">D</tspan></text>
    <text class="l" transform="translate(590.51 280.53) rotate(44.49)"><tspan x="0" y="0">E</tspan></text>
  </g>
</svg>