<?xml version="1.0" encoding="UTF-8"?>
<svg id="b" data-name="Livello 2" xmlns="http://www.w3.org/2000/svg" viewBox="0 0 870.84 915.45">
  <defs>
    <style>
      .j, .k, .l, .m {
        fill: #7b3391;
      }

      .k, .l, .n, .o, .m, .p {
        font-family: ChelseaMarket-Regular, 'Chelsea Market';
      }

      .k, .p {
        font-size: 343.52px;
        letter-spacing: .07em;
      }

      .l, .n {
        font-size: 230px;
      }

      .n, .o, .p, .q {
        fill: #3a1845;
      }

      .o, .m {
        font-size: 196.08px;
      }
    </style>
  </defs>
  <g id="c" data-name="Livello 2">
    <g>
      <g>
        <g id="d" data-name="Cercio Sinistra">
          <path class="j" d="M123.91,347.29c0-.25-.29-2.04-.81-4.47-.29-1.36.6-3.41-.14-4.89-.65-1.32-1.79-2.78-2.94-3.92-1.03-1.02-2.78-1.52-4.31-2.18-1.45-.62-3.06-1.13-4.62-1.21s-3.35-.29-4.88.13-3.2,1.09-4.53,1.95-1.74,2.78-2.77,4.01c-.63,1.29-2.28,2.09-2.93,3.45s.05,3.24-.58,4.6-2.59,2.03-3.2,3.4-.83,2.83-1.43,4.2.19,3.26-.4,4.63-1.06,2.71-1.63,4.09-1.87,2.39-2.42,3.78-2.07,2.33-2.61,3.72.08,3.17-.44,4.56-2.2,2.31-2.71,3.7.4,3.26-.09,4.66-.82,2.81-1.3,4.22-2.46,2.27-2.93,3.68-.36,2.98-.81,4.39-1.48,2.62-1.92,4.04c-.46,1.49-.46,3.11-.9,4.58s-.17,3.19-.59,4.66-.17,3.17-.57,4.64-1.21,2.89-1.6,4.36-2.24,2.64-2.61,4.11-.64,3.06-.99,4.53.57,3.33.23,4.81-1.77,2.8-2.09,4.28c-.34,1.55.03,3.2-.27,4.68-.32,1.56-.51,3.09-.8,4.55-.3,1.57-.72,3.06-.99,4.52-.29,1.58-1.46,2.95-1.71,4.4-.27,1.61.7,3.33.47,4.77-.26,1.64-1.45,3.03-1.66,4.43-.25,1.72,1.03,3.45.86,4.78-.26,2.01-2.1,3.36-2.21,4.38-.14,1.23-.51,2.73-.68,4.49-.13,1.35,1.01,2.98.87,4.63-.12,1.4-.03,2.92-.14,4.52-.1,1.43-.49,2.91-.58,4.49-.09,1.44-.99,2.91-1.06,4.48-.07,1.46-.31,2.96-.37,4.52-.05,1.46-.28,2.98-.31,4.53s1.61,3.01,1.59,4.56-1.67,2.97-1.68,4.51.29,3,.3,4.53,1.06,2.98,1.09,4.51-.74,3.01-.69,4.54.88,2.97.94,4.5-.05,3,.03,4.52.08,3,.18,4.52.51,2.97.63,4.49-.14,3.02,0,4.54-.67,3.09-.53,4.6c.15,1.52.22,3.06.39,4.57s1.21,2.94,1.39,4.45.26,3.05.46,4.55.7,2.99.92,4.49,1.27,2.89,1.51,4.39-1.33,3.31-1.08,4.81,1.25,2.89,1.52,4.38.86,2.95,1.15,4.44,1.32,2.85,1.62,4.33-1.07,3.35-.75,4.83,1.09,2.89,1.43,4.37,1.54,2.78,1.89,4.25,1.22,2.84,1.59,4.31.54,3,.93,4.47-.26,3.23.14,4.69.25,3.11.67,4.57,1.47,2.76,1.9,4.21,1.58,2.71,2.03,4.16,1.16,2.83,1.63,4.27-.17,3.28.31,4.71,1.21,2.82,1.71,4.25.46,3.09.97,4.51,1.68,2.64,2.21,4.06,2.09,2.47,2.64,3.88,1.01,2.88,1.57,4.28,1.08,2.85,1.65,4.25.84,2.95,1.43,4.34.63,3.06,1.24,4.44,1.32,2.76,1.94,4.13,2.23,2.23,2.86,3.6c.92,1.27.54,3.59,1.68,4.51,1.21.97,3.31.53,4.67,1.1s2.65,1.9,4.12,2.06,3.28.48,4.74.17,2.53-2.02,3.8-2.84c1.15-.75,2.71-1.1,3.56-2.19s2.04-2.2,2.55-3.49-.98-3.04-.83-4.42.21-2.38.01-3.77c-.57-1.37.02-3.18-.58-4.67-.56-1.39-1.77-2.57-2.36-4.06-.55-1.4-1.08-2.86-1.64-4.34-.53-1.41-1.57-2.68-2.11-4.17s.32-3.37-.21-4.87-1.56-2.7-2.08-4.19-.63-3.02-1.13-4.52-1-2.9-1.48-4.4-2.07-2.58-2.53-4.08.4-3.34-.04-4.85c-.41-1.38-2.28-2.42-2.73-3.96-.41-1.4-.71-2.91-1.14-4.43-.4-1.41.35-3.21-.07-4.73-.39-1.42-1.48-2.71-1.88-4.22-.38-1.43-1.19-2.8-1.58-4.32s.87-3.32.5-4.83-2.46-2.51-2.81-4.03-.4-3.01-.74-4.52-.01-3.09-.33-4.6-1.53-2.78-1.82-4.3.78-3.23.5-4.74-.51-2.98-.77-4.5-1.03-2.9-1.27-4.42.32-3.1.1-4.63-.75-2.95-.95-4.47-1.23-2.9-1.42-4.43.54-3.11.37-4.64-.9-2.95-1.05-4.49.21-3.06.08-4.59.17-3.05.06-4.58-1.64-2.93-1.72-4.47,1.2-3.1,1.12-4.64-.12-3.02-.17-4.56-1.03-3.01-1.06-4.55.72-3.05.7-4.59c-.01-1.27-1.53-2.77-1.54-4.48,0-1.36.07-2.87.08-4.49.01-1.4.62-2.9.66-4.48.03-1.42.07-2.92.12-4.48.05-1.44-.35-2.96-.28-4.5.07-1.45.74-2.92.83-4.45.08-1.45.27-2.94.38-4.47s-.55-3.02-.42-4.54.27-2.96.41-4.48,1.46-2.84,1.62-4.34-.09-3,.09-4.5.77-2.9.97-4.4.83-2.88,1.05-4.38-.91-3.15-.67-4.64,1.83-2.71,2.09-4.2.63-2.9.92-4.38,0-3.03.31-4.51.78-2.88,1.1-4.35.52-2.94.87-4.41.61-2.92.99-4.38c.36-1.42.59-2.9.98-4.35s.06-3.06.47-4.5.89-2.84,1.31-4.27,1.33-2.7,1.77-4.13,1-2.81,1.45-4.22.22-3.06.68-4.47,1.75-2.57,2.22-3.97-.05-3.17.43-4.57,2.03-2.47,2.51-3.86,1.64-2.6,2.13-3.98.55-2.99,1.05-4.36,1.2-2.77,1.7-4.13c.53-1.44-.09-3.25.42-4.61.54-1.45,1.35-2.74,1.86-4.07.56-1.47.63-3.04,1.14-4.34.58-1.5,1.31-2.82,1.81-4.09.62-1.59,1.96-2.67,2.42-3.84,1-2.52,2.05-3.8,2.11-3.94,0-.02.09-.32.24-5.67Z"/>
        </g>
        <g id="e" data-name="Cercio Fondo">
          <path class="j" d="M197.15,792.26c-1.75-.69-3.68-.41-5.23-.71-1.92-.38-3.63.25-5.12.25-2.61,0-4.28.12-4.98.29-1.46.35-2.91.39-4.21.96s-2.13,1.42-3.04,2.71c-.84,1.2-2.35,2.1-2.49,3.42-.15,1.44.83,2.87,1.11,4.12.48,2.11.46,4.22.57,4.43.95,1.04,2.02,2.17,3.14,3.36.99,1.05,2.59,1.62,3.71,2.76,1.02,1.04,1.79,2.42,2.92,3.53,1.05,1.03,2.02,2.23,3.15,3.31,1.07,1.02,2.44,1.8,3.59,2.85s1.72,2.6,2.89,3.63c1.13,1,2.97,1.25,4.17,2.27s2.87,1.31,4.09,2.31,1.98,2.4,3.22,3.37,2.06,2.32,3.33,3.27,2.71,1.46,3.99,2.38,2.97,1.05,4.28,1.94,2.16,2.22,3.48,3.1,2.36,1.96,3.69,2.81,2.1,2.4,3.45,3.23,3.58-.02,4.93.78,1.78,3,3.15,3.78,3.13.68,4.5,1.45,2.33,2.1,3.71,2.86,2.93,1.02,4.32,1.76,2.68,1.48,4.07,2.2,3.13.6,4.53,1.31c1.35.69,2.05,2.68,3.41,3.37s2.79,1.22,4.15,1.91,2.87,1.05,4.24,1.73,2.72,1.36,4.09,2.04,2.96.86,4.34,1.52,2.38,2.06,3.77,2.71,3.14.45,4.53,1.09,2.67,1.44,4.07,2.07,2.3,2.29,3.71,2.9,3.17.3,4.59.9,2.47,1.96,3.89,2.54,3.31-.12,4.74.44,2.42,2.14,3.86,2.68,2.77,1.27,4.21,1.8,3.24-.06,4.69.45,2.37,2.45,3.83,2.93,2.89.95,4.35,1.42,2.89.97,4.36,1.41,3.43-.88,4.91-.46,2.63,1.81,4.12,2.21,2.79,1.34,4.28,1.73,2.99.58,4.49.95c1.36.34,2.87.6,4.47.97,1.4.33,3.01.1,4.59.44,1.42.31,2.89.71,4.45,1.03,1.44.3,2.76,1.48,4.31,1.78,1.45.28,3.17-.61,4.72-.33,1.46.26,2.91.78,4.46,1.04s3.06-.06,4.6.17,2.82,1.55,4.36,1.76,2.95.75,4.49.95,3.11-.49,4.65-.31,3.1-.57,4.64-.41,2.82,2.26,4.36,2.4,3.1-.61,4.64-.49,3.04,0,4.58.1,3.02.3,4.56.38,3.01.58,4.55.64,3.06-.69,4.6-.64,3.02.75,4.56.78,3.03.82,4.57.83,3.04-1.92,4.58-1.93,3.03.32,4.57.3,3.07,1.23,4.61,1.19,2.99-1.45,4.53-1.51,3.1,1.12,4.64,1.04,2.96-1.54,4.49-1.64c1.28-.08,2.87,1.15,4.55,1.02,1.36-.1,2.73-1.64,4.33-1.78,1.39-.13,3,.99,4.57.83,1.41-.15,2.83-.88,4.38-1.06,1.42-.16,2.92-.21,4.45-.4,1.43-.18,3.04.57,4.56.36,1.43-.2,2.88-.66,4.4-.88s2.8-1.16,4.31-1.4,2.82-.98,4.32-1.24,2.93-.37,4.42-.65,3.07.3,4.56,0,2.65-1.79,4.13-2.1,3.17.68,4.65.35,2.85-.87,4.32-1.21,2.67-1.57,4.14-1.93,3.01-.18,4.47-.55,2.64-1.6,4.1-1.99,3.06-.02,4.51-.42,2.92-.58,4.37-1,2.57-1.76,4.01-2.2,3.04-.19,4.48-.64,3.04-.27,4.47-.74,2.44-2.08,3.87-2.56c1.4-.48,2.71-1.14,4.08-1.62s3.27.4,4.63-.1,2.79-.96,4.15-1.47,2.31-2.21,3.66-2.74,3.08-.22,4.42-.76,2.42-1.87,3.76-2.43,3.14-.15,4.47-.72,2.44-1.79,3.76-2.37,3-.53,4.31-1.13,2.62-1.38,3.92-1.99,2.39-1.86,3.69-2.48,2.99-.64,4.27-1.28,2.63-1.38,3.9-2.03c1.34-.68,2.54-1.57,3.8-2.22,1.34-.7,2.81-1.06,4.06-1.73,1.34-.72,2.3-2.03,3.53-2.71,1.35-.75,2.92-.94,4.13-1.62,1.36-.78,2.16-2.32,3.33-3.01,1.39-.82,2.77-1.36,3.89-2.04,1.5-.91,2.35-2.32,3.33-2.94,1.29-.81,2.65-1.48,3.91-2.29s2.46-1.78,3.71-2.6,3.02-.95,4.26-1.79,2.54-1.67,3.77-2.53,2.82-1.3,4.03-2.17,2.68-1.52,3.88-2.4,1.42-3.18,2.61-4.08,3.14-.91,4.31-1.83,1.84-2.6,3-3.52,2.56-1.69,3.71-2.63,2.3-2.02,3.43-2.97c1.19-1,2.93-1.28,4.05-2.24,1.18-1.02,1.55-2.85,2.64-3.82.34-.42,1.93-1.28,2.81-3.13.55-1.16.41-2.71.64-4.21.21-1.33,1.15-2.82.8-4.28-.32-1.33-1.54-2.41-2.37-3.59-.78-1.1-2-1.75-3.15-2.64-1.07-.82-1.87-2.14-3.2-2.72-1.24-.54-2.67-.68-4.09-.96-1.33-.26-2.7.41-4.14.41-1.35,0-3.16-1.72-4.59-1.46-1.14.9-1.96,2.67-3.19,3.62-1.15.9-2.11,2.12-3.35,3.06-1.17.89-2.08,2.19-3.32,3.12s-2.98.99-4.22,1.89-2.82,1.17-4.07,2.06-2.47,1.66-3.73,2.53-2.43,1.73-3.7,2.58-2.4,1.77-3.68,2.6-2.39,1.8-3.68,2.62-1.76,2.82-3.06,3.63-3.52,0-4.82.8-1.91,2.63-3.22,3.41c-1.29.77-2.7,1.33-3.98,2.07s-2.58,1.53-3.87,2.26-2.87,1-4.17,1.71-2.33,2-3.64,2.69-2.46,1.78-3.78,2.46-2.95.83-4.27,1.5-2.33,2.08-3.65,2.73-3.23.24-4.56.87-2.22,2.35-3.56,2.97-3.15.35-4.49.95-2.97.71-4.32,1.3-2.68,1.37-4.03,1.94-2.42,2.01-3.78,2.57-2.73,1.32-4.08,1.86-3.02.57-4.38,1.09c-1.43.55-2.47,2.04-3.83,2.54-1.44.53-2.91.9-4.27,1.38-1.46.52-3.17.17-4.53.63-1.47.51-2.97.73-4.32,1.18-1.5.49-2.86,1.12-4.2,1.54-1.54.48-2.66,1.91-3.98,2.3-1.6.48-3.14.56-4.39.92-1.48.42-2.99.67-4.45,1.07s-2.98.72-4.44,1.1-2.98.73-4.44,1.09-3.17-.09-4.64.25-2.9,1.04-4.37,1.37-2.76,1.76-4.24,2.07-3.1.17-4.58.46-3.11.06-4.59.33-2.84,1.58-4.32,1.84-3.05.4-4.53.64-3.26-.98-4.74-.76-3.02.52-4.51.72-2.9,1.55-4.38,1.73-3.06.4-4.54.57-3.16-.54-4.64-.4c-1.56.15-3.04.69-4.51.82-1.57.13-3.06.74-4.52.84-1.58.11-3.19-1.19-4.65-1.1-1.6.09-3.05,1.48-4.49,1.54-1.62.07-3.17-.38-4.59-.33-1.67.05-3.18.71-4.54.73-1.5.03-3.01-1.25-4.49-1.24s-2.99-.11-4.47-.12-2.99.31-4.47.28-2.99.06-4.47.01-3.03.73-4.51.67-2.99-.34-4.47-.42-2.95-.89-4.42-.99-2.95-.68-4.42-.8-3.08.85-4.55.71-2.96-.58-4.43-.73-2.91-.97-4.37-1.14-2.94-.61-4.41-.8-3.16.93-4.62.72-2.86-1.21-4.31-1.44-3.01-.22-4.46-.46-2.92-.76-4.36-1.02-2.9-.84-4.34-1.11-2.93-.72-4.35-1.01-2.91-.78-4.33-1.1c-1.5-.33-3.21.5-4.62.17-1.5-.35-3.11-.08-4.51-.43-1.51-.38-2.82-1.29-4.2-1.66-1.52-.4-2.87-1.12-4.23-1.5-1.54-.43-2.93-.97-4.26-1.37-1.58-.47-3.25-.12-4.52-.52-1.7-.53-2.93-1.6-4.06-1.97-1.4-.47-2.68-1.34-4.12-1.82s-2.66-1.4-4.09-1.89-2.78-1.03-4.2-1.53-3.14-.04-4.56-.56-2.74-1.16-4.15-1.7-2.77-1.08-4.17-1.64-3.13-.23-4.53-.82-2.15-2.52-3.53-3.14-2.64-1.34-4.02-1.98-3.24-.12-4.6-.79-2.14-2.34-3.49-3.04-2.67-1.3-4-2.03-2.51-1.58-3.83-2.33-3.3-.28-4.59-1.07-1.57-3.11-2.85-3.92c-1.3-.82-3.29-.5-4.54-1.29s-2.89-1.13-4.14-1.92-2.42-1.87-3.67-2.66-1.75-2.93-2.99-3.72-2.81-1.27-4.05-2.06c-1.3-.83-2.52-1.73-3.76-2.52-1.31-.83-3.31-.49-4.55-1.28-1.31-.84-1.7-3.03-2.93-3.82-1.31-.84-3.13-.81-4.35-1.6-1.31-.85-2.74-1.42-3.96-2.21-1.32-.86-2-2.57-3.2-3.36-1.32-.87-3.07-.97-4.25-1.77-1.33-.89-2.75-1.49-3.91-2.29-1.34-.92-2.07-2.5-3.2-3.32-1.35-.98-2.97-1.32-4.04-2.15-1.39-1.08-1.68-3.02-2.6-3.88-.35-.32-1.72-1.02-3.36-2.19-.92-.66-2.71-.23-3.99-.93-1.07-.58-1.57-2.56-2.87-3.07Z"/>
        </g>
        <g id="f" data-name="Cercio Destra">
          <path class="j" d="M782.34,332.58c-.82-1.15-.59-3.52-1.86-4.55-1.16-.93-3.36-.41-4.77-1.09s-2.65-1.18-4.16-1.47-2.9-.82-4.42-.61-2.51,1.27-3.9,2.07c-1.34.77-3.04.93-4.03,2.13s-1.02,2.83-1.6,4.3-.73,2.74-.88,4.32-.55,2.85-.29,4.42c.58,1.33.52,2.98,1.16,4.49.58,1.35,2.34,2.29,2.96,3.78.57,1.37-.32,3.42.29,4.9.57,1.39,2.43,2.3,3.02,3.78.56,1.4.59,3.05,1.17,4.53s1.17,2.83,1.74,4.3.16,3.22.72,4.69,1.09,2.86,1.63,4.34c.53,1.44,1.15,2.85,1.68,4.3s2.56,2.33,3.09,3.77.72,3.01,1.24,4.45.18,3.2.69,4.64,2,2.55,2.51,4,1.14,2.85,1.64,4.31.47,3.08.95,4.54,1.34,2.79,1.81,4.26-.54,3.38-.08,4.85,1.33,2.79,1.77,4.27,1.48,2.76,1.9,4.24.99,2.9,1.39,4.39.4,3.06.78,4.56,1.28,2.84,1.64,4.34.86,2.95,1.2,4.46-.62,3.26-.31,4.77,1.62,2.8,1.91,4.32.83,2.97,1.1,4.49c.27,1.51.42,3.04.66,4.54s-.24,3.14-.03,4.64.01,3.09.21,4.59,1.78,2.87,1.95,4.37-1.29,3.22-1.14,4.73.42,3.03.55,4.53.71,3.01.82,4.52-.41,3.09-.33,4.6.75,3.02.81,4.53,1.15,3.02,1.2,4.53-.38,3.08-.36,4.59-.15,3.07-.15,4.58-1.12,3.05-1.14,4.56.4,3.06.37,4.57.24,3.07.19,4.58-.03,3.06-.1,4.57-.88,3.02-.97,4.52.67,3.11.57,4.61.3,3.1.2,4.6-.8,3.01-.92,4.51.1,3.08-.03,4.58-.16,3.06-.29,4.56-1.36,2.96-1.49,4.45c-.14,1.55,1.2,3.23,1.05,4.74s-.92,3.03-1.09,4.53.2,3.15.02,4.66-1.08,3-1.27,4.5.46,3.2.25,4.7-2.2,2.84-2.41,4.32c-.23,1.56,1.02,3.31.79,4.79-.24,1.57-.38,3.11-.62,4.59-.26,1.57-.93,3.02-1.18,4.48-.27,1.58-.63,3.06-.89,4.51-.04,1.54-.84,3.07-.66,4.48.19,1.52,1.28,2.85,1.69,4.21.44,1.47.25,3.19.89,4.46.7,1.37,2.24,2.2,3.12,3.31.96,1.22,1.47,2.9,2.56,3.76,1.23.98,3.14.68,4.42,1.18,1.49.57,2.69.66,4.06.51,1.43-.15,3.17.27,4.53-.66,1.17-.8,1.99-2.26,3.01-3.55.89-1.14,2.22-2.18,2.92-3.63.64-1.32.9-2.93,1.33-4.46.4-1.42.04-3.07.22-4.64.41-1.44,1.78-2.82,2.24-4.54.39-1.49.95-3.06,1.37-4.75.37-1.52.13-3.28.51-4.95.35-1.55.54-3.19.88-4.86.32-1.56.5-3.2.81-4.87.26-1.39,1.1-2.72,1.36-4.21.23-1.39-.23-2.93-.01-4.43.2-1.39.21-2.85.4-4.36.18-1.39,1.7-2.69,1.86-4.2.15-1.4-1.35-3.01-1.22-4.52.12-1.4.8-2.8.91-4.31.1-1.41,1.48-2.78,1.57-4.29.08-1.41-.75-2.92-.69-4.43.06-1.42.02-2.88.07-4.38.05-1.42.61-2.87.65-4.37.03-1.42-1.11-2.9-1.08-4.41s1.75-2.87,1.77-4.37-1.27-2.9-1.27-4.39.49-2.89.48-4.39.46-2.9.44-4.4c-.02-1.57.27-3.12.25-4.62s-.44-3.11-.46-4.61-.24-3.11-.26-4.62-.69-3.1-.72-4.61.61-3.13.58-4.63-.27-3.11-.31-4.62.4-3.13.35-4.64-1.1-3.07-1.17-4.58.76-3.15.68-4.66-.19-3.1-.29-4.62-1.37-3-1.49-4.52-.33-3.06-.48-4.58.29-3.12.11-4.65.15-3.12-.06-4.65-.21-3.07-.44-4.6-2.09-2.76-2.36-4.3,1.18-3.31.89-4.85c-.12-.64-2.23-1.76-2.67-3.92-.25-1.21.5-2.86.14-4.48-.29-1.3,0-2.86-.35-4.39-.31-1.33-1.16-2.63-1.52-4.12-.33-1.35-.38-2.84-.75-4.31-.35-1.36-1.91-2.46-2.3-3.91-.36-1.37-.37-2.86-.77-4.3s-1.28-2.62-1.69-4.04-.22-2.93-.65-4.35.29-3.11-.15-4.52-.98-2.73-1.44-4.13-1.4-2.59-1.87-3.98-.71-2.83-1.21-4.21-2.32-2.24-2.83-3.61c-.59-1.59-.55-3.26-1.08-4.61-.62-1.57-1.32-2.95-1.88-4.31-.63-1.52-.25-3.36-.85-4.75s-1.51-2.73-2.14-4.2c-.59-1.38-.72-2.99-1.35-4.52-.56-1.35-2.07-2.41-2.69-3.98-.53-1.36-1.79-2.55-2.38-4.14-.29-.77-.27-2.28-1.15-4.25-.5-1.12-.32-2.8-1.03-4.35-.54-1.2-1.12-2.54-1.79-4.02-.56-1.23-2.1-2.14-2.76-3.57-.58-1.25-.77-2.78-1.42-4.19-.38-.82-1.6-1.01-2.27-1.95Z"/>
        </g>
      </g>
      <text class="k" transform="translate(139.31 758.89) scale(.93 1)"><tspan x="0" y="0">SHU</tspan></text>
      <text class="m" transform="translate(327.37 487.49)"><tspan x="0" y="0">BY</tspan></text>
      <text class="l" transform="translate(166.09 373.27) rotate(-35.07)"><tspan x="0" y="0">M</tspan></text>
      <text class="l" transform="translate(332.47 255.98) rotate(-6.11)"><tspan x="0" y="0">A</tspan></text>
      <text class="l" transform="translate(472.91 235.76) rotate(22.1)"><tspan x="0" y="0">D</tspan></text>
      <text class="l" transform="translate(606.74 287.66) rotate(44.49)"><tspan x="0" y="0">E</tspan></text>
    </g>
    <g>
      <g>
        <g id="g" data-name="Cercio Sinistra">
          <path class="q" d="M107.11,340.15c0-.25,1.53-2.29,1-4.73-.29-1.36-1.88-2.53-2.62-4.02-.65-1.32-1.05-2.9-2.2-4.03-1.03-1.02-2.02-2.65-3.56-3.3-1.45-.62-3.39.61-4.95.53s-3.24-1.18-4.76-.76-3.31.78-4.65,1.65-1.79,2.79-2.82,4.03c-.63,1.29-2,2.25-2.64,3.61s-1.5,2.52-2.13,3.88-.46,3-1.07,4.37-1.8,2.4-2.4,3.77-.4,3.01-.98,4.38-.74,2.85-1.31,4.23-.99,2.75-1.54,4.13-1.09,2.71-1.63,4.1-.66,2.87-1.19,4.26-2.17,2.31-2.68,3.71-.81,2.82-1.3,4.23-.78,2.83-1.26,4.24-.86,2.8-1.32,4.21-.86,2.8-1.31,4.22-1.8,2.51-2.24,3.93c-.46,1.49-.96,2.96-1.4,4.43s-1.07,2.93-1.49,4.4.56,3.39.16,4.86-1.1,2.92-1.48,4.39-1.94,2.72-2.31,4.19.72,3.38.37,4.86-.47,3.08-.81,4.55-2.18,2.71-2.5,4.19c-.34,1.55-.32,3.13-.63,4.6-.32,1.56-.47,3.1-.75,4.57-.3,1.57-.21,3.16-.48,4.62-.29,1.58-1.61,2.92-1.86,4.37-.27,1.61.11,3.24-.12,4.67-.26,1.64.32,3.29.12,4.69-.25,1.72-.14,3.29-.31,4.61-.26,2.01-.65,3.52-.76,4.54-.14,1.23-.27,2.73-.44,4.49-.13,1.35-.18,2.86-.32,4.5-.12,1.4-1.51,2.81-1.62,4.41-.1,1.43-.01,2.95-.11,4.53-.09,1.44.34,2.98.27,4.55-.07,1.46-.82,2.94-.87,4.49-.05,1.46.76,3,.72,4.55s.2,2.98.18,4.52-.28,2.98-.28,4.52-.64,2.99-.62,4.53.4,2.99.43,4.52.74,2.97.78,4.5-1.49,3.05-1.42,4.58.98,2.96,1.06,4.48-.54,3.04-.45,4.57,1.02,2.94,1.13,4.46-.31,3.04-.18,4.56-.33,3.06-.19,4.58c.15,1.52,1.25,2.95,1.41,4.46s.03,3.07.21,4.58.71,2.99.91,4.49.21,3.05.43,4.56.95,2.94,1.18,4.44-.77,3.22-.51,4.72,1.17,2.9,1.44,4.4,1.31,2.86,1.59,4.35.58,2.99.88,4.48-.44,3.21-.12,4.7.82,2.95,1.16,4.43.73,2.97,1.09,4.44,1.15,2.86,1.52,4.34.14,3.12.53,4.59.59,3.01,1,4.47,2.4,2.49,2.82,3.95.84,2.93,1.28,4.38.48,3.04.93,4.49,1.37,2.76,1.84,4.2-.08,3.24.4,4.68,1.59,2.68,2.09,4.11-.07,3.27.45,4.69,1.56,2.69,2.09,4.1.38,3.13.93,4.54,1.55,2.68,2.11,4.09,1.77,2.58,2.34,3.98,1.52,2.67,2.11,4.06,1.34,2.74,1.95,4.13,1.15,2.82,1.77,4.2,1.11,2.78,1.75,4.15c.92,1.27,1.33,2.85,2.47,3.77,1.21.97,2.73,1.44,4.09,2.01s2.78,1.84,4.25,2,3.26-.13,4.71-.44,2.87-1.31,4.14-2.13c1.15-.75,2.25-1.68,3.1-2.76s.74-2.64,1.24-3.93.47-2.46.62-3.85,1.2-2.64,1-4.03c-.57-1.37-1.89-2.53-2.49-4.02-.56-1.39-1.04-2.87-1.62-4.36-.55-1.4-.56-3.06-1.12-4.54-.53-1.41-1.36-2.76-1.91-4.25s-.83-2.96-1.36-4.45-.58-3.05-1.09-4.54-1.97-2.58-2.46-4.08-.27-3.15-.75-4.65-.68-3.01-1.14-4.51-.96-2.92-1.41-4.43c-.41-1.38-.79-2.86-1.24-4.4-.41-1.4-.75-2.89-1.18-4.41-.4-1.41-1.31-2.74-1.72-4.26-.39-1.42-.75-2.91-1.15-4.42-.38-1.43-1.3-2.77-1.68-4.29s-1.1-2.84-1.47-4.35-.16-3.07-.51-4.58-1-2.87-1.33-4.39-.75-2.94-1.06-4.45.39-3.16.09-4.68.09-3.09-.19-4.61-2.29-2.67-2.55-4.19.71-3.19.47-4.71-.77-2.94-.99-4.46.07-3.06-.13-4.59-.33-3.01-.51-4.53-.45-2.99-.62-4.52-.38-3-.52-4.54.07-3.04-.06-4.58-1.1-2.95-1.21-4.48.06-3.04-.03-4.58.32-3.05.25-4.59-.54-3.01-.59-4.54-.83-3.02-.86-4.56-.25-3.04-.27-4.58c-.01-1.27-.3-2.78-.3-4.49,0-1.36,1.85-2.85,1.86-4.48.01-1.4-.79-2.91-.75-4.49.03-1.42.8-2.89.85-4.45.05-1.44.05-2.93.12-4.47.07-1.45.12-2.93.21-4.47.08-1.45-.11-2.96,0-4.49s.22-2.95.35-4.47.02-2.97.16-4.49-.44-3.03-.27-4.54.62-2.92.8-4.43.58-2.93.78-4.43.39-2.95.61-4.45,1.43-2.78,1.67-4.28.5-2.92.76-4.41-.08-3.03.2-4.52.73-2.89,1.04-4.37-.78-3.22-.46-4.69,1.15-2.81,1.5-4.28.79-2.89,1.16-4.35c.36-1.42,1.88-2.56,2.27-4.01s-.47-3.2-.06-4.64.74-2.88,1.16-4.31.92-2.83,1.36-4.26,1.73-2.58,2.18-3.99.47-2.98.93-4.39.2-3.08.66-4.49,1.6-2.62,2.08-4.01,1.36-2.7,1.84-4.09,1.34-2.7,1.83-4.09,1.13-2.78,1.62-4.16.3-3.09.8-4.46c.53-1.44.97-2.87,1.47-4.22.54-1.45,1.85-2.55,2.36-3.88.56-1.47.82-2.96,1.32-4.27.58-1.5.81-3.01,1.31-4.28.62-1.59.73-3.15,1.2-4.32,1-2.52,1.69-3.97,1.75-4.1,0-.02.43.04.58-5.31Z"/>
        </g>
        <g id="h" data-name="Cercio Fondo">
          <path class="q" d="M180.43,786.4c-1.75-.69-2.98-2.68-4.53-2.98-1.92-.38-3.83-.3-5.31-.3-2.61,0-4.51.72-5.21.88-1.46.35-3.13.31-4.44.88s-2.38,1.96-3.29,3.26c-.84,1.2-1.87,2.57-2.01,3.9-.15,1.44.27,3.07.55,4.32.48,2.11,1.79,3.58,1.9,3.79.95,1.04,1.43,2.68,2.55,3.86.99,1.05,1.91,2.29,3.03,3.43,1.02,1.04,2.1,2.14,3.23,3.25,1.05,1.03,2.42,1.82,3.56,2.9,1.07,1.02,2.51,1.71,3.67,2.77s2.36,1.87,3.53,2.91c1.13,1,2.29,2.02,3.49,3.04s2.38,1.91,3.6,2.91,2.04,2.34,3.29,3.31,2.14,2.24,3.41,3.18,3.18.83,4.46,1.74,1.81,2.74,3.11,3.63,3.44.36,4.75,1.23,2.63,1.52,3.96,2.36,2.5,1.73,3.84,2.56,1.93,2.7,3.28,3.51,2.44,1.9,3.8,2.69,2.81,1.26,4.18,2.03,3.05.81,4.43,1.56,2.44,1.93,3.82,2.66,3.13.62,4.53,1.34,2.36,2.1,3.76,2.81c1.35.69,3.03.75,4.39,1.44s2.54,1.71,3.9,2.4,2.45,1.91,3.81,2.59,3.27.25,4.64.93,2.68,1.42,4.06,2.09,2.52,1.76,3.91,2.41,3.04.64,4.43,1.29,2.68,1.41,4.08,2.04,2.34,2.19,3.75,2.81,2.86,1.02,4.28,1.62,2.45,2.01,3.87,2.59,2.88.98,4.31,1.54,3.35-.25,4.78.3,2.75,1.29,4.19,1.81,2.76,1.27,4.22,1.77,2.59,1.82,4.04,2.31,3.3-.36,4.77.11,2.53,2.08,4,2.52,2.87,1.02,4.35,1.45,3.24-.31,4.72.09,2.91.85,4.4,1.24,2.68,1.78,4.18,2.15c1.36.34,3.05-.17,4.66.2,1.4.33,2.81.97,4.39,1.31,1.42.31,3.02.09,4.58.41,1.44.3,2.98.32,4.53.62,1.45.28,2.76,1.54,4.31,1.81,1.46.26,3.13-.46,4.67-.2s2.76,1.78,4.31,2.02,3.12-.45,4.66-.23,3,.33,4.54.53,2.96.66,4.5.84,2.95.82,4.49.98,3.11-.71,4.65-.57,2.89,1.76,4.43,1.89,3.06-.19,4.6-.09,3.02.33,4.56.42,3.07-.69,4.61-.63,3.03.04,4.57.09,3.03.25,4.57.28,3.03.68,4.57.69,3.04-.38,4.58-.38,3.04-.18,4.57-.21,3.07,1,4.61.96,2.98-1.7,4.52-1.77,3.11,1.33,4.65,1.25,2.96-1.54,4.5-1.64c1.28-.08,2.83.64,4.51.51,1.36-.1,2.87-.05,4.47-.2,1.39-.13,2.93.16,4.5,0,1.41-.15,2.9-.39,4.44-.57,1.42-.16,2.9-.4,4.43-.6,1.43-.18,2.9-.5,4.42-.71,1.43-.2,2.84-.91,4.35-1.14s2.91-.44,4.42-.69,2.86-.75,4.36-1.01,3.12.64,4.61.36,2.67-1.78,4.16-2.08,2.91-.52,4.38-.83,2.93-.44,4.4-.76,2.72-1.37,4.19-1.71,3.05.03,4.52-.33,2.79-1.06,4.25-1.43,3.11.17,4.56-.22,2.56-1.88,4.01-2.28,3.3.75,4.75.33,2.46-2.15,3.91-2.59,2.75-1.15,4.18-1.6,2.8-.97,4.23-1.44,2.94-.56,4.37-1.05c1.4-.48,3.07-.13,4.44-.62s2.83-.83,4.2-1.33,2.78-.99,4.14-1.5,2.83-.88,4.18-1.4,2.28-2.26,3.62-2.8,2.72-1.13,4.06-1.68,3.09-.26,4.42-.83,2.84-.89,4.16-1.48,2.68-1.25,4-1.85,2.17-2.36,3.47-2.97,2.89-.81,4.18-1.43,3.06-.5,4.34-1.14,2.58-1.49,3.85-2.14c1.34-.68,1.96-2.67,3.22-3.33,1.34-.7,3.09-.52,4.33-1.19,1.34-.72,2.93-.89,4.15-1.57,1.35-.75,1.74-3.03,2.94-3.72,1.36-.78,3.01-.84,4.18-1.53,1.39-.82,2.36-2.04,3.48-2.72,1.5-.91,2.61-1.89,3.59-2.5,1.29-.81,2.77-1.3,4.02-2.11s2.78-1.29,4.03-2.12,3.15-.77,4.39-1.62,1.72-2.87,2.94-3.73,3.19-.78,4.4-1.65,1.88-2.6,3.08-3.49,2.99-1.1,4.17-2,2.29-2.03,3.47-2.95,2.16-2.19,3.32-3.12,2.98-1.18,4.13-2.12,1.62-2.85,2.75-3.8c1.19-1,2.64-1.62,3.75-2.58,1.18-1.02,1.56-2.81,2.66-3.78.34-.42,1.18-1.52,2.06-3.37.55-1.16,1.02-2.3,1.25-3.8.21-1.33,1.24-2.7.89-4.16-.32-1.33-.96-2.69-1.79-3.87-.78-1.1-2.46-1.33-3.61-2.22-1.07-.82-1.73-2.29-3.06-2.87-1.24-.54-2.59-1.04-4.01-1.33-1.33-.26-2.76-1.2-4.21-1.2-1.35,0-2.34,1.99-3.77,2.26-1.14.9-2.55,1.18-3.78,2.13-1.15.9-2.44,1.69-3.68,2.63-1.17.89-3.02.93-4.26,1.85s-2.07,2.21-3.31,3.11-2.04,2.27-3.3,3.15-2.88,1.08-4.15,1.95-2.5,1.62-3.77,2.48-2.68,1.35-3.96,2.19-2.33,1.89-3.62,2.71-1.68,2.96-2.97,3.76-2.56,1.58-3.86,2.37-3.21.48-4.52,1.26c-1.29.77-2.67,1.36-3.95,2.1s-2.67,1.35-3.96,2.08-2.03,2.52-3.33,3.23-3.09.61-4.39,1.31-2.8,1.12-4.11,1.81-2.27,2.15-3.59,2.81-2.36,2.01-3.69,2.66-3.29.11-4.62.74-2.49,1.76-3.83,2.38-2.67,1.39-4.02,1.99-2.76,1.21-4.1,1.79-2.63,1.51-3.98,2.08-3.04.55-4.39,1.11-2.78,1.18-4.13,1.72-2.56,1.76-3.92,2.28c-1.43.55-3.02.58-4.38,1.09-1.44.53-2.92.82-4.29,1.31-1.46.52-2.97.71-4.33,1.17-1.47.51-2.57,1.94-3.92,2.38-1.5.49-3.03.63-4.36,1.05-1.54.48-3.28-.11-4.59.29-1.6.48-2.5,2.74-3.74,3.09-1.48.42-3,.67-4.46,1.07s-2.94.91-4.4,1.3-3.04.53-4.5.89-3.12.16-4.59.51-2.83,1.41-4.3,1.74-3.36-1.02-4.83-.71-2.71,2.06-4.19,2.35-3.12,0-4.6.28-3.06.33-4.54.58-3.07.18-4.56.42-2.89,1.43-4.37,1.65-3.19-.61-4.67-.41-3.03.53-4.51.71-3,.82-4.48.98-3.07.25-4.55.4c-1.56.15-3.05.63-4.52.75-1.57.13-3.07.52-4.54.63-1.58.11-3.17-.96-4.63-.88-1.6.09-3.1.43-4.54.49-1.62.07-3.12.82-4.53.87-1.67.05-3.18.59-4.55.61-1.5.03-3.01-1.49-4.5-1.48s-2.99.81-4.47.8-2.98-.97-4.46-1-3,.37-4.48.33-3.01.29-4.48.23-2.99-.21-4.47-.3-2.93-1.02-4.41-1.12-3.01.17-4.48.05-3.03.26-4.5.12-3.06.46-4.53.3-2.9-1.08-4.37-1.25-2.88-1.19-4.34-1.38-3.08.36-4.54.15-2.95-.58-4.4-.81-3.15.6-4.6.36-2.86-1.15-4.3-1.41-2.92-.8-4.35-1.08-2.98-.47-4.41-.76-2.86-1.05-4.28-1.36c-1.5-.33-3.05-.24-4.46-.57-1.5-.35-3.03-.38-4.43-.73-1.51-.38-3.09-.23-4.47-.59-1.52-.4-2.64-1.97-4-2.35-1.54-.43-3.21,0-4.54-.4-1.58-.47-3.07-.7-4.35-1.1-1.7-.53-3.01-1.36-4.14-1.74-1.4-.47-2.96-.52-4.39-1s-2.71-1.26-4.14-1.75-2.49-1.88-3.92-2.39-3.23.2-4.65-.32-2.87-.84-4.29-1.38-2.1-2.78-3.51-3.34-3.46.58-4.85-.01-2.69-1.31-4.07-1.93-2.62-1.46-3.99-2.11-2.28-2.12-3.64-2.8-2.99-.67-4.34-1.37-2.22-2.15-3.55-2.88-2.74-1.18-4.06-1.94-3.09-.63-4.39-1.42-1.67-2.95-2.95-3.77c-1.3-.82-2.54-1.68-3.79-2.47s-3.38-.36-4.63-1.15-2.55-1.67-3.8-2.46-1.94-2.62-3.19-3.41-3.21-.64-4.45-1.43c-1.3-.83-2.11-2.37-3.35-3.16-1.31-.83-2.38-1.95-3.61-2.74-1.31-.84-2.75-1.38-3.98-2.17-1.31-.84-3.19-.72-4.41-1.52-1.31-.85-2.39-1.96-3.6-2.75-1.32-.86-2.67-1.55-3.87-2.34-1.32-.87-1.76-2.93-2.94-3.73-1.33-.89-3.4-.52-4.56-1.33-1.34-.92-2.1-2.47-3.22-3.28-1.35-.98-2.25-2.26-3.31-3.09-1.39-1.08-3.21-1.22-4.14-2.08-.35-.32-.94-1.84-2.58-3.01-.92-.66-2.41-.76-3.69-1.46-1.07-.58-2.31-.85-3.61-1.36Z"/>
        </g>
        <g id="i" data-name="Cercio Destra">
          <path class="q" d="M766.08,325.48c-.82-1.15-1.1-2.87-2.38-3.89-1.16-.93-2.06-2.64-3.48-3.32s-3.12-1.11-4.62-1.4-3.32-.36-4.85-.15-2.65,1.79-4.04,2.59c-1.34.77-2.99,1.23-3.98,2.44s-1.65,2.68-2.23,4.15.11,3.08-.05,4.65-.35,2.8-.09,4.36c.58,1.33,1.28,2.63,1.92,4.14.58,1.35,1.08,2.83,1.7,4.32.57,1.37.95,2.9,1.56,4.38.57,1.39.63,3.03,1.23,4.51.56,1.4,2.02,2.48,2.6,3.96s.47,3.1,1.03,4.58.42,3.12.98,4.6,2,2.53,2.54,4.01c.53,1.44,1.2,2.84,1.73,4.28s1.28,2.8,1.8,4.24-.21,3.34.31,4.78,1.2,2.83,1.71,4.27.98,2.9,1.49,4.35,2.1,2.52,2.6,3.97.43,3.09.91,4.55.48,3.06.95,4.53.48,3.05.93,4.52.98,2.89,1.41,4.37,2.18,2.56,2.6,4.04.6,3.01,1,4.5.5,3.03.88,4.53.81,2.95,1.17,4.45.61,3,.95,4.51.87,2.94,1.19,4.45.12,3.1.41,4.62.7,2.98.97,4.5c.27,1.51.6,3,.84,4.5s.43,3.03.65,4.53.28,3.05.47,4.55.75,2.99.93,4.49-.17,3.1-.02,4.6-.3,3.09-.17,4.6.82,3,.92,4.5.17,3.05.26,4.56-.13,3.06-.06,4.57.7,3.03.75,4.54.21,3.06.23,4.57.97,3.06.97,4.57-.15,3.07-.17,4.58-1.09,3.05-1.12,4.56-.07,3.06-.12,4.57.05,3.06-.02,4.57.03,3.07-.05,4.57-.69,3.03-.78,4.53-.74,3.02-.85,4.52.58,3.11.46,4.61-.84,3-.96,4.5-.41,3.04-.54,4.53.06,3.08-.08,4.57c-.14,1.55,1.12,3.22.97,4.73s-.74,3.05-.91,4.55-.99,3.02-1.16,4.52-.56,3.06-.75,4.56-.56,3.06-.77,4.55-.44,3.08-.66,4.57c-.23,1.56-.03,3.15-.26,4.63-.24,1.57.21,3.2-.03,4.68-.26,1.57-1.94,2.85-2.19,4.31-.27,1.58-.19,3.19-.45,4.64-.04,1.54,1.53,2.94,1.71,4.35.19,1.52-.31,3.04.1,4.4.44,1.47,1.13,2.74,1.77,4,.7,1.37,1.89,2.22,2.77,3.33.96,1.22,1.72,2.31,2.81,3.18,1.23.98,2.18,2.09,3.46,2.59,1.49.57,2.92,1.06,4.29.91,1.43-.15,2.52-1.33,3.88-2.27,1.17-.8,3.08-1.03,4.09-2.31.89-1.14,2.07-2.41,2.78-3.85.64-1.32.36-3.16.79-4.69.4-1.42.79-2.91.96-4.48.41-1.44.88-3.01,1.34-4.74.39-1.49,1.08-3.02,1.5-4.71.37-1.52.32-3.23.7-4.91.35-1.55.18-3.26.52-4.93.32-1.56,1.09-3.08,1.4-4.75.26-1.39.23-2.87.48-4.36.23-1.39.69-2.78.91-4.28.2-1.39-.08-2.89.11-4.4.18-1.39.76-2.79.92-4.3.15-1.4.88-2.8,1.01-4.31.12-1.4-.42-2.91-.31-4.42.1-1.41,1.32-2.79,1.41-4.3.08-1.41.08-2.88.15-4.39.06-1.42-.92-2.92-.87-4.42.05-1.42.59-2.87.63-4.37.03-1.42-.9-2.9-.88-4.4s.14-2.88.15-4.38.75-2.88.75-4.38-.92-2.89-.93-4.38-.06-2.89-.08-4.38c-.02-1.57,1.03-3.13,1.01-4.63s.1-3.12.08-4.62.3-3.12.28-4.63-.12-3.12-.14-4.62-.38-3.11-.41-4.61-1.04-3.09-1.08-4.6.54-3.13.49-4.64-.93-3.07-.99-4.58.39-3.12.31-4.64-.75-3.05-.85-4.57.72-3.15.59-4.67.5-3.15.35-4.67-.97-3-1.15-4.53-1.08-2.95-1.29-4.49-.37-3.02-.61-4.56.77-3.22.5-4.76-.34-3.05-.63-4.59c-.12-.64-2.24-1.75-2.69-3.91-.25-1.21-.07-2.74-.42-4.36-.29-1.3-.95-2.63-1.31-4.16-.31-1.33.8-3.09.44-4.58-.33-1.35-2.32-2.36-2.69-3.82-.35-1.36-.15-2.91-.53-4.36-.36-1.37-.02-2.97-.42-4.4s-.44-2.87-.85-4.29-2.05-2.4-2.48-3.81-1.08-2.68-1.52-4.08.54-3.21.08-4.61-.59-2.87-1.06-4.25-2.37-2.24-2.87-3.63-.49-2.91-1-4.28c-.59-1.59-1.12-3.05-1.66-4.41-.62-1.57-1.3-2.97-1.86-4.33-.63-1.52-1.39-2.87-1.99-4.26s-.95-2.98-1.58-4.44c-.59-1.38-.89-2.93-1.52-4.46-.56-1.35-2.33-2.31-2.94-3.88-.53-1.36.1-3.27-.49-4.86-.29-.77-.69-2.17-1.57-4.14-.5-1.12-.99-2.5-1.7-4.06-.54-1.2-1.67-2.29-2.34-3.77-.56-1.23-.81-2.73-1.46-4.17-.58-1.25-1.09-2.63-1.74-4.05-.38-.82-2.09-.77-2.77-1.72Z"/>
        </g>
      </g>
      <text class="p" transform="translate(123.08 751.76) scale(.93 1)"><tspan x="0" y="0">SHU</tspan></text>
      <text class="o" transform="translate(311.15 480.37)"><tspan x="0" y="0">BY</tspan></text>
      <text class="n" transform="translate(149.87 366.15) rotate(-35.07)"><tspan x="0" y="0">M</tspan></text>
      <text class="n" transform="translate(316.24 248.85) rotate(-6.11)"><tspan x="0" y="0">A</tspan></text>
      <text class="n" transform="translate(456.68 228.64) rotate(22.1)"><tspan x="0" y="0">D</tspan></text>
      <text class="n" transform="translate(590.51 280.53) rotate(44.49)"><tspan x="0" y="0">E</tspan></text>
    </g>
  </g>
</svg>