<?xml version="1.0" encoding="UTF-8"?>
<svg id="b" data-name="Livello 2" xmlns="http://www.w3.org/2000/svg" viewBox="0 0 799.98 800">
  <defs>
    <style>
      .d {
        fill: #fff;
      }
    </style>
  </defs>
  <g id="c" data-name="Capa 1">
    <path class="d" d="M400.01,0C179.43,0,0,179.43,0,399.98s179.44,400.02,400,400.02,399.98-179.44,399.98-400.02c0-220.55-179.42-399.98-399.97-399.98ZM40.37,399.98c0-52.13,11.18-101.64,31.14-146.35l171.55,470.02c-119.96-58.3-202.69-181.32-202.69-323.67ZM400.01,759.64c-35.3,0-69.38-5.18-101.6-14.66l107.9-313.54,110.57,302.85c.71,1.79,1.59,3.42,2.56,4.95-37.38,13.15-77.55,20.39-119.43,20.39ZM449.56,231.37c21.65-1.14,41.17-3.42,41.17-3.42,19.37-2.29,17.1-30.76-2.3-29.63,0,0-58.25,4.56-95.86,4.56-35.33,0-94.73-4.56-94.73-4.56-19.38-1.14-21.65,28.49-2.27,29.63,0,0,18.35,2.29,37.71,3.42l56.03,153.52-78.7,236.03L179.67,231.38c21.68-1.13,41.16-3.42,41.16-3.42,19.37-2.29,17.08-30.77-2.31-29.61,0,0-58.22,4.56-95.84,4.56-6.76,0-14.71-.17-23.14-.43C163.82,104.83,274.37,40.37,400.01,40.37c93.64,0,178.88,35.79,242.85,94.41-1.55-.08-3.06-.29-4.67-.29-35.31,0-60.38,30.77-60.38,63.83,0,29.63,17.08,54.71,35.31,84.34,13.69,23.96,29.65,54.74,29.65,99.19,0,30.79-11.82,66.5-27.37,116.26l-35.87,119.88-129.97-386.6ZM580.8,710.86l109.85-317.61c20.54-51.3,27.35-92.32,27.35-128.82,0-13.23-.86-25.52-2.43-36.98,28.1,51.23,44.08,110.02,44.06,172.55,0,132.67-71.93,248.51-178.84,310.86Z"/>
  </g>
</svg>